<svg width="247" height="140" viewBox="0 0 247 140" fill="none" xmlns="http://www.w3.org/2000/svg">
<g clip-path="url(#clip0_139_19)">
<mask id="mask0_139_19" style="mask-type:luminance" maskUnits="userSpaceOnUse" x="0" y="0" width="247" height="140">
<path d="M0 6C0 2.6863 2.68629 0 6 0H247V140H6C2.6863 140 0 137.314 0 134V6Z" fill="white"/>
</mask>
<g mask="url(#mask0_139_19)">
<path d="M0 6C0 2.6863 2.68629 0 6 0H247V140H6C2.6863 140 0 137.314 0 134V6Z" fill="#FCFDFC"/>
<path d="M15.575 104.81H14.233V108H13.21V100.19H15.762C17.863 100.19 18.358 101.466 18.358 102.5C18.358 103.534 17.764 104.81 15.575 104.81ZM14.233 101.048V103.974H15.597C16.994 103.974 17.28 103.149 17.28 102.511C17.28 101.873 17.016 101.048 15.707 101.048H14.233ZM25.5863 108H24.4533L22.6493 104.733H21.2193V108H20.1963V100.19H22.7043C24.3873 100.19 25.3443 101.015 25.3443 102.467C25.3443 103.523 24.7283 104.293 23.6833 104.568L25.5863 108ZM22.6603 101.048H21.2193V103.919H22.6603C23.7053 103.919 24.2663 103.413 24.2663 102.489C24.2663 101.554 23.7053 101.048 22.6603 101.048ZM29.9326 108.187C28.0296 108.187 27.0836 106.768 27.0836 104.447V103.743C27.0836 101.422 28.0296 100.003 29.9326 100.003C31.8356 100.003 32.7816 101.422 32.7816 103.743V104.447C32.7816 106.768 31.8356 108.187 29.9326 108.187ZM29.9326 107.307C31.1536 107.307 31.7146 106.405 31.7146 104.447V103.743C31.7146 101.785 31.1536 100.883 29.9326 100.883C28.7116 100.883 28.1506 101.785 28.1506 103.743V104.447C28.1506 106.405 28.7116 107.307 29.9326 107.307ZM35.2799 100.19L37.0289 106.493C37.0729 106.658 37.1389 106.944 37.1719 107.098H37.2159C37.2489 106.944 37.3149 106.658 37.3589 106.493L39.0859 100.19H40.1749L37.8209 108H36.5559L34.2129 100.19H35.2799ZM46.9192 100.19V101.015H44.9612V107.175H46.9192V108H41.9912V107.175H43.9382V101.015H41.9912V100.19H46.9192ZM51.8044 108.187C49.9234 108.187 49.0984 107.043 48.9114 105.756L49.9014 105.558C50.0774 106.493 50.6054 107.329 51.7934 107.329C52.5304 107.329 53.3884 107.076 53.3884 106.086C53.3884 105.052 52.7394 104.81 52.1234 104.645L51.0784 104.37C49.9784 104.073 49.1534 103.413 49.1534 102.203C49.1534 101.048 50.1214 100.003 51.6394 100.003C53.0694 100.003 54.2244 100.597 54.3784 102.192L53.3994 102.478C53.3004 101.246 52.5084 100.861 51.6724 100.861C50.5284 100.861 50.1984 101.532 50.1984 102.115C50.1984 102.808 50.7374 103.248 51.3974 103.435L52.3984 103.699C53.4434 103.974 54.4334 104.436 54.4334 105.943C54.4334 107.043 53.6634 108.187 51.8044 108.187ZM61.4417 100.19V101.015H59.4837V107.175H61.4417V108H56.5137V107.175H58.4607V101.015H56.5137V100.19H61.4417ZM66.239 108.187C64.336 108.187 63.39 106.768 63.39 104.447V103.743C63.39 101.422 64.336 100.003 66.239 100.003C68.142 100.003 69.088 101.422 69.088 103.743V104.447C69.088 106.768 68.142 108.187 66.239 108.187ZM66.239 107.307C67.46 107.307 68.021 106.405 68.021 104.447V103.743C68.021 101.785 67.46 100.883 66.239 100.883C65.018 100.883 64.457 101.785 64.457 103.743V104.447C64.457 106.405 65.018 107.307 66.239 107.307ZM72.3233 100.19L74.6223 105.503C74.8313 105.998 74.9523 106.361 74.9963 106.526H75.0183C74.9963 106.262 74.9963 105.976 74.9963 105.69V100.19H76.0193V108H74.8203L72.3673 102.379C72.1803 101.95 72.0153 101.455 72.0153 101.455H71.9823C72.0043 101.664 72.0043 101.895 72.0043 102.126V108H70.9813V100.19H72.3233ZM78.5066 100.19H83.0716V101.07H79.5296V103.567H82.8846V104.425H79.5296V107.12H83.1486V108H78.5066V100.19ZM87.7149 108H85.4489V100.19H87.7369C89.8819 100.19 91.0589 101.829 91.0589 104.084C91.0589 106.317 89.7719 108 87.7149 108ZM86.4719 101.048V107.142H87.7039C89.1779 107.142 90.0029 105.701 90.0029 104.084C90.0029 102.423 89.2439 101.048 87.7259 101.048H86.4719Z" fill="#7E8385"/>
<path d="M16.092 116.355V123.109H17.973V124H13.023V123.109H15.157V117.928C14.893 118.247 14.398 118.5 13.496 118.5H13.122V117.609H13.441C14.574 117.609 15.102 117.037 15.311 116.355H16.092ZM25.1243 124H20.1083V123.186C20.7353 122.724 21.7253 121.932 22.7043 120.997C23.6723 120.062 24.0023 119.424 24.0023 118.511C24.0023 117.576 23.4853 117.048 22.6053 117.048C21.7143 117.048 21.1753 117.587 21.1753 118.423C21.1753 118.621 21.2083 118.852 21.2633 119.127L20.2733 119.028C20.2183 118.808 20.1963 118.61 20.1963 118.412C20.1963 117.059 21.1203 116.19 22.6603 116.19C24.1453 116.19 25.0363 117.015 25.0363 118.5C25.0363 119.578 24.4973 120.513 23.3203 121.602C22.7263 122.152 22.1873 122.592 21.4393 123.109H25.1243V124ZM29.8886 124.165C28.5356 124.165 27.5676 123.373 27.3696 122.13L28.3926 122.009C28.5466 122.768 29.0526 123.318 29.9436 123.318C30.9556 123.318 31.5496 122.636 31.5496 121.514C31.5496 120.37 31.0216 119.611 29.9656 119.611C29.1516 119.611 28.6456 120.084 28.4366 120.887L27.4906 120.788L27.9416 116.355H32.1656V117.213H28.6896L28.4036 119.809C28.7666 119.138 29.3826 118.786 30.2076 118.786C31.6596 118.786 32.5396 119.809 32.5396 121.459C32.5396 123.065 31.5056 124.165 29.8886 124.165ZM38.7119 124H37.7769V122.064H34.3009V121.393L37.6449 116.355H38.7119V121.294H39.9659V122.064H38.7119V124ZM35.2689 121.294H37.7769V118.489C37.7769 118.137 37.7769 117.939 37.7989 117.378H37.7879C37.6559 117.73 37.5459 117.928 37.2159 118.434L35.7859 120.579C35.5549 120.931 35.4669 121.085 35.2689 121.294Z" fill="#A1A4A5"/>
<path d="M174.259 103.743V104.447C174.259 106.229 173.698 107.472 172.587 107.967C172.983 108.473 173.401 108.506 173.72 108.506C173.918 108.506 174.061 108.473 174.226 108.429V109.364C173.984 109.397 173.797 109.43 173.533 109.43C172.708 109.43 172.059 108.935 171.762 108.165C171.652 108.176 171.531 108.187 171.41 108.187C169.507 108.187 168.561 106.768 168.561 104.447V103.743C168.561 101.422 169.507 100.003 171.41 100.003C173.313 100.003 174.259 101.422 174.259 103.743ZM173.192 104.447V103.743C173.192 101.785 172.631 100.883 171.41 100.883C170.189 100.883 169.628 101.785 169.628 103.743V104.447C169.628 106.405 170.189 107.307 171.41 107.307C172.631 107.307 173.192 106.405 173.192 104.447ZM176.009 105.393V100.19H177.032V105.393C177.032 106.548 177.593 107.307 178.704 107.307C179.837 107.307 180.31 106.548 180.31 105.393V100.19H181.333V105.393C181.333 107.01 180.541 108.187 178.704 108.187C176.889 108.187 176.009 107.01 176.009 105.393ZM185.933 108.187C184.03 108.187 183.084 106.768 183.084 104.447V103.743C183.084 101.422 184.03 100.003 185.933 100.003C187.836 100.003 188.782 101.422 188.782 103.743V104.447C188.782 106.768 187.836 108.187 185.933 108.187ZM185.933 107.307C187.154 107.307 187.715 106.405 187.715 104.447V103.743C187.715 101.785 187.154 100.883 185.933 100.883C184.712 100.883 184.151 101.785 184.151 103.743V104.447C184.151 106.405 184.712 107.307 185.933 107.307ZM190.213 101.07V100.19H196.153V101.07H193.7V108H192.666V101.07H190.213ZM203.546 108H202.534L201.808 105.745H199.091L198.376 108H197.364L199.872 100.19H201.038L203.546 108ZM200.466 101.092H200.444C200.235 102.016 199.861 103.314 199.366 104.865H201.533C201.038 103.314 200.675 102.016 200.466 101.092Z" fill="#7E8385"/>
<path d="M173.863 124H168.847V123.186C169.474 122.724 170.464 121.932 171.443 120.997C172.411 120.062 172.741 119.424 172.741 118.511C172.741 117.576 172.224 117.048 171.344 117.048C170.453 117.048 169.914 117.587 169.914 118.423C169.914 118.621 169.947 118.852 170.002 119.127L169.012 119.028C168.957 118.808 168.935 118.61 168.935 118.412C168.935 117.059 169.859 116.19 171.399 116.19C172.884 116.19 173.775 117.015 173.775 118.5C173.775 119.578 173.236 120.513 172.059 121.602C171.465 122.152 170.926 122.592 170.178 123.109H173.863V124ZM178.671 116.19C180.409 116.19 181.454 117.356 181.465 120.183C181.454 122.999 180.409 124.165 178.671 124.165C176.933 124.165 175.888 122.999 175.877 120.183C175.888 117.356 176.933 116.19 178.671 116.19ZM178.671 117.015C177.582 117.015 176.856 117.752 176.845 120.183C176.845 120.832 176.9 121.371 177.01 121.8L180.035 117.763C179.716 117.213 179.243 117.015 178.671 117.015ZM178.671 123.34C179.76 123.34 180.486 122.581 180.497 120.183C180.497 119.457 180.431 118.885 180.31 118.434L177.252 122.493C177.571 123.109 178.066 123.34 178.671 123.34ZM185.933 116.19C187.671 116.19 188.716 117.356 188.727 120.183C188.716 122.999 187.671 124.165 185.933 124.165C184.195 124.165 183.15 122.999 183.139 120.183C183.15 117.356 184.195 116.19 185.933 116.19ZM185.933 117.015C184.844 117.015 184.118 117.752 184.107 120.183C184.107 120.832 184.162 121.371 184.272 121.8L187.297 117.763C186.978 117.213 186.505 117.015 185.933 117.015ZM185.933 123.34C187.022 123.34 187.748 122.581 187.759 120.183C187.759 119.457 187.693 118.885 187.572 118.434L184.514 122.493C184.833 123.109 185.328 123.34 185.933 123.34ZM193.194 116.19C194.932 116.19 195.977 117.356 195.988 120.183C195.977 122.999 194.932 124.165 193.194 124.165C191.456 124.165 190.411 122.999 190.4 120.183C190.411 117.356 191.456 116.19 193.194 116.19ZM193.194 117.015C192.105 117.015 191.379 117.752 191.368 120.183C191.368 120.832 191.423 121.371 191.533 121.8L194.558 117.763C194.239 117.213 193.766 117.015 193.194 117.015ZM193.194 123.34C194.283 123.34 195.009 122.581 195.02 120.183C195.02 119.457 194.954 118.885 194.833 118.434L191.775 122.493C192.094 123.109 192.589 123.34 193.194 123.34Z" fill="#A1A4A5"/>
<path d="M371 85H0V86H371V85Z" fill="#E5E5E5"/>
<path fill-rule="evenodd" clip-rule="evenodd" d="M12.75 16H27.25C27.6642 16 28 16.3358 28 16.75V23.25C28 23.6642 27.6642 24 27.25 24H15.3107C15.1117 24 14.921 23.921 14.7803 23.7803L12.2197 21.2197C12.079 21.079 12 20.8883 12 20.6893V16.75C12 16.3358 12.3358 16 12.75 16ZM15.25 20H13.75C13.3358 20 13 19.6642 13 19.25V17.75C13 17.3358 13.3358 17 13.75 17H15.25C15.6642 17 16 17.3358 16 17.75V19.25C16 19.6642 15.6642 20 15.25 20ZM19.75 23H21.25C21.6642 23 22 22.6642 22 22.25V17.75C22 17.3358 21.6642 17 21.25 17H19.75C19.3358 17 19 17.3358 19 17.75V22.25C19 22.6642 19.3358 23 19.75 23ZM23.75 23H25.25C25.6642 23 26 22.6642 26 22.25V17.75C26 17.3358 25.6642 17 25.25 17H23.75C23.3358 17 23 17.3358 23 17.75V22.25C23 22.6642 23.3358 23 23.75 23Z" fill="#ECBB5A"/>
<path d="M39.384 24H36.912V15.48H39.408C41.748 15.48 43.032 17.268 43.032 19.728C43.032 22.164 41.628 24 39.384 24ZM38.028 16.416V23.064H39.372C40.98 23.064 41.88 21.492 41.88 19.728C41.88 17.916 41.052 16.416 39.396 16.416H38.028ZM50.3294 15.48V16.38H48.1934V23.1H50.3294V24H44.9534V23.1H47.0774V16.38H44.9534V15.48H50.3294ZM55.6588 24.204C53.6068 24.204 52.7068 22.956 52.5028 21.552L53.5828 21.336C53.7748 22.356 54.3508 23.268 55.6468 23.268C56.4508 23.268 57.3868 22.992 57.3868 21.912C57.3868 20.784 56.6788 20.52 56.0068 20.34L54.8668 20.04C53.6668 19.716 52.7668 18.996 52.7668 17.676C52.7668 16.416 53.8228 15.276 55.4788 15.276C57.0388 15.276 58.2988 15.924 58.4668 17.664L57.3988 17.976C57.2908 16.632 56.4268 16.212 55.5148 16.212C54.2668 16.212 53.9068 16.944 53.9068 17.58C53.9068 18.336 54.4948 18.816 55.2148 19.02L56.3068 19.308C57.4468 19.608 58.5268 20.112 58.5268 21.756C58.5268 22.956 57.6868 24.204 55.6588 24.204ZM66.6882 24H65.3922L63.0402 19.632L61.8882 21.048V24H60.7722V15.48H61.8882V19.68L65.1042 15.48H66.4122L63.8202 18.84L66.6882 24Z" fill="#A1A4A5"/>
<path d="M76.156 25.104L75.556 25.68C73.636 24.492 72.52 22.356 72.52 20.148C72.52 17.94 73.636 15.804 75.556 14.616L76.156 15.192C74.416 16.548 73.612 18.06 73.612 20.148C73.612 22.236 74.416 23.748 76.156 25.104ZM81.4614 24.204C79.5414 24.204 78.5694 22.488 78.5694 20.124V19.284C78.5694 16.8 79.6734 15.276 81.6654 15.276C83.7894 15.276 84.2934 16.908 84.4254 17.856L83.3334 18.012C83.2494 17.292 82.8534 16.236 81.6294 16.236C80.4654 16.236 79.7334 16.98 79.7334 19.476V19.944C79.7334 21.972 80.2734 23.232 81.6294 23.232C83.1654 23.232 83.5014 21.672 83.5014 20.952V20.448H81.3654V19.548H84.5214V24H83.7534L83.5854 22.752C83.2374 23.604 82.6134 24.204 81.4614 24.204ZM92.2508 15.48V16.38H90.1148V23.1H92.2508V24H86.8748V23.1H88.9988V16.38H86.8748V15.48H92.2508ZM94.8442 15.48H97.5682C99.7642 15.48 100.34 16.74 100.34 17.748C100.34 18.552 99.8842 19.296 98.9122 19.572C99.9322 19.752 100.58 20.496 100.58 21.66C100.58 22.752 99.9322 24 97.8202 24H94.8442V15.48ZM97.5562 16.404H95.9602V19.2H97.5562C98.9722 19.2 99.2002 18.444 99.2002 17.832C99.2002 17.124 98.8882 16.404 97.5562 16.404ZM97.8682 20.112H95.9602V23.076H97.7482C99.0322 23.076 99.4402 22.356 99.4402 21.552C99.4402 20.736 98.9842 20.112 97.8682 20.112ZM103.57 25.68L102.97 25.104C104.71 23.748 105.514 22.236 105.514 20.148C105.514 18.06 104.71 16.548 102.97 15.192L103.57 14.616C105.49 15.804 106.606 17.94 106.606 20.148C106.606 22.356 105.49 24.492 103.57 25.68Z" fill="#7E8385"/>
<path d="M14 61.5H165.5V72.5H14C13.1716 72.5 12.5 71.8284 12.5 71V63C12.5 62.1716 13.1716 61.5 14 61.5Z" fill="#CAA352" stroke="#7E5F28"/>
<path d="M168.5 61.5H218.5L218.5 72.5H168.5L168.5 61.5Z" fill="#ECBB5A" stroke="#7E5F28"/>
<path d="M221.5 61.5H348C348.828 61.5 349.5 62.1716 349.5 63V71C349.5 71.8284 348.828 72.5 348 72.5H221.5V61.5Z" fill="#CAA352" stroke="#7E5F28"/>
</g>
</g>
<defs>
<clipPath id="clip0_139_19">
<rect width="247" height="140" fill="white"/>
</clipPath>
</defs>
</svg>
