<svg width="430" height="440" viewBox="0 0 430 440" fill="none" xmlns="http://www.w3.org/2000/svg">
<path d="M124.17 73.1912V78.6837C124.17 80.1706 123.283 81.258 121.596 81.258C119.732 81.258 119 79.7933 119 78.5284L120.02 78.1844C120.02 79.4271 120.542 80.3703 121.64 80.3703C122.794 80.3703 123.138 79.5492 123.138 78.4507V73.1912H124.17ZM132.283 81.0693H131.262L130.53 78.7947H127.789L127.068 81.0693H126.047L128.577 73.1912H129.753L132.283 81.0693ZM129.176 74.1011H129.154C128.943 75.0331 128.566 76.3425 128.066 77.907H130.252C129.753 76.3425 129.387 75.0331 129.176 74.1011ZM135.302 73.1912L137.621 78.5506C137.832 79.0499 137.954 79.416 137.998 79.5825H138.021C137.998 79.3162 137.998 79.0277 137.998 78.7392V73.1912H139.03V81.0693H137.821L135.347 75.3993C135.158 74.9666 134.991 74.4673 134.991 74.4673H134.958C134.98 74.6781 134.98 74.9111 134.98 75.1441V81.0693H133.948V73.1912H135.302Z" fill="#5B5F61"/>
<path d="M78.5144 100.179C76.7123 100.179 75.9219 99.0832 75.7427 97.8502L76.6912 97.6605C76.8598 98.5562 77.3657 99.3572 78.5038 99.3572C79.2099 99.3572 80.0319 99.1148 80.0319 98.1663C80.0319 97.1757 79.4101 96.9439 78.82 96.7858L77.8188 96.5223C76.765 96.2378 75.9746 95.6055 75.9746 94.4462C75.9746 93.3397 76.902 92.3386 78.3563 92.3386C79.7263 92.3386 80.8328 92.9076 80.9803 94.4357L80.0424 94.7097C79.9476 93.5294 79.1888 93.1606 78.3879 93.1606C77.2919 93.1606 76.9757 93.8034 76.9757 94.3619C76.9757 95.0259 77.4921 95.4474 78.1244 95.6266L79.0834 95.8795C80.0846 96.1429 81.033 96.5856 81.033 98.0293C81.033 99.0832 80.2953 100.179 78.5144 100.179Z" fill="#7E8385"/>
<path d="M98.5053 95.2788L97.8519 98.2085H96.9456L96.2923 95.2788C96.1869 94.8362 96.0183 93.8772 95.955 93.3503H95.8918C95.9023 93.8245 95.9129 94.7202 95.9129 95.3526V100H94.9855V92.5177H96.4082L97.2513 96.4275C97.2934 96.6593 97.3461 96.9439 97.3672 97.0914H97.4304C97.4515 96.9439 97.5042 96.6593 97.5463 96.4275L98.3894 92.5177H99.8121V100H98.8847V95.3526C98.8847 94.7202 98.8953 93.8245 98.9058 93.3503H98.8426C98.7793 93.8772 98.6107 94.8362 98.5053 95.2788Z" fill="#7E8385"/>
<path d="M113.513 93.3608V92.5177H119.203V93.3608H116.853V100H115.863V93.3608H113.513Z" fill="#7E8385"/>
<path d="M134.41 100H133.124L132.555 92.5177H133.535L133.788 97.8291C133.83 98.6195 133.83 98.9988 133.83 99.1675H133.936C133.946 98.9251 133.988 98.5035 134.146 97.7553L134.874 94.3619H135.801L136.528 97.7553C136.686 98.5035 136.728 98.9251 136.739 99.1675H136.844C136.844 98.9988 136.844 98.6195 136.886 97.8291L137.139 92.5177H138.119L137.55 100H136.265L135.59 96.7858C135.453 96.1219 135.411 95.7214 135.39 95.2893H135.285C135.264 95.7214 135.221 96.1219 135.084 96.7858L134.41 100Z" fill="#7E8385"/>
<path d="M151.451 93.3608V92.5177H157.142V93.3608H154.792V100H153.801V93.3608H151.451Z" fill="#7E8385"/>
<path d="M171.221 92.5177H175.805V93.3608H172.201V95.753H175.52V96.5961H172.201V100H171.221V92.5177Z" fill="#7E8385"/>
<path d="M192.33 100.179C190.528 100.179 189.737 99.0832 189.558 97.8502L190.507 97.6605C190.675 98.5562 191.181 99.3572 192.319 99.3572C193.025 99.3572 193.847 99.1148 193.847 98.1663C193.847 97.1757 193.226 96.9439 192.635 96.7858L191.634 96.5223C190.58 96.2378 189.79 95.6055 189.79 94.4462C189.79 93.3397 190.717 92.3386 192.172 92.3386C193.542 92.3386 194.648 92.9076 194.796 94.4357L193.858 94.7097C193.763 93.5294 193.004 93.1606 192.203 93.1606C191.107 93.1606 190.791 93.8034 190.791 94.3619C190.791 95.0259 191.308 95.4474 191.94 95.6266L192.899 95.8795C193.9 96.1429 194.848 96.5856 194.848 98.0293C194.848 99.0832 194.111 100.179 192.33 100.179Z" fill="#7E8385"/>
<path d="M141 113.5H129C128.172 113.5 127.5 114.172 127.5 115V127C127.5 127.828 128.172 128.5 129 128.5H141C141.828 128.5 142.5 127.828 142.5 127V115C142.5 114.172 141.828 113.5 141 113.5Z" fill="#A1A1A1" fill-opacity="0.8" stroke="#464646" stroke-opacity="0.5"/>
<path d="M160 113.5H148C147.172 113.5 146.5 114.172 146.5 115V127C146.5 127.828 147.172 128.5 148 128.5H160C160.828 128.5 161.5 127.828 161.5 127V115C161.5 114.172 160.828 113.5 160 113.5Z" fill="#A1A1A1" fill-opacity="0.8" stroke="#464646" stroke-opacity="0.5"/>
<path d="M179 113.5H167C166.172 113.5 165.5 114.172 165.5 115V127C165.5 127.828 166.172 128.5 167 128.5H179C179.828 128.5 180.5 127.828 180.5 127V115C180.5 114.172 179.828 113.5 179 113.5Z" fill="#A1A1A1" fill-opacity="0.8" stroke="#464646" stroke-opacity="0.5"/>
<path d="M198 113.5H186C185.172 113.5 184.5 114.172 184.5 115V127C184.5 127.828 185.172 128.5 186 128.5H198C198.828 128.5 199.5 127.828 199.5 127V115C199.5 114.172 198.828 113.5 198 113.5Z" fill="#A1A1A1" fill-opacity="0.8" stroke="#464646" stroke-opacity="0.5"/>
<path d="M84 132.5H72C71.1716 132.5 70.5 133.172 70.5 134V146C70.5 146.828 71.1716 147.5 72 147.5H84C84.8284 147.5 85.5 146.828 85.5 146V134C85.5 133.172 84.8284 132.5 84 132.5Z" fill="#A1A1A1" fill-opacity="0.8" stroke="#464646" stroke-opacity="0.5"/>
<path d="M103 132.5H91C90.1716 132.5 89.5 133.172 89.5 134V146C89.5 146.828 90.1716 147.5 91 147.5H103C103.828 147.5 104.5 146.828 104.5 146V134C104.5 133.172 103.828 132.5 103 132.5Z" fill="#A1A1A1" fill-opacity="0.8" stroke="#464646" stroke-opacity="0.5"/>
<path d="M122 132.5H110C109.172 132.5 108.5 133.172 108.5 134V146C108.5 146.828 109.172 147.5 110 147.5H122C122.828 147.5 123.5 146.828 123.5 146V134C123.5 133.172 122.828 132.5 122 132.5Z" fill="#A1A1A1" fill-opacity="0.8" stroke="#464646" stroke-opacity="0.5"/>
<path d="M141 132.5H129C128.172 132.5 127.5 133.172 127.5 134V146C127.5 146.828 128.172 147.5 129 147.5H141C141.828 147.5 142.5 146.828 142.5 146V134C142.5 133.172 141.828 132.5 141 132.5Z" fill="#A1A1A1" fill-opacity="0.8" stroke="#464646" stroke-opacity="0.5"/>
<path d="M160 132.5H148C147.172 132.5 146.5 133.172 146.5 134V146C146.5 146.828 147.172 147.5 148 147.5H160C160.828 147.5 161.5 146.828 161.5 146V134C161.5 133.172 160.828 132.5 160 132.5Z" fill="#A1A1A1" fill-opacity="0.8" stroke="#464646" stroke-opacity="0.5"/>
<path d="M179 132.5H167C166.172 132.5 165.5 133.172 165.5 134V146C165.5 146.828 166.172 147.5 167 147.5H179C179.828 147.5 180.5 146.828 180.5 146V134C180.5 133.172 179.828 132.5 179 132.5Z" fill="#A1A1A1" fill-opacity="0.8" stroke="#464646" stroke-opacity="0.5"/>
<path d="M198 132.5H186C185.172 132.5 184.5 133.172 184.5 134V146C184.5 146.828 185.172 147.5 186 147.5H198C198.828 147.5 199.5 146.828 199.5 146V134C199.5 133.172 198.828 132.5 198 132.5Z" fill="#A1A1A1" fill-opacity="0.8" stroke="#464646" stroke-opacity="0.5"/>
<path d="M84 151.5H72C71.1716 151.5 70.5 152.172 70.5 153V165C70.5 165.828 71.1716 166.5 72 166.5H84C84.8284 166.5 85.5 165.828 85.5 165V153C85.5 152.172 84.8284 151.5 84 151.5Z" fill="#A1A1A1" fill-opacity="0.8" stroke="#464646" stroke-opacity="0.5"/>
<path d="M103 151.5H91C90.1716 151.5 89.5 152.172 89.5 153V165C89.5 165.828 90.1716 166.5 91 166.5H103C103.828 166.5 104.5 165.828 104.5 165V153C104.5 152.172 103.828 151.5 103 151.5Z" fill="#A1A1A1" fill-opacity="0.8" stroke="#464646" stroke-opacity="0.5"/>
<path d="M122 151.5H110C109.172 151.5 108.5 152.172 108.5 153V165C108.5 165.828 109.172 166.5 110 166.5H122C122.828 166.5 123.5 165.828 123.5 165V153C123.5 152.172 122.828 151.5 122 151.5Z" fill="#A1A1A1" fill-opacity="0.8" stroke="#464646" stroke-opacity="0.5"/>
<path d="M141 151.5H129C128.172 151.5 127.5 152.172 127.5 153V165C127.5 165.828 128.172 166.5 129 166.5H141C141.828 166.5 142.5 165.828 142.5 165V153C142.5 152.172 141.828 151.5 141 151.5Z" fill="#A1A1A1" fill-opacity="0.8" stroke="#464646" stroke-opacity="0.5"/>
<path d="M160 151.5H148C147.172 151.5 146.5 152.172 146.5 153V165C146.5 165.828 147.172 166.5 148 166.5H160C160.828 166.5 161.5 165.828 161.5 165V153C161.5 152.172 160.828 151.5 160 151.5Z" fill="#A1A1A1" fill-opacity="0.8" stroke="#464646" stroke-opacity="0.5"/>
<path d="M179 151.5H167C166.172 151.5 165.5 152.172 165.5 153V165C165.5 165.828 166.172 166.5 167 166.5H179C179.828 166.5 180.5 165.828 180.5 165V153C180.5 152.172 179.828 151.5 179 151.5Z" fill="#A1A1A1" fill-opacity="0.8" stroke="#464646" stroke-opacity="0.5"/>
<path d="M198 151.5H186C185.172 151.5 184.5 152.172 184.5 153V165C184.5 165.828 185.172 166.5 186 166.5H198C198.828 166.5 199.5 165.828 199.5 165V153C199.5 152.172 198.828 151.5 198 151.5Z" fill="#A1A1A1" fill-opacity="0.8" stroke="#464646" stroke-opacity="0.5"/>
<path d="M84 170.5H72C71.1716 170.5 70.5 171.172 70.5 172V184C70.5 184.828 71.1716 185.5 72 185.5H84C84.8284 185.5 85.5 184.828 85.5 184V172C85.5 171.172 84.8284 170.5 84 170.5Z" fill="#A1A1A1" fill-opacity="0.8" stroke="#464646" stroke-opacity="0.5"/>
<path d="M103 170.5H91C90.1716 170.5 89.5 171.172 89.5 172V184C89.5 184.828 90.1716 185.5 91 185.5H103C103.828 185.5 104.5 184.828 104.5 184V172C104.5 171.172 103.828 170.5 103 170.5Z" fill="#A1A1A1" fill-opacity="0.8" stroke="#464646" stroke-opacity="0.5"/>
<path d="M122 170.5H110C109.172 170.5 108.5 171.172 108.5 172V184C108.5 184.828 109.172 185.5 110 185.5H122C122.828 185.5 123.5 184.828 123.5 184V172C123.5 171.172 122.828 170.5 122 170.5Z" fill="#A1A1A1" fill-opacity="0.8" stroke="#464646" stroke-opacity="0.5"/>
<path d="M141 170.5H129C128.172 170.5 127.5 171.172 127.5 172V184C127.5 184.828 128.172 185.5 129 185.5H141C141.828 185.5 142.5 184.828 142.5 184V172C142.5 171.172 141.828 170.5 141 170.5Z" fill="#A1A1A1" fill-opacity="0.8" stroke="#464646" stroke-opacity="0.5"/>
<path d="M160 170.5H148C147.172 170.5 146.5 171.172 146.5 172V184C146.5 184.828 147.172 185.5 148 185.5H160C160.828 185.5 161.5 184.828 161.5 184V172C161.5 171.172 160.828 170.5 160 170.5Z" fill="#A1A1A1" fill-opacity="0.8" stroke="#464646" stroke-opacity="0.5"/>
<path d="M179 170.5H167C166.172 170.5 165.5 171.172 165.5 172V184C165.5 184.828 166.172 185.5 167 185.5H179C179.828 185.5 180.5 184.828 180.5 184V172C180.5 171.172 179.828 170.5 179 170.5Z" fill="#A1A1A1" fill-opacity="0.8" stroke="#464646" stroke-opacity="0.5"/>
<path d="M198 170.5H186C185.172 170.5 184.5 171.172 184.5 172V184C184.5 184.828 185.172 185.5 186 185.5H198C198.828 185.5 199.5 184.828 199.5 184V172C199.5 171.172 198.828 170.5 198 170.5Z" fill="#A1A1A1" fill-opacity="0.8" stroke="#464646" stroke-opacity="0.5"/>
<path d="M84 189.5H72C71.1716 189.5 70.5 190.172 70.5 191V203C70.5 203.828 71.1716 204.5 72 204.5H84C84.8284 204.5 85.5 203.828 85.5 203V191C85.5 190.172 84.8284 189.5 84 189.5Z" fill="#A1A1A1" fill-opacity="0.8" stroke="#464646" stroke-opacity="0.5"/>
<path d="M103 189.5H91C90.1716 189.5 89.5 190.172 89.5 191V203C89.5 203.828 90.1716 204.5 91 204.5H103C103.828 204.5 104.5 203.828 104.5 203V191C104.5 190.172 103.828 189.5 103 189.5Z" fill="#A1A1A1" fill-opacity="0.8" stroke="#464646" stroke-opacity="0.5"/>
<path d="M122 189.5H110C109.172 189.5 108.5 190.172 108.5 191V203C108.5 203.828 109.172 204.5 110 204.5H122C122.828 204.5 123.5 203.828 123.5 203V191C123.5 190.172 122.828 189.5 122 189.5Z" fill="#A1A1A1" fill-opacity="0.8" stroke="#464646" stroke-opacity="0.5"/>
<path d="M141 189.5H129C128.172 189.5 127.5 190.172 127.5 191V203C127.5 203.828 128.172 204.5 129 204.5H141C141.828 204.5 142.5 203.828 142.5 203V191C142.5 190.172 141.828 189.5 141 189.5Z" fill="#A1A1A1" fill-opacity="0.8" stroke="#464646" stroke-opacity="0.5"/>
<path d="M160 189.5H148C147.172 189.5 146.5 190.172 146.5 191V203C146.5 203.828 147.172 204.5 148 204.5H160C160.828 204.5 161.5 203.828 161.5 203V191C161.5 190.172 160.828 189.5 160 189.5Z" fill="#A1A1A1" fill-opacity="0.8" stroke="#464646" stroke-opacity="0.5"/>
<path d="M179 189.5H167C166.172 189.5 165.5 190.172 165.5 191V203C165.5 203.828 166.172 204.5 167 204.5H179C179.828 204.5 180.5 203.828 180.5 203V191C180.5 190.172 179.828 189.5 179 189.5Z" fill="#A1A1A1" fill-opacity="0.8" stroke="#464646" stroke-opacity="0.5"/>
<path d="M285.511 73.1912H290.338V74.0789H286.543V76.5977H290.038V77.4853H286.543V81.0693H285.511V73.1912ZM292.725 73.1912H297.329V74.0789H293.757V76.5977H297.141V77.4632H293.757V80.1817H297.407V81.0693H292.725V73.1912ZM299.883 73.1912H302.402C304.432 73.1912 304.965 74.3563 304.965 75.2884C304.965 76.0318 304.543 76.7197 303.644 76.9749C304.588 77.1414 305.187 77.8293 305.187 78.9056C305.187 79.9154 304.588 81.0693 302.635 81.0693H299.883V73.1912ZM302.391 74.0456H300.915V76.631H302.391C303.7 76.631 303.911 75.9319 303.911 75.366C303.911 74.7114 303.622 74.0456 302.391 74.0456ZM302.679 77.4743H300.915V80.2149H302.568C303.755 80.2149 304.133 79.5492 304.133 78.8058C304.133 78.0512 303.711 77.4743 302.679 77.4743Z" fill="#5B5F61"/>
<path d="M238.514 100.179C236.712 100.179 235.922 99.0832 235.743 97.8502L236.691 97.6605C236.86 98.5562 237.366 99.3572 238.504 99.3572C239.21 99.3572 240.032 99.1148 240.032 98.1663C240.032 97.1757 239.41 96.9439 238.82 96.7858L237.819 96.5223C236.765 96.2378 235.975 95.6055 235.975 94.4462C235.975 93.3397 236.902 92.3386 238.356 92.3386C239.726 92.3386 240.833 92.9076 240.98 94.4357L240.042 94.7097C239.948 93.5294 239.189 93.1606 238.388 93.1606C237.292 93.1606 236.976 93.8034 236.976 94.3619C236.976 95.0259 237.492 95.4474 238.124 95.6266L239.083 95.8795C240.085 96.1429 241.033 96.5856 241.033 98.0293C241.033 99.0832 240.295 100.179 238.514 100.179Z" fill="#7E8385"/>
<path d="M258.505 95.2788L257.852 98.2085H256.946L256.292 95.2788C256.187 94.8362 256.018 93.8772 255.955 93.3503H255.892C255.902 93.8245 255.913 94.7202 255.913 95.3526V100H254.985V92.5177H256.408L257.251 96.4275C257.293 96.6593 257.346 96.9439 257.367 97.0914H257.43C257.451 96.9439 257.504 96.6593 257.546 96.4275L258.389 92.5177H259.812V100H258.885V95.3526C258.885 94.7202 258.895 93.8245 258.906 93.3503H258.843C258.779 93.8772 258.611 94.8362 258.505 95.2788Z" fill="#7E8385"/>
<path d="M273.513 93.3608V92.5177H279.203V93.3608H276.853V100H275.863V93.3608H273.513Z" fill="#7E8385"/>
<path d="M294.41 100H293.124L292.555 92.5177H293.535L293.788 97.8291C293.83 98.6195 293.83 98.9988 293.83 99.1675H293.936C293.946 98.9251 293.988 98.5035 294.146 97.7553L294.874 94.3619H295.801L296.528 97.7553C296.686 98.5035 296.728 98.9251 296.739 99.1675H296.844C296.844 98.9988 296.844 98.6195 296.886 97.8291L297.139 92.5177H298.119L297.55 100H296.265L295.59 96.7858C295.453 96.1219 295.411 95.7214 295.39 95.2893H295.285C295.264 95.7214 295.221 96.1219 295.084 96.7858L294.41 100Z" fill="#7E8385"/>
<path d="M311.451 93.3608V92.5177H317.142V93.3608H314.792V100H313.801V93.3608H311.451Z" fill="#7E8385"/>
<path d="M331.221 92.5177H335.805V93.3608H332.201V95.753H335.52V96.5961H332.201V100H331.221V92.5177Z" fill="#7E8385"/>
<path d="M352.33 100.179C350.528 100.179 349.737 99.0832 349.558 97.8502L350.507 97.6605C350.675 98.5562 351.181 99.3572 352.319 99.3572C353.025 99.3572 353.847 99.1148 353.847 98.1663C353.847 97.1757 353.226 96.9439 352.635 96.7858L351.634 96.5223C350.58 96.2378 349.79 95.6055 349.79 94.4462C349.79 93.3397 350.717 92.3386 352.172 92.3386C353.542 92.3386 354.648 92.9076 354.796 94.4357L353.858 94.7097C353.763 93.5294 353.004 93.1606 352.203 93.1606C351.107 93.1606 350.791 93.8034 350.791 94.3619C350.791 95.0259 351.308 95.4474 351.94 95.6266L352.899 95.8795C353.9 96.1429 354.848 96.5856 354.848 98.0293C354.848 99.0832 354.111 100.179 352.33 100.179Z" fill="#7E8385"/>
<path d="M263 113.5H251C250.172 113.5 249.5 114.172 249.5 115V127C249.5 127.828 250.172 128.5 251 128.5H263C263.828 128.5 264.5 127.828 264.5 127V115C264.5 114.172 263.828 113.5 263 113.5Z" fill="#3D3019" fill-opacity="0.7" stroke="#F5B944"/>
<path d="M282 113.5H270C269.172 113.5 268.5 114.172 268.5 115V127C268.5 127.828 269.172 128.5 270 128.5H282C282.828 128.5 283.5 127.828 283.5 127V115C283.5 114.172 282.828 113.5 282 113.5Z" fill="#3D3019" fill-opacity="0.7" stroke="#F5B944"/>
<path d="M301 113.5H289C288.172 113.5 287.5 114.172 287.5 115V127C287.5 127.828 288.172 128.5 289 128.5H301C301.828 128.5 302.5 127.828 302.5 127V115C302.5 114.172 301.828 113.5 301 113.5Z" fill="#3D3019" fill-opacity="0.7" stroke="#F5B944"/>
<path d="M320 113.5H308C307.172 113.5 306.5 114.172 306.5 115V127C306.5 127.828 307.172 128.5 308 128.5H320C320.828 128.5 321.5 127.828 321.5 127V115C321.5 114.172 320.828 113.5 320 113.5Z" fill="#3D3019" fill-opacity="0.7" stroke="#F5B944"/>
<path d="M339 113.5H327C326.172 113.5 325.5 114.172 325.5 115V127C325.5 127.828 326.172 128.5 327 128.5H339C339.828 128.5 340.5 127.828 340.5 127V115C340.5 114.172 339.828 113.5 339 113.5Z" fill="#3D3019" fill-opacity="0.7" stroke="#F5B944"/>
<path d="M358 113.5H346C345.172 113.5 344.5 114.172 344.5 115V127C344.5 127.828 345.172 128.5 346 128.5H358C358.828 128.5 359.5 127.828 359.5 127V115C359.5 114.172 358.828 113.5 358 113.5Z" fill="#3D3019" fill-opacity="0.7" stroke="#F5B944"/>
<path d="M244 132.5H232C231.172 132.5 230.5 133.172 230.5 134V146C230.5 146.828 231.172 147.5 232 147.5H244C244.828 147.5 245.5 146.828 245.5 146V134C245.5 133.172 244.828 132.5 244 132.5Z" fill="#3D3019" fill-opacity="0.7" stroke="#F5B944"/>
<path d="M263 132.5H251C250.172 132.5 249.5 133.172 249.5 134V146C249.5 146.828 250.172 147.5 251 147.5H263C263.828 147.5 264.5 146.828 264.5 146V134C264.5 133.172 263.828 132.5 263 132.5Z" fill="#3D3019" fill-opacity="0.7" stroke="#F5B944"/>
<path d="M282 132.5H270C269.172 132.5 268.5 133.172 268.5 134V146C268.5 146.828 269.172 147.5 270 147.5H282C282.828 147.5 283.5 146.828 283.5 146V134C283.5 133.172 282.828 132.5 282 132.5Z" fill="#3D3019" fill-opacity="0.7" stroke="#F5B944"/>
<path d="M301 132.5H289C288.172 132.5 287.5 133.172 287.5 134V146C287.5 146.828 288.172 147.5 289 147.5H301C301.828 147.5 302.5 146.828 302.5 146V134C302.5 133.172 301.828 132.5 301 132.5Z" fill="#3D3019" fill-opacity="0.7" stroke="#F5B944"/>
<path d="M320 132.5H308C307.172 132.5 306.5 133.172 306.5 134V146C306.5 146.828 307.172 147.5 308 147.5H320C320.828 147.5 321.5 146.828 321.5 146V134C321.5 133.172 320.828 132.5 320 132.5Z" fill="#3D3019" fill-opacity="0.7" stroke="#F5B944"/>
<path d="M339 132.5H327C326.172 132.5 325.5 133.172 325.5 134V146C325.5 146.828 326.172 147.5 327 147.5H339C339.828 147.5 340.5 146.828 340.5 146V134C340.5 133.172 339.828 132.5 339 132.5Z" fill="#3D3019" fill-opacity="0.7" stroke="#F5B944"/>
<path d="M358 132.5H346C345.172 132.5 344.5 133.172 344.5 134V146C344.5 146.828 345.172 147.5 346 147.5H358C358.828 147.5 359.5 146.828 359.5 146V134C359.5 133.172 358.828 132.5 358 132.5Z" fill="#3D3019" fill-opacity="0.7" stroke="#F5B944"/>
<path d="M244 151.5H232C231.172 151.5 230.5 152.172 230.5 153V165C230.5 165.828 231.172 166.5 232 166.5H244C244.828 166.5 245.5 165.828 245.5 165V153C245.5 152.172 244.828 151.5 244 151.5Z" fill="#3D3019" fill-opacity="0.7" stroke="#F5B944"/>
<path d="M263 151.5H251C250.172 151.5 249.5 152.172 249.5 153V165C249.5 165.828 250.172 166.5 251 166.5H263C263.828 166.5 264.5 165.828 264.5 165V153C264.5 152.172 263.828 151.5 263 151.5Z" fill="#3D3019" fill-opacity="0.7" stroke="#F5B944"/>
<path d="M282 151.5H270C269.172 151.5 268.5 152.172 268.5 153V165C268.5 165.828 269.172 166.5 270 166.5H282C282.828 166.5 283.5 165.828 283.5 165V153C283.5 152.172 282.828 151.5 282 151.5Z" fill="#3D3019" fill-opacity="0.7" stroke="#F5B944"/>
<path d="M301 151.5H289C288.172 151.5 287.5 152.172 287.5 153V165C287.5 165.828 288.172 166.5 289 166.5H301C301.828 166.5 302.5 165.828 302.5 165V153C302.5 152.172 301.828 151.5 301 151.5Z" fill="#3D3019" fill-opacity="0.7" stroke="#F5B944"/>
<path d="M320 151.5H308C307.172 151.5 306.5 152.172 306.5 153V165C306.5 165.828 307.172 166.5 308 166.5H320C320.828 166.5 321.5 165.828 321.5 165V153C321.5 152.172 320.828 151.5 320 151.5Z" fill="#3D3019" fill-opacity="0.7" stroke="#F5B944"/>
<path d="M339 151.5H327C326.172 151.5 325.5 152.172 325.5 153V165C325.5 165.828 326.172 166.5 327 166.5H339C339.828 166.5 340.5 165.828 340.5 165V153C340.5 152.172 339.828 151.5 339 151.5Z" fill="#3D3019" fill-opacity="0.7" stroke="#F5B944"/>
<path d="M358 151.5H346C345.172 151.5 344.5 152.172 344.5 153V165C344.5 165.828 345.172 166.5 346 166.5H358C358.828 166.5 359.5 165.828 359.5 165V153C359.5 152.172 358.828 151.5 358 151.5Z" fill="#3D3019" fill-opacity="0.7" stroke="#F5B944"/>
<path d="M244 170.5H232C231.172 170.5 230.5 171.172 230.5 172V184C230.5 184.828 231.172 185.5 232 185.5H244C244.828 185.5 245.5 184.828 245.5 184V172C245.5 171.172 244.828 170.5 244 170.5Z" fill="#3D3019" fill-opacity="0.7" stroke="#F5B944"/>
<path d="M263 170.5H251C250.172 170.5 249.5 171.172 249.5 172V184C249.5 184.828 250.172 185.5 251 185.5H263C263.828 185.5 264.5 184.828 264.5 184V172C264.5 171.172 263.828 170.5 263 170.5Z" fill="#3D3019" fill-opacity="0.7" stroke="#F5B944"/>
<path d="M282 170.5H270C269.172 170.5 268.5 171.172 268.5 172V184C268.5 184.828 269.172 185.5 270 185.5H282C282.828 185.5 283.5 184.828 283.5 184V172C283.5 171.172 282.828 170.5 282 170.5Z" fill="#3D3019" fill-opacity="0.7" stroke="#F5B944"/>
<path d="M301 170.5H289C288.172 170.5 287.5 171.172 287.5 172V184C287.5 184.828 288.172 185.5 289 185.5H301C301.828 185.5 302.5 184.828 302.5 184V172C302.5 171.172 301.828 170.5 301 170.5Z" fill="#3D3019" fill-opacity="0.7" stroke="#F5B944"/>
<path d="M320 170.5H308C307.172 170.5 306.5 171.172 306.5 172V184C306.5 184.828 307.172 185.5 308 185.5H320C320.828 185.5 321.5 184.828 321.5 184V172C321.5 171.172 320.828 170.5 320 170.5Z" fill="#3D3019" fill-opacity="0.7" stroke="#F5B944"/>
<path d="M339 170.5H327C326.172 170.5 325.5 171.172 325.5 172V184C325.5 184.828 326.172 185.5 327 185.5H339C339.828 185.5 340.5 184.828 340.5 184V172C340.5 171.172 339.828 170.5 339 170.5Z" fill="#3D3019" fill-opacity="0.7" stroke="#F5B944"/>
<path d="M358 170.5H346C345.172 170.5 344.5 171.172 344.5 172V184C344.5 184.828 345.172 185.5 346 185.5H358C358.828 185.5 359.5 184.828 359.5 184V172C359.5 171.172 358.828 170.5 358 170.5Z" fill="#3D3019" fill-opacity="0.7" stroke="#F5B944"/>
<path d="M244 189.5H232C231.172 189.5 230.5 190.172 230.5 191V203C230.5 203.828 231.172 204.5 232 204.5H244C244.828 204.5 245.5 203.828 245.5 203V191C245.5 190.172 244.828 189.5 244 189.5Z" fill="#3D3019" fill-opacity="0.7" stroke="#F5B944"/>
<path d="M128.84 241.098L128.152 244.183H127.198L126.51 241.098C126.399 240.632 126.221 239.623 126.155 239.068H126.088C126.099 239.567 126.11 240.51 126.11 241.176V246.069H125.134V238.191H126.632L127.519 242.308C127.564 242.552 127.619 242.852 127.641 243.007H127.708C127.73 242.852 127.786 242.552 127.83 242.308L128.718 238.191H130.216V246.069H129.239V241.176C129.239 240.51 129.25 239.567 129.261 239.068H129.195C129.128 239.623 128.951 240.632 128.84 241.098ZM138.117 246.069H137.096L136.364 243.795H133.623L132.902 246.069H131.881L134.411 238.191H135.587L138.117 246.069ZM135.01 239.101H134.988C134.777 240.033 134.4 241.342 133.901 242.907H136.087C135.587 241.342 135.221 240.033 135.01 239.101ZM145.264 246.069H144.122L142.302 242.774H140.859V246.069H139.827V238.191H142.357C144.055 238.191 145.02 239.023 145.02 240.488C145.02 241.553 144.399 242.33 143.345 242.607L145.264 246.069ZM142.313 239.057H140.859V241.953H142.313C143.367 241.953 143.933 241.442 143.933 240.51C143.933 239.567 143.367 239.057 142.313 239.057Z" fill="#5B5F61"/>
<path d="M78.5144 265.179C76.7123 265.179 75.9219 264.083 75.7427 262.85L76.6912 262.66C76.8598 263.556 77.3657 264.357 78.5038 264.357C79.2099 264.357 80.0319 264.115 80.0319 263.166C80.0319 262.176 79.4101 261.944 78.82 261.786L77.8188 261.522C76.765 261.238 75.9746 260.605 75.9746 259.446C75.9746 258.34 76.902 257.339 78.3563 257.339C79.7263 257.339 80.8328 257.908 80.9803 259.436L80.0424 259.71C79.9476 258.529 79.1888 258.161 78.3879 258.161C77.2919 258.161 76.9757 258.803 76.9757 259.362C76.9757 260.026 77.4921 260.447 78.1244 260.627L79.0834 260.879C80.0846 261.143 81.033 261.586 81.033 263.029C81.033 264.083 80.2953 265.179 78.5144 265.179Z" fill="#7E8385"/>
<path d="M98.5053 260.279L97.8519 263.208H96.9456L96.2923 260.279C96.1869 259.836 96.0183 258.877 95.955 258.35H95.8918C95.9023 258.824 95.9129 259.72 95.9129 260.353V265H94.9855V257.518H96.4082L97.2513 261.427C97.2934 261.659 97.3461 261.944 97.3672 262.091H97.4304C97.4515 261.944 97.5042 261.659 97.5463 261.427L98.3894 257.518H99.8121V265H98.8847V260.353C98.8847 259.72 98.8953 258.824 98.9058 258.35H98.8426C98.7793 258.877 98.6107 259.836 98.5053 260.279Z" fill="#7E8385"/>
<path d="M113.513 258.361V257.518H119.203V258.361H116.853V265H115.863V258.361H113.513Z" fill="#7E8385"/>
<path d="M134.41 265H133.124L132.555 257.518H133.535L133.788 262.829C133.83 263.619 133.83 263.999 133.83 264.167H133.936C133.946 263.925 133.988 263.504 134.146 262.755L134.874 259.362H135.801L136.528 262.755C136.686 263.504 136.728 263.925 136.739 264.167H136.844C136.844 263.999 136.844 263.619 136.886 262.829L137.139 257.518H138.119L137.55 265H136.265L135.59 261.786C135.453 261.122 135.411 260.721 135.39 260.289H135.285C135.264 260.721 135.221 261.122 135.084 261.786L134.41 265Z" fill="#7E8385"/>
<path d="M151.451 258.361V257.518H157.142V258.361H154.792V265H153.801V258.361H151.451Z" fill="#7E8385"/>
<path d="M171.221 257.518H175.805V258.361H172.201V260.753H175.52V261.596H172.201V265H171.221V257.518Z" fill="#7E8385"/>
<path d="M192.33 265.179C190.528 265.179 189.737 264.083 189.558 262.85L190.507 262.66C190.675 263.556 191.181 264.357 192.319 264.357C193.025 264.357 193.847 264.115 193.847 263.166C193.847 262.176 193.226 261.944 192.635 261.786L191.634 261.522C190.58 261.238 189.79 260.605 189.79 259.446C189.79 258.34 190.717 257.339 192.172 257.339C193.542 257.339 194.648 257.908 194.796 259.436L193.858 259.71C193.763 258.529 193.004 258.161 192.203 258.161C191.107 258.161 190.791 258.803 190.791 259.362C190.791 260.026 191.308 260.447 191.94 260.627L192.899 260.879C193.9 261.143 194.848 261.586 194.848 263.029C194.848 264.083 194.111 265.179 192.33 265.179Z" fill="#7E8385"/>
<path d="M103 278.5H91C90.1716 278.5 89.5 279.172 89.5 280V292C89.5 292.828 90.1716 293.5 91 293.5H103C103.828 293.5 104.5 292.828 104.5 292V280C104.5 279.172 103.828 278.5 103 278.5Z" fill="#845D1A" fill-opacity="0.7" stroke="#F5B944"/>
<path d="M122 278.5H110C109.172 278.5 108.5 279.172 108.5 280V292C108.5 292.828 109.172 293.5 110 293.5H122C122.828 293.5 123.5 292.828 123.5 292V280C123.5 279.172 122.828 278.5 122 278.5Z" fill="#845D1A" fill-opacity="0.7" stroke="#F5B944"/>
<path d="M141 278.5H129C128.172 278.5 127.5 279.172 127.5 280V292C127.5 292.828 128.172 293.5 129 293.5H141C141.828 293.5 142.5 292.828 142.5 292V280C142.5 279.172 141.828 278.5 141 278.5Z" fill="#845D1A" fill-opacity="0.7" stroke="#F5B944"/>
<path d="M160 278.5H148C147.172 278.5 146.5 279.172 146.5 280V292C146.5 292.828 147.172 293.5 148 293.5H160C160.828 293.5 161.5 292.828 161.5 292V280C161.5 279.172 160.828 278.5 160 278.5Z" fill="#845D1A" fill-opacity="0.7" stroke="#F5B944"/>
<path d="M179 278.5H167C166.172 278.5 165.5 279.172 165.5 280V292C165.5 292.828 166.172 293.5 167 293.5H179C179.828 293.5 180.5 292.828 180.5 292V280C180.5 279.172 179.828 278.5 179 278.5Z" fill="#845D1A" fill-opacity="0.7" stroke="#F5B944"/>
<path d="M198 278.5H186C185.172 278.5 184.5 279.172 184.5 280V292C184.5 292.828 185.172 293.5 186 293.5H198C198.828 293.5 199.5 292.828 199.5 292V280C199.5 279.172 198.828 278.5 198 278.5Z" fill="#845D1A" fill-opacity="0.7" stroke="#F5B944"/>
<path d="M84 297.5H72C71.1716 297.5 70.5 298.172 70.5 299V311C70.5 311.828 71.1716 312.5 72 312.5H84C84.8284 312.5 85.5 311.828 85.5 311V299C85.5 298.172 84.8284 297.5 84 297.5Z" fill="#3D3019" fill-opacity="0.8" stroke="#F5B944"/>
<path d="M103 297.5H91C90.1716 297.5 89.5 298.172 89.5 299V311C89.5 311.828 90.1716 312.5 91 312.5H103C103.828 312.5 104.5 311.828 104.5 311V299C104.5 298.172 103.828 297.5 103 297.5Z" fill="#845D1A" fill-opacity="0.7" stroke="#F5B944"/>
<path d="M122 297.5H110C109.172 297.5 108.5 298.172 108.5 299V311C108.5 311.828 109.172 312.5 110 312.5H122C122.828 312.5 123.5 311.828 123.5 311V299C123.5 298.172 122.828 297.5 122 297.5Z" fill="#845D1A" fill-opacity="0.7" stroke="#F5B944"/>
<path d="M141 297.5H129C128.172 297.5 127.5 298.172 127.5 299V311C127.5 311.828 128.172 312.5 129 312.5H141C141.828 312.5 142.5 311.828 142.5 311V299C142.5 298.172 141.828 297.5 141 297.5Z" fill="#845D1A" fill-opacity="0.7" stroke="#F5B944"/>
<path d="M160 297.5H148C147.172 297.5 146.5 298.172 146.5 299V311C146.5 311.828 147.172 312.5 148 312.5H160C160.828 312.5 161.5 311.828 161.5 311V299C161.5 298.172 160.828 297.5 160 297.5Z" fill="#845D1A" fill-opacity="0.7" stroke="#F5B944"/>
<path d="M179 297.5H167C166.172 297.5 165.5 298.172 165.5 299V311C165.5 311.828 166.172 312.5 167 312.5H179C179.828 312.5 180.5 311.828 180.5 311V299C180.5 298.172 179.828 297.5 179 297.5Z" fill="#845D1A" fill-opacity="0.7" stroke="#F5B944"/>
<path d="M198 297.5H186C185.172 297.5 184.5 298.172 184.5 299V311C184.5 311.828 185.172 312.5 186 312.5H198C198.828 312.5 199.5 311.828 199.5 311V299C199.5 298.172 198.828 297.5 198 297.5Z" fill="#845D1A" fill-opacity="0.7" stroke="#F5B944"/>
<path d="M84 316.5H72C71.1716 316.5 70.5 317.172 70.5 318V330C70.5 330.828 71.1716 331.5 72 331.5H84C84.8284 331.5 85.5 330.828 85.5 330V318C85.5 317.172 84.8284 316.5 84 316.5Z" fill="#845D1A" fill-opacity="0.7" stroke="#F5B944"/>
<path d="M103 316.5H91C90.1716 316.5 89.5 317.172 89.5 318V330C89.5 330.828 90.1716 331.5 91 331.5H103C103.828 331.5 104.5 330.828 104.5 330V318C104.5 317.172 103.828 316.5 103 316.5Z" fill="#845D1A" fill-opacity="0.7" stroke="#F5B944"/>
<path d="M122 316.5H110C109.172 316.5 108.5 317.172 108.5 318V330C108.5 330.828 109.172 331.5 110 331.5H122C122.828 331.5 123.5 330.828 123.5 330V318C123.5 317.172 122.828 316.5 122 316.5Z" fill="#845D1A" fill-opacity="0.7" stroke="#F5B944"/>
<path d="M141 316.5H129C128.172 316.5 127.5 317.172 127.5 318V330C127.5 330.828 128.172 331.5 129 331.5H141C141.828 331.5 142.5 330.828 142.5 330V318C142.5 317.172 141.828 316.5 141 316.5Z" fill="#845D1A" fill-opacity="0.7" stroke="#F5B944"/>
<path d="M160 316.5H148C147.172 316.5 146.5 317.172 146.5 318V330C146.5 330.828 147.172 331.5 148 331.5H160C160.828 331.5 161.5 330.828 161.5 330V318C161.5 317.172 160.828 316.5 160 316.5Z" fill="#3D3019" fill-opacity="0.8" stroke="#F5B944"/>
<path d="M179 316.5H167C166.172 316.5 165.5 317.172 165.5 318V330C165.5 330.828 166.172 331.5 167 331.5H179C179.828 331.5 180.5 330.828 180.5 330V318C180.5 317.172 179.828 316.5 179 316.5Z" fill="#3D3019" fill-opacity="0.8" stroke="#F5B944"/>
<path d="M198 316.5H186C185.172 316.5 184.5 317.172 184.5 318V330C184.5 330.828 185.172 331.5 186 331.5H198C198.828 331.5 199.5 330.828 199.5 330V318C199.5 317.172 198.828 316.5 198 316.5Z" fill="#845D1A" fill-opacity="0.7" stroke="#F5B944"/>
<path d="M84 335.5H72C71.1716 335.5 70.5 336.172 70.5 337V349C70.5 349.828 71.1716 350.5 72 350.5H84C84.8284 350.5 85.5 349.828 85.5 349V337C85.5 336.172 84.8284 335.5 84 335.5Z" fill="#845D1A" fill-opacity="0.7" stroke="#F5B944"/>
<path d="M103 335.5H91C90.1716 335.5 89.5 336.172 89.5 337V349C89.5 349.828 90.1716 350.5 91 350.5H103C103.828 350.5 104.5 349.828 104.5 349V337C104.5 336.172 103.828 335.5 103 335.5Z" fill="#845D1A" fill-opacity="0.7" stroke="#F5B944"/>
<path d="M122 335.5H110C109.172 335.5 108.5 336.172 108.5 337V349C108.5 349.828 109.172 350.5 110 350.5H122C122.828 350.5 123.5 349.828 123.5 349V337C123.5 336.172 122.828 335.5 122 335.5Z" fill="#845D1A" fill-opacity="0.7" stroke="#F5B944"/>
<path d="M141 335.5H129C128.172 335.5 127.5 336.172 127.5 337V349C127.5 349.828 128.172 350.5 129 350.5H141C141.828 350.5 142.5 349.828 142.5 349V337C142.5 336.172 141.828 335.5 141 335.5Z" fill="#3D3019" fill-opacity="0.8" stroke="#F5B944"/>
<path d="M160 335.5H148C147.172 335.5 146.5 336.172 146.5 337V349C146.5 349.828 147.172 350.5 148 350.5H160C160.828 350.5 161.5 349.828 161.5 349V337C161.5 336.172 160.828 335.5 160 335.5Z" fill="#845D1A" fill-opacity="0.7" stroke="#F5B944"/>
<path d="M179 335.5H167C166.172 335.5 165.5 336.172 165.5 337V349C165.5 349.828 166.172 350.5 167 350.5H179C179.828 350.5 180.5 349.828 180.5 349V337C180.5 336.172 179.828 335.5 179 335.5Z" fill="#845D1A" fill-opacity="0.7" stroke="#F5B944"/>
<path d="M198 335.5H186C185.172 335.5 184.5 336.172 184.5 337V349C184.5 349.828 185.172 350.5 186 350.5H198C198.828 350.5 199.5 349.828 199.5 349V337C199.5 336.172 198.828 335.5 198 335.5Z" fill="#845D1A" fill-opacity="0.7" stroke="#F5B944"/>
<path d="M84 354.5H72C71.1716 354.5 70.5 355.172 70.5 356V368C70.5 368.828 71.1716 369.5 72 369.5H84C84.8284 369.5 85.5 368.828 85.5 368V356C85.5 355.172 84.8284 354.5 84 354.5Z" fill="#845D1A" fill-opacity="0.7" stroke="#F5B944"/>
<path d="M103 354.5H91C90.1716 354.5 89.5 355.172 89.5 356V368C89.5 368.828 90.1716 369.5 91 369.5H103C103.828 369.5 104.5 368.828 104.5 368V356C104.5 355.172 103.828 354.5 103 354.5Z" fill="#3D3019" fill-opacity="0.8" stroke="#F5B944"/>
<path d="M122 354.5H110C109.172 354.5 108.5 355.172 108.5 356V368C108.5 368.828 109.172 369.5 110 369.5H122C122.828 369.5 123.5 368.828 123.5 368V356C123.5 355.172 122.828 354.5 122 354.5Z" fill="#845D1A" fill-opacity="0.7" stroke="#F5B944"/>
<path d="M141 354.5H129C128.172 354.5 127.5 355.172 127.5 356V368C127.5 368.828 128.172 369.5 129 369.5H141C141.828 369.5 142.5 368.828 142.5 368V356C142.5 355.172 141.828 354.5 141 354.5Z" fill="#845D1A" fill-opacity="0.7" stroke="#F5B944"/>
<path d="M290.793 246.069H289.772L289.04 243.795H286.299L285.578 246.069H284.557L287.087 238.191H288.263L290.793 246.069ZM287.686 239.101H287.664C287.453 240.033 287.076 241.342 286.576 242.907H288.762C288.263 241.342 287.897 240.033 287.686 239.101ZM295.166 242.852H293.812V246.069H292.78V238.191H295.354C297.474 238.191 297.973 239.478 297.973 240.521C297.973 241.564 297.374 242.852 295.166 242.852ZM293.812 239.057V242.008H295.188C296.597 242.008 296.886 241.176 296.886 240.532C296.886 239.889 296.619 239.057 295.299 239.057H293.812ZM305.264 246.069H304.122L302.302 242.774H300.859V246.069H299.827V238.191H302.357C304.055 238.191 305.02 239.023 305.02 240.488C305.02 241.553 304.399 242.33 303.345 242.607L305.264 246.069ZM302.313 239.057H300.859V241.953H302.313C303.367 241.953 303.933 241.442 303.933 240.51C303.933 239.567 303.367 239.057 302.313 239.057Z" fill="#5B5F61"/>
<path d="M238.514 265.179C236.712 265.179 235.922 264.083 235.743 262.85L236.691 262.66C236.86 263.556 237.366 264.357 238.504 264.357C239.21 264.357 240.032 264.115 240.032 263.166C240.032 262.176 239.41 261.944 238.82 261.786L237.819 261.522C236.765 261.238 235.975 260.605 235.975 259.446C235.975 258.34 236.902 257.339 238.356 257.339C239.726 257.339 240.833 257.908 240.98 259.436L240.042 259.71C239.948 258.529 239.189 258.161 238.388 258.161C237.292 258.161 236.976 258.803 236.976 259.362C236.976 260.026 237.492 260.447 238.124 260.627L239.083 260.879C240.085 261.143 241.033 261.586 241.033 263.029C241.033 264.083 240.295 265.179 238.514 265.179Z" fill="#7E8385"/>
<path d="M258.505 260.279L257.852 263.208H256.946L256.292 260.279C256.187 259.836 256.018 258.877 255.955 258.35H255.892C255.902 258.824 255.913 259.72 255.913 260.353V265H254.985V257.518H256.408L257.251 261.427C257.293 261.659 257.346 261.944 257.367 262.091H257.43C257.451 261.944 257.504 261.659 257.546 261.427L258.389 257.518H259.812V265H258.885V260.353C258.885 259.72 258.895 258.824 258.906 258.35H258.843C258.779 258.877 258.611 259.836 258.505 260.279Z" fill="#7E8385"/>
<path d="M273.513 258.361V257.518H279.203V258.361H276.853V265H275.863V258.361H273.513Z" fill="#7E8385"/>
<path d="M294.41 265H293.124L292.555 257.518H293.535L293.788 262.829C293.83 263.619 293.83 263.999 293.83 264.167H293.936C293.946 263.925 293.988 263.504 294.146 262.755L294.874 259.362H295.801L296.528 262.755C296.686 263.504 296.728 263.925 296.739 264.167H296.844C296.844 263.999 296.844 263.619 296.886 262.829L297.139 257.518H298.119L297.55 265H296.265L295.59 261.786C295.453 261.122 295.411 260.721 295.39 260.289H295.285C295.264 260.721 295.221 261.122 295.084 261.786L294.41 265Z" fill="#7E8385"/>
<path d="M311.451 258.361V257.518H317.142V258.361H314.792V265H313.801V258.361H311.451Z" fill="#7E8385"/>
<path d="M331.221 257.518H335.805V258.361H332.201V260.753H335.52V261.596H332.201V265H331.221V257.518Z" fill="#7E8385"/>
<path d="M352.33 265.179C350.528 265.179 349.737 264.083 349.558 262.85L350.507 262.66C350.675 263.556 351.181 264.357 352.319 264.357C353.025 264.357 353.847 264.115 353.847 263.166C353.847 262.176 353.226 261.944 352.635 261.786L351.634 261.522C350.58 261.238 349.79 260.605 349.79 259.446C349.79 258.34 350.717 257.339 352.172 257.339C353.542 257.339 354.648 257.908 354.796 259.436L353.858 259.71C353.763 258.529 353.004 258.161 352.203 258.161C351.107 258.161 350.791 258.803 350.791 259.362C350.791 260.026 351.308 260.447 351.94 260.627L352.899 260.879C353.9 261.143 354.848 261.586 354.848 263.029C354.848 264.083 354.111 265.179 352.33 265.179Z" fill="#7E8385"/>
<path d="M320 278.5H308C307.172 278.5 306.5 279.172 306.5 280V292C306.5 292.828 307.172 293.5 308 293.5H320C320.828 293.5 321.5 292.828 321.5 292V280C321.5 279.172 320.828 278.5 320 278.5Z" fill="#845D1A" fill-opacity="0.7" stroke="#F5B944"/>
<path d="M339 278.5H327C326.172 278.5 325.5 279.172 325.5 280V292C325.5 292.828 326.172 293.5 327 293.5H339C339.828 293.5 340.5 292.828 340.5 292V280C340.5 279.172 339.828 278.5 339 278.5Z" fill="#845D1A" fill-opacity="0.7" stroke="#F5B944"/>
<path d="M358 278.5H346C345.172 278.5 344.5 279.172 344.5 280V292C344.5 292.828 345.172 293.5 346 293.5H358C358.828 293.5 359.5 292.828 359.5 292V280C359.5 279.172 358.828 278.5 358 278.5Z" fill="#3D3019" fill-opacity="0.8" stroke="#F5B944"/>
<path d="M244 297.5H232C231.172 297.5 230.5 298.172 230.5 299V311C230.5 311.828 231.172 312.5 232 312.5H244C244.828 312.5 245.5 311.828 245.5 311V299C245.5 298.172 244.828 297.5 244 297.5Z" fill="#3D3019" fill-opacity="0.8" stroke="#F5B944"/>
<path d="M263 297.5H251C250.172 297.5 249.5 298.172 249.5 299V311C249.5 311.828 250.172 312.5 251 312.5H263C263.828 312.5 264.5 311.828 264.5 311V299C264.5 298.172 263.828 297.5 263 297.5Z" fill="#845D1A" fill-opacity="0.7" stroke="#F5B944"/>
<path d="M282 297.5H270C269.172 297.5 268.5 298.172 268.5 299V311C268.5 311.828 269.172 312.5 270 312.5H282C282.828 312.5 283.5 311.828 283.5 311V299C283.5 298.172 282.828 297.5 282 297.5Z" fill="#845D1A" fill-opacity="0.7" stroke="#F5B944"/>
<path d="M301 297.5H289C288.172 297.5 287.5 298.172 287.5 299V311C287.5 311.828 288.172 312.5 289 312.5H301C301.828 312.5 302.5 311.828 302.5 311V299C302.5 298.172 301.828 297.5 301 297.5Z" fill="#845D1A" fill-opacity="0.7" stroke="#F5B944"/>
<path d="M320 297.5H308C307.172 297.5 306.5 298.172 306.5 299V311C306.5 311.828 307.172 312.5 308 312.5H320C320.828 312.5 321.5 311.828 321.5 311V299C321.5 298.172 320.828 297.5 320 297.5Z" fill="#845D1A" fill-opacity="0.7" stroke="#F5B944"/>
<path d="M339 297.5H327C326.172 297.5 325.5 298.172 325.5 299V311C325.5 311.828 326.172 312.5 327 312.5H339C339.828 312.5 340.5 311.828 340.5 311V299C340.5 298.172 339.828 297.5 339 297.5Z" fill="#845D1A" fill-opacity="0.7" stroke="#F5B944"/>
<path d="M358 297.5H346C345.172 297.5 344.5 298.172 344.5 299V311C344.5 311.828 345.172 312.5 346 312.5H358C358.828 312.5 359.5 311.828 359.5 311V299C359.5 298.172 358.828 297.5 358 297.5Z" fill="#845D1A" fill-opacity="0.7" stroke="#F5B944"/>
<path d="M244 316.5H232C231.172 316.5 230.5 317.172 230.5 318V330C230.5 330.828 231.172 331.5 232 331.5H244C244.828 331.5 245.5 330.828 245.5 330V318C245.5 317.172 244.828 316.5 244 316.5Z" fill="#845D1A" fill-opacity="0.7" stroke="#F5B944"/>
<path d="M263 316.5H251C250.172 316.5 249.5 317.172 249.5 318V330C249.5 330.828 250.172 331.5 251 331.5H263C263.828 331.5 264.5 330.828 264.5 330V318C264.5 317.172 263.828 316.5 263 316.5Z" fill="#845D1A" fill-opacity="0.7" stroke="#F5B944"/>
<path d="M282 316.5H270C269.172 316.5 268.5 317.172 268.5 318V330C268.5 330.828 269.172 331.5 270 331.5H282C282.828 331.5 283.5 330.828 283.5 330V318C283.5 317.172 282.828 316.5 282 316.5Z" fill="#845D1A" fill-opacity="0.7" stroke="#F5B944"/>
<path d="M301 316.5H289C288.172 316.5 287.5 317.172 287.5 318V330C287.5 330.828 288.172 331.5 289 331.5H301C301.828 331.5 302.5 330.828 302.5 330V318C302.5 317.172 301.828 316.5 301 316.5Z" fill="#845D1A" fill-opacity="0.7" stroke="#F5B944"/>
<path d="M320 316.5H308C307.172 316.5 306.5 317.172 306.5 318V330C306.5 330.828 307.172 331.5 308 331.5H320C320.828 331.5 321.5 330.828 321.5 330V318C321.5 317.172 320.828 316.5 320 316.5Z" fill="#845D1A" fill-opacity="0.7" stroke="#F5B944"/>
<path d="M339 316.5H327C326.172 316.5 325.5 317.172 325.5 318V330C325.5 330.828 326.172 331.5 327 331.5H339C339.828 331.5 340.5 330.828 340.5 330V318C340.5 317.172 339.828 316.5 339 316.5Z" fill="#845D1A" fill-opacity="0.7" stroke="#F5B944"/>
<path d="M358 316.5H346C345.172 316.5 344.5 317.172 344.5 318V330C344.5 330.828 345.172 331.5 346 331.5H358C358.828 331.5 359.5 330.828 359.5 330V318C359.5 317.172 358.828 316.5 358 316.5Z" fill="#845D1A" fill-opacity="0.7" stroke="#F5B944"/>
<path d="M244 335.5H232C231.172 335.5 230.5 336.172 230.5 337V349C230.5 349.828 231.172 350.5 232 350.5H244C244.828 350.5 245.5 349.828 245.5 349V337C245.5 336.172 244.828 335.5 244 335.5Z" fill="#845D1A" fill-opacity="0.7" stroke="#F5B944"/>
<path d="M263 335.5H251C250.172 335.5 249.5 336.172 249.5 337V349C249.5 349.828 250.172 350.5 251 350.5H263C263.828 350.5 264.5 349.828 264.5 349V337C264.5 336.172 263.828 335.5 263 335.5Z" fill="#3D3019" fill-opacity="0.8" stroke="#F5B944"/>
<path d="M282 335.5H270C269.172 335.5 268.5 336.172 268.5 337V349C268.5 349.828 269.172 350.5 270 350.5H282C282.828 350.5 283.5 349.828 283.5 349V337C283.5 336.172 282.828 335.5 282 335.5Z" fill="#845D1A" fill-opacity="0.7" stroke="#F5B944"/>
<path d="M301 335.5H289C288.172 335.5 287.5 336.172 287.5 337V349C287.5 349.828 288.172 350.5 289 350.5H301C301.828 350.5 302.5 349.828 302.5 349V337C302.5 336.172 301.828 335.5 301 335.5Z" fill="#845D1A" fill-opacity="0.7" stroke="#F5B944"/>
<path d="M320 335.5H308C307.172 335.5 306.5 336.172 306.5 337V349C306.5 349.828 307.172 350.5 308 350.5H320C320.828 350.5 321.5 349.828 321.5 349V337C321.5 336.172 320.828 335.5 320 335.5Z" fill="#3D3019" fill-opacity="0.8" stroke="#F5B944"/>
<path d="M339 335.5H327C326.172 335.5 325.5 336.172 325.5 337V349C325.5 349.828 326.172 350.5 327 350.5H339C339.828 350.5 340.5 349.828 340.5 349V337C340.5 336.172 339.828 335.5 339 335.5Z" fill="#3D3019" fill-opacity="0.8" stroke="#F5B944"/>
<path d="M358 335.5H346C345.172 335.5 344.5 336.172 344.5 337V349C344.5 349.828 345.172 350.5 346 350.5H358C358.828 350.5 359.5 349.828 359.5 349V337C359.5 336.172 358.828 335.5 358 335.5Z" fill="#845D1A" fill-opacity="0.7" stroke="#F5B944"/>
<path d="M244 354.5H232C231.172 354.5 230.5 355.172 230.5 356V368C230.5 368.828 231.172 369.5 232 369.5H244C244.828 369.5 245.5 368.828 245.5 368V356C245.5 355.172 244.828 354.5 244 354.5Z" fill="#845D1A" fill-opacity="0.7" stroke="#F5B944"/>
<path d="M263 354.5H251C250.172 354.5 249.5 355.172 249.5 356V368C249.5 368.828 250.172 369.5 251 369.5H263C263.828 369.5 264.5 368.828 264.5 368V356C264.5 355.172 263.828 354.5 263 354.5Z" fill="#3D3019" fill-opacity="0.8" stroke="#F5B944"/>
<path d="M282 354.5H270C269.172 354.5 268.5 355.172 268.5 356V368C268.5 368.828 269.172 369.5 270 369.5H282C282.828 369.5 283.5 368.828 283.5 368V356C283.5 355.172 282.828 354.5 282 354.5Z" fill="#3D3019" fill-opacity="0.8" stroke="#F5B944"/>
<path d="M301 354.5H289C288.172 354.5 287.5 355.172 287.5 356V368C287.5 368.828 288.172 369.5 289 369.5H301C301.828 369.5 302.5 368.828 302.5 368V356C302.5 355.172 301.828 354.5 301 354.5Z" fill="#845D1A" fill-opacity="0.7" stroke="#F5B944"/>
<path d="M320 354.5H308C307.172 354.5 306.5 355.172 306.5 356V368C306.5 368.828 307.172 369.5 308 369.5H320C320.828 369.5 321.5 368.828 321.5 368V356C321.5 355.172 320.828 354.5 320 354.5Z" fill="#845D1A" fill-opacity="0.7" stroke="#F5B944"/>
<path d="M339 354.5H327C326.172 354.5 325.5 355.172 325.5 356V368C325.5 368.828 326.172 369.5 327 369.5H339C339.828 369.5 340.5 368.828 340.5 368V356C340.5 355.172 339.828 354.5 339 354.5Z" fill="#845D1A" fill-opacity="0.7" stroke="#F5B944"/>
</svg>
