<svg width="250" height="250" viewBox="0 0 250 250" fill="none" xmlns="http://www.w3.org/2000/svg">
<path d="M23.136 29H21.96V36H23.15V33.396C23.15 31.114 24.494 29.938 26.174 29.938C26.678 29.938 27.196 30.008 27.476 30.078V28.972C27.182 28.888 26.72 28.832 26.216 28.832C24.76 28.832 23.612 29.714 23.136 30.82V29ZM35.9616 32.276C35.9616 30.372 35.1356 28.832 32.9936 28.832C31.0336 28.832 29.8016 30.218 29.8016 32.36C29.8016 34.656 30.8796 36.168 33.0776 36.168C34.3936 36.168 35.3456 35.566 35.9336 34.404L34.9256 33.872C34.5756 34.544 34.0016 35.118 33.0776 35.118C31.7756 35.118 31.0196 34.124 31.0196 32.808H35.9336C35.9476 32.626 35.9616 32.444 35.9616 32.276ZM31.0196 31.828C31.0196 30.806 31.6636 29.756 32.9376 29.756C34.1976 29.756 34.7576 30.708 34.7296 31.828H31.0196ZM41.8573 36.168C43.5653 36.168 44.5313 35.286 44.5313 34.026C44.5313 33.004 43.9713 32.36 42.7113 32.122L41.3533 31.87C40.6673 31.744 40.2753 31.464 40.2753 30.876C40.2753 30.19 40.8213 29.798 41.7173 29.798C42.6693 29.798 43.2153 30.288 43.3693 30.988L44.5453 30.722C44.4053 29.546 43.3413 28.832 41.7733 28.832C40.1213 28.832 39.1133 29.728 39.1133 30.932C39.1133 31.996 39.7853 32.668 40.9753 32.892L42.3473 33.144C42.9773 33.256 43.3553 33.508 43.3553 34.124C43.3553 34.726 42.8373 35.188 41.8993 35.188C40.8773 35.188 40.2193 34.684 40.0513 33.802L38.8473 34.012C39.0853 35.398 40.2053 36.168 41.8573 36.168ZM50.3849 36.168C52.3449 36.168 53.6469 34.726 53.6469 32.5C53.6469 30.274 52.3449 28.832 50.3849 28.832C48.4249 28.832 47.1229 30.274 47.1229 32.5C47.1229 34.698 48.4249 36.168 50.3849 36.168ZM50.3849 35.132C49.1249 35.132 48.3829 34.152 48.3829 32.5C48.3829 30.848 49.1249 29.868 50.3849 29.868C51.6449 29.868 52.3869 30.862 52.3869 32.5C52.3869 34.152 51.6449 35.132 50.3849 35.132ZM60.7046 36H61.8246V29H60.6346V32.654C60.6346 33.676 60.2846 35.146 58.8146 35.146C58.0866 35.146 57.3586 34.81 57.3586 33.284V29H56.1406V33.326C56.1406 34.46 56.3366 35.118 56.7846 35.552C57.2746 36.014 57.9326 36.168 58.5766 36.168C59.6126 36.168 60.4386 35.37 60.7046 34.67V36ZM66.5442 29H65.3682V36H66.5582V33.396C66.5582 31.114 67.9022 29.938 69.5822 29.938C70.0862 29.938 70.6042 30.008 70.8842 30.078V28.972C70.5902 28.888 70.1282 28.832 69.6242 28.832C68.1682 28.832 67.0202 29.714 66.5442 30.82V29ZM76.4298 36.168C78.1658 36.168 79.0758 35.048 79.2998 33.62L78.1658 33.438C77.9978 34.502 77.4518 35.118 76.4298 35.118C75.0998 35.118 74.4418 34.04 74.4418 32.444C74.4418 30.904 75.0998 29.868 76.3878 29.868C77.3818 29.868 77.9698 30.442 78.0958 31.478L79.3138 31.338C79.1458 29.728 78.0258 28.832 76.4718 28.832C74.2738 28.832 73.2098 30.372 73.2098 32.458C73.2098 34.558 74.3018 36.168 76.4298 36.168ZM88.0515 32.276C88.0515 30.372 87.2255 28.832 85.0835 28.832C83.1235 28.832 81.8915 30.218 81.8915 32.36C81.8915 34.656 82.9695 36.168 85.1675 36.168C86.4835 36.168 87.4355 35.566 88.0235 34.404L87.0155 33.872C86.6655 34.544 86.0915 35.118 85.1675 35.118C83.8655 35.118 83.1095 34.124 83.1095 32.808H88.0235C88.0375 32.626 88.0515 32.444 88.0515 32.276ZM83.1095 31.828C83.1095 30.806 83.7535 29.756 85.0275 29.756C86.2875 29.756 86.8475 30.708 86.8195 31.828H83.1095ZM191.713 56.596V55.616H190.621C189.711 55.616 189.179 55.07 189.179 54.216V52.662C189.179 51.738 189.067 50.828 188.283 50.478C189.067 50.184 189.193 49.344 189.193 48.392V46.782C189.193 45.928 189.697 45.382 190.607 45.382H191.713V44.402H190.607C189.053 44.402 188.101 45.242 188.101 46.488V48.532C188.101 49.414 188.059 49.946 186.995 49.946V51.038C188.045 51.038 188.115 51.682 188.115 52.508V54.51C188.115 55.756 189.067 56.596 190.621 56.596H191.713Z" fill="#9C9FA0"/>
<path d="M59.0666 74.168C61.0266 74.168 62.3286 72.726 62.3286 70.5C62.3286 68.274 61.0266 66.832 59.0666 66.832C57.1066 66.832 55.8046 68.274 55.8046 70.5C55.8046 72.698 57.1066 74.168 59.0666 74.168ZM59.0666 73.132C57.8066 73.132 57.0646 72.152 57.0646 70.5C57.0646 68.848 57.8066 67.868 59.0666 67.868C60.3266 67.868 61.0686 68.862 61.0686 70.5C61.0686 72.152 60.3266 73.132 59.0666 73.132ZM66.5442 67H65.3682V74H66.5582V71.396C66.5582 69.114 67.9022 67.938 69.5822 67.938C70.0862 67.938 70.6042 68.008 70.8842 68.078V66.972C70.5902 66.888 70.1282 66.832 69.6242 66.832C68.1682 66.832 67.0202 67.714 66.5442 68.82V67ZM79.4118 66.888C79.5938 66.888 79.7198 66.916 79.9298 66.944V65.908C79.8038 65.866 79.6358 65.852 79.4818 65.852C78.6138 65.852 78.0398 66.314 77.7878 67.14C77.4098 66.944 76.9618 66.832 76.4438 66.832C74.8898 66.832 73.8398 67.826 73.8398 69.254C73.8398 69.954 74.0918 70.542 74.5398 70.948C73.8958 71.186 73.5318 71.662 73.5318 72.306C73.5318 72.894 73.8398 73.314 74.4138 73.552C73.6718 73.804 73.1958 74.364 73.1958 75.12C73.1958 76.212 74.3858 76.898 76.3738 76.898C78.5578 76.898 79.8318 76.072 79.8318 74.602C79.8318 73.412 79.0058 72.698 77.5498 72.698H75.7438C74.9458 72.698 74.5818 72.432 74.5818 71.998C74.5818 71.676 74.7778 71.438 75.0718 71.298C75.4358 71.48 75.8838 71.578 76.3738 71.578C77.9418 71.578 79.0058 70.612 79.0058 69.184C79.0058 68.526 78.7818 67.966 78.3758 67.56C78.5718 67.098 78.8938 66.888 79.4118 66.888ZM76.3878 70.668C75.5478 70.668 74.9598 70.08 74.9598 69.226C74.9598 68.358 75.5618 67.742 76.4298 67.742C77.2838 67.742 77.8858 68.344 77.8858 69.184C77.8858 70.038 77.2558 70.668 76.3878 70.668ZM77.2838 73.748C78.1938 73.748 78.6418 74.098 78.6418 74.728C78.6418 75.498 77.9978 75.918 76.4998 75.918C75.0578 75.918 74.3718 75.526 74.3718 74.784C74.3718 74.308 74.6518 73.93 75.1138 73.72C75.2958 73.734 75.4918 73.748 75.7018 73.748H77.2838ZM87.7575 69.744C87.7575 67.728 86.9455 66.832 85.1395 66.832C83.3615 66.832 82.2695 67.7 82.1435 69.198H83.4175C83.4735 68.316 84.0615 67.812 85.0555 67.812C86.0915 67.812 86.5535 68.358 86.5535 69.604V69.73L85.2795 69.884C84.1175 70.024 83.3615 70.206 82.8995 70.458C82.2555 70.822 81.9195 71.382 81.9195 72.11C81.9195 73.314 82.8855 74.168 84.2715 74.168C85.4195 74.168 86.1755 73.706 86.6375 72.726C86.6515 73.146 86.6935 73.608 86.7495 74H87.9955C87.8275 73.482 87.7575 72.754 87.7575 71.634V69.744ZM86.5675 70.948C86.5675 72.32 85.7555 73.188 84.4955 73.188C83.6695 73.188 83.1795 72.754 83.1795 72.04C83.1795 71.34 83.6835 70.99 84.9015 70.822L86.5675 70.598V70.948ZM92.0151 67H90.8951V74H92.0851V70.346C92.0851 69.352 92.4631 67.882 94.0451 67.882C94.7451 67.882 95.5011 68.218 95.5011 69.744V74H96.6911V69.674C96.6911 68.54 96.4811 67.868 96.0191 67.434C95.5431 66.986 94.8991 66.832 94.3251 66.832C93.1491 66.832 92.3791 67.504 92.0151 68.386V67ZM103.441 65.6V63.92H101.761V65.6H103.441ZM105.681 74V73.02H103.315V67H100.095V67.98H102.125V73.02H99.8848V74H105.681ZM108.244 74H113.984V72.978H109.714L113.774 67.882V67H108.384V68.008H112.346L108.244 73.09V74ZM122.484 69.744C122.484 67.728 121.672 66.832 119.866 66.832C118.088 66.832 116.996 67.7 116.87 69.198H118.144C118.2 68.316 118.788 67.812 119.782 67.812C120.818 67.812 121.28 68.358 121.28 69.604V69.73L120.006 69.884C118.844 70.024 118.088 70.206 117.626 70.458C116.982 70.822 116.646 71.382 116.646 72.11C116.646 73.314 117.612 74.168 118.998 74.168C120.146 74.168 120.902 73.706 121.364 72.726C121.378 73.146 121.42 73.608 121.476 74H122.722C122.554 73.482 122.484 72.754 122.484 71.634V69.744ZM121.294 70.948C121.294 72.32 120.482 73.188 119.222 73.188C118.396 73.188 117.906 72.754 117.906 72.04C117.906 71.34 118.41 70.99 119.628 70.822L121.294 70.598V70.948ZM127.414 67.98V71.76C127.414 73.286 128.212 74.126 129.962 74.126C130.578 74.126 130.97 74.042 131.334 73.944V72.852C130.9 72.936 130.41 72.978 129.948 72.978C129.052 72.978 128.604 72.446 128.604 71.452V67.98H131.334V67H128.604V64.662L127.414 65.166V67H125.412V67.98H127.414ZM138.167 65.6V63.92H136.487V65.6H138.167ZM140.407 74V73.02H138.041V67H134.821V67.98H136.851V73.02H134.611V74H140.407ZM145.883 74.168C147.843 74.168 149.145 72.726 149.145 70.5C149.145 68.274 147.843 66.832 145.883 66.832C143.923 66.832 142.621 68.274 142.621 70.5C142.621 72.698 143.923 74.168 145.883 74.168ZM145.883 73.132C144.623 73.132 143.881 72.152 143.881 70.5C143.881 68.848 144.623 67.868 145.883 67.868C147.143 67.868 147.885 68.862 147.885 70.5C147.885 72.152 147.143 73.132 145.883 73.132ZM152.787 67H151.667V74H152.857V70.346C152.857 69.352 153.235 67.882 154.817 67.882C155.517 67.882 156.273 68.218 156.273 69.744V74H157.463V69.674C157.463 68.54 157.253 67.868 156.791 67.434C156.315 66.986 155.671 66.832 155.097 66.832C153.921 66.832 153.151 67.504 152.787 68.386V67ZM158.906 76.632H167.586V75.652H158.906V76.632ZM170.15 67H169.03V74H170.22V70.346C170.22 69.352 170.598 67.882 172.18 67.882C172.88 67.882 173.636 68.218 173.636 69.744V74H174.826V69.674C174.826 68.54 174.616 67.868 174.154 67.434C173.678 66.986 173.034 66.832 172.46 66.832C171.284 66.832 170.514 67.504 170.15 68.386V67ZM183.256 69.744C183.256 67.728 182.444 66.832 180.638 66.832C178.86 66.832 177.768 67.7 177.642 69.198H178.916C178.972 68.316 179.56 67.812 180.554 67.812C181.59 67.812 182.052 68.358 182.052 69.604V69.73L180.778 69.884C179.616 70.024 178.86 70.206 178.398 70.458C177.754 70.822 177.418 71.382 177.418 72.11C177.418 73.314 178.384 74.168 179.77 74.168C180.918 74.168 181.674 73.706 182.136 72.726C182.15 73.146 182.192 73.608 182.248 74H183.494C183.326 73.482 183.256 72.754 183.256 71.634V69.744ZM182.066 70.948C182.066 72.32 181.254 73.188 179.994 73.188C179.168 73.188 178.678 72.754 178.678 72.04C178.678 71.34 179.182 70.99 180.4 70.822L182.066 70.598V70.948ZM186.701 67H185.581V74H186.771V69.366C186.771 68.526 187.051 67.882 187.863 67.882C188.311 67.882 188.689 68.162 188.689 69.016V74H189.851V69.366C189.851 68.484 190.145 67.882 190.971 67.882C191.377 67.882 191.797 68.12 191.797 69.016V74H192.987V68.918C192.987 67.434 192.203 66.832 191.335 66.832C190.649 66.832 190.019 67.294 189.683 68.106C189.445 67.294 188.913 66.832 188.227 66.832C187.527 66.832 186.981 67.322 186.701 68.078V67ZM200.913 70.276C200.913 68.372 200.087 66.832 197.945 66.832C195.985 66.832 194.753 68.218 194.753 70.36C194.753 72.656 195.831 74.168 198.029 74.168C199.345 74.168 200.297 73.566 200.885 72.404L199.877 71.872C199.527 72.544 198.953 73.118 198.029 73.118C196.727 73.118 195.971 72.124 195.971 70.808H200.885C200.899 70.626 200.913 70.444 200.913 70.276ZM195.971 69.828C195.971 68.806 196.615 67.756 197.889 67.756C199.149 67.756 199.709 68.708 199.681 69.828H195.971ZM218.626 68.624V67.504H212.046V68.624H218.626ZM218.626 71.284V70.164H212.046V71.284H218.626ZM56.2946 86V95.73H57.4846V91.894C57.8066 92.636 58.6746 93.168 59.5426 93.168C61.4046 93.168 62.5246 91.67 62.5246 89.486C62.5246 87.358 61.4466 85.832 59.6126 85.832C58.6186 85.832 57.7786 86.532 57.4146 87.302V86H56.2946ZM57.4566 89.318C57.4566 87.82 58.2126 86.882 59.3886 86.882C60.6206 86.882 61.2646 87.932 61.2646 89.486C61.2646 91.082 60.5646 92.118 59.3466 92.118C58.1706 92.118 57.4566 91.138 57.4566 89.654V89.318ZM66.5442 86H65.3682V93H66.5582V90.396C66.5582 88.114 67.9022 86.938 69.5822 86.938C70.0862 86.938 70.6042 87.008 70.8842 87.078V85.972C70.5902 85.888 70.1282 85.832 69.6242 85.832C68.1682 85.832 67.0202 86.714 66.5442 87.82V86ZM76.4298 93.168C78.3898 93.168 79.6918 91.726 79.6918 89.5C79.6918 87.274 78.3898 85.832 76.4298 85.832C74.4698 85.832 73.1678 87.274 73.1678 89.5C73.1678 91.698 74.4698 93.168 76.4298 93.168ZM76.4298 92.132C75.1698 92.132 74.4278 91.152 74.4278 89.5C74.4278 87.848 75.1698 86.868 76.4298 86.868C77.6898 86.868 78.4318 87.862 78.4318 89.5C78.4318 91.152 77.6898 92.132 76.4298 92.132ZM86.8055 84.6V82.92H85.1255V84.6H86.8055ZM84.0755 95.828C86.0775 95.828 86.6935 94.61 86.6935 93.028V86H82.8435V86.98H85.5035V92.958C85.5035 94.344 85.0135 94.736 83.9215 94.736C83.3615 94.736 82.9975 94.694 82.3115 94.54V95.576C82.8435 95.744 83.4035 95.828 84.0755 95.828ZM96.7331 89.276C96.7331 87.372 95.9071 85.832 93.7651 85.832C91.8051 85.832 90.5731 87.218 90.5731 89.36C90.5731 91.656 91.6511 93.168 93.8491 93.168C95.1651 93.168 96.1171 92.566 96.7051 91.404L95.6971 90.872C95.3471 91.544 94.7731 92.118 93.8491 92.118C92.5471 92.118 91.7911 91.124 91.7911 89.808H96.7051C96.7191 89.626 96.7331 89.444 96.7331 89.276ZM91.7911 88.828C91.7911 87.806 92.4351 86.756 93.7091 86.756C94.9691 86.756 95.5291 87.708 95.5011 88.828H91.7911ZM102.475 93.168C104.211 93.168 105.121 92.048 105.345 90.62L104.211 90.438C104.043 91.502 103.497 92.118 102.475 92.118C101.145 92.118 100.487 91.04 100.487 89.444C100.487 87.904 101.145 86.868 102.433 86.868C103.427 86.868 104.015 87.442 104.141 88.478L105.359 88.338C105.191 86.728 104.071 85.832 102.517 85.832C100.319 85.832 99.2548 87.372 99.2548 89.458C99.2548 91.558 100.347 93.168 102.475 93.168ZM110.05 86.98V90.76C110.05 92.286 110.848 93.126 112.598 93.126C113.214 93.126 113.606 93.042 113.97 92.944V91.852C113.536 91.936 113.046 91.978 112.584 91.978C111.688 91.978 111.24 91.446 111.24 90.452V86.98H113.97V86H111.24V83.662L110.05 84.166V86H108.048V86.98H110.05ZM115.498 95.632H124.178V94.652H115.498V95.632ZM126.742 86H125.622V93H126.812V89.346C126.812 88.352 127.19 86.882 128.772 86.882C129.472 86.882 130.228 87.218 130.228 88.744V93H131.418V88.674C131.418 87.54 131.208 86.868 130.746 86.434C130.27 85.986 129.626 85.832 129.052 85.832C127.876 85.832 127.106 86.504 126.742 87.386V86ZM139.847 88.744C139.847 86.728 139.035 85.832 137.229 85.832C135.451 85.832 134.359 86.7 134.233 88.198H135.507C135.563 87.316 136.151 86.812 137.145 86.812C138.181 86.812 138.643 87.358 138.643 88.604V88.73L137.369 88.884C136.207 89.024 135.451 89.206 134.989 89.458C134.345 89.822 134.009 90.382 134.009 91.11C134.009 92.314 134.975 93.168 136.361 93.168C137.509 93.168 138.265 92.706 138.727 91.726C138.741 92.146 138.783 92.608 138.839 93H140.085C139.917 92.482 139.847 91.754 139.847 90.634V88.744ZM138.657 89.948C138.657 91.32 137.845 92.188 136.585 92.188C135.759 92.188 135.269 91.754 135.269 91.04C135.269 90.34 135.773 89.99 136.991 89.822L138.657 89.598V89.948ZM143.293 86H142.173V93H143.363V88.366C143.363 87.526 143.643 86.882 144.455 86.882C144.903 86.882 145.281 87.162 145.281 88.016V93H146.443V88.366C146.443 87.484 146.737 86.882 147.563 86.882C147.969 86.882 148.389 87.12 148.389 88.016V93H149.579V87.918C149.579 86.434 148.795 85.832 147.927 85.832C147.241 85.832 146.611 86.294 146.275 87.106C146.037 86.294 145.505 85.832 144.819 85.832C144.119 85.832 143.573 86.322 143.293 87.078V86ZM157.505 89.276C157.505 87.372 156.679 85.832 154.537 85.832C152.577 85.832 151.345 87.218 151.345 89.36C151.345 91.656 152.423 93.168 154.621 93.168C155.937 93.168 156.889 92.566 157.477 91.404L156.469 90.872C156.119 91.544 155.545 92.118 154.621 92.118C153.319 92.118 152.563 91.124 152.563 89.808H157.477C157.491 89.626 157.505 89.444 157.505 89.276ZM152.563 88.828C152.563 87.806 153.207 86.756 154.481 86.756C155.741 86.756 156.301 87.708 156.273 88.828H152.563ZM218.626 87.624V86.504H212.046V87.624H218.626ZM218.626 90.284V89.164H212.046V90.284H218.626ZM60.5786 106.036C60.2286 105.35 59.5566 104.832 58.6046 104.832C56.7566 104.832 55.5386 106.288 55.5386 108.486C55.5386 110.712 56.6726 112.168 58.4226 112.168C59.5706 112.168 60.2286 111.608 60.6486 110.698V112H61.7686V101.85H60.5786V106.036ZM60.6066 108.654C60.6066 110.166 59.8646 111.118 58.6746 111.118C57.5126 111.118 56.7986 110.11 56.7986 108.486C56.7986 106.848 57.5126 105.882 58.7166 105.882C59.8786 105.882 60.6066 106.834 60.6066 108.332V108.654ZM70.6882 108.276C70.6882 106.372 69.8622 104.832 67.7202 104.832C65.7602 104.832 64.5282 106.218 64.5282 108.36C64.5282 110.656 65.6062 112.168 67.8042 112.168C69.1202 112.168 70.0722 111.566 70.6602 110.404L69.6522 109.872C69.3022 110.544 68.7282 111.118 67.8042 111.118C66.5022 111.118 65.7462 110.124 65.7462 108.808H70.6602C70.6742 108.626 70.6882 108.444 70.6882 108.276ZM65.7462 107.828C65.7462 106.806 66.3902 105.756 67.6642 105.756C68.9242 105.756 69.4842 106.708 69.4562 107.828H65.7462ZM76.5838 112.168C78.2918 112.168 79.2578 111.286 79.2578 110.026C79.2578 109.004 78.6978 108.36 77.4378 108.122L76.0798 107.87C75.3938 107.744 75.0018 107.464 75.0018 106.876C75.0018 106.19 75.5478 105.798 76.4438 105.798C77.3958 105.798 77.9418 106.288 78.0958 106.988L79.2718 106.722C79.1318 105.546 78.0678 104.832 76.4998 104.832C74.8478 104.832 73.8398 105.728 73.8398 106.932C73.8398 107.996 74.5118 108.668 75.7018 108.892L77.0738 109.144C77.7038 109.256 78.0818 109.508 78.0818 110.124C78.0818 110.726 77.5638 111.188 76.6258 111.188C75.6038 111.188 74.9458 110.684 74.7778 109.802L73.5738 110.012C73.8118 111.398 74.9318 112.168 76.5838 112.168ZM85.1115 112.168C86.8475 112.168 87.7575 111.048 87.9815 109.62L86.8475 109.438C86.6795 110.502 86.1335 111.118 85.1115 111.118C83.7815 111.118 83.1235 110.04 83.1235 108.444C83.1235 106.904 83.7815 105.868 85.0695 105.868C86.0635 105.868 86.6515 106.442 86.7775 107.478L87.9955 107.338C87.8275 105.728 86.7075 104.832 85.1535 104.832C82.9555 104.832 81.8915 106.372 81.8915 108.458C81.8915 110.558 82.9835 112.168 85.1115 112.168ZM92.5891 105H91.4131V112H92.6031V109.396C92.6031 107.114 93.9471 105.938 95.6271 105.938C96.1311 105.938 96.6491 106.008 96.9291 106.078V104.972C96.6351 104.888 96.1731 104.832 95.6691 104.832C94.2131 104.832 93.0651 105.714 92.5891 106.82V105ZM103.441 103.6V101.92H101.761V103.6H103.441ZM105.681 112V111.02H103.315V105H100.095V105.98H102.125V111.02H99.8848V112H105.681ZM108.384 105V114.73H109.574V110.894C109.896 111.636 110.764 112.168 111.632 112.168C113.494 112.168 114.614 110.67 114.614 108.486C114.614 106.358 113.536 104.832 111.702 104.832C110.708 104.832 109.868 105.532 109.504 106.302V105H108.384ZM109.546 108.318C109.546 106.82 110.302 105.882 111.478 105.882C112.71 105.882 113.354 106.932 113.354 108.486C113.354 110.082 112.654 111.118 111.436 111.118C110.26 111.118 109.546 110.138 109.546 108.654V108.318ZM118.732 105.98V109.76C118.732 111.286 119.53 112.126 121.28 112.126C121.896 112.126 122.288 112.042 122.652 111.944V110.852C122.218 110.936 121.728 110.978 121.266 110.978C120.37 110.978 119.922 110.446 119.922 109.452V105.98H122.652V105H119.922V102.662L118.732 103.166V105H116.73V105.98H118.732ZM129.486 103.6V101.92H127.806V103.6H129.486ZM131.726 112V111.02H129.36V105H126.14V105.98H128.17V111.02H125.93V112H131.726ZM137.201 112.168C139.161 112.168 140.463 110.726 140.463 108.5C140.463 106.274 139.161 104.832 137.201 104.832C135.241 104.832 133.939 106.274 133.939 108.5C133.939 110.698 135.241 112.168 137.201 112.168ZM137.201 111.132C135.941 111.132 135.199 110.152 135.199 108.5C135.199 106.848 135.941 105.868 137.201 105.868C138.461 105.868 139.203 106.862 139.203 108.5C139.203 110.152 138.461 111.132 137.201 111.132ZM144.105 105H142.985V112H144.175V108.346C144.175 107.352 144.553 105.882 146.135 105.882C146.835 105.882 147.591 106.218 147.591 107.744V112H148.781V107.674C148.781 106.54 148.571 105.868 148.109 105.434C147.633 104.986 146.989 104.832 146.415 104.832C145.239 104.832 144.469 105.504 144.105 106.386V105ZM218.626 106.624V105.504H212.046V106.624H218.626ZM218.626 109.284V108.164H212.046V109.284H218.626ZM57.2886 124H56.1686V131H57.3586V127.346C57.3586 126.352 57.7366 124.882 59.3186 124.882C60.0186 124.882 60.7746 125.218 60.7746 126.744V131H61.9646V126.674C61.9646 125.54 61.7546 124.868 61.2926 124.434C60.8166 123.986 60.1726 123.832 59.5986 123.832C58.4226 123.832 57.6526 124.504 57.2886 125.386V124ZM70.3942 126.744C70.3942 124.728 69.5822 123.832 67.7762 123.832C65.9982 123.832 64.9062 124.7 64.7802 126.198H66.0542C66.1102 125.316 66.6982 124.812 67.6922 124.812C68.7282 124.812 69.1902 125.358 69.1902 126.604V126.73L67.9162 126.884C66.7542 127.024 65.9982 127.206 65.5362 127.458C64.8922 127.822 64.5562 128.382 64.5562 129.11C64.5562 130.314 65.5222 131.168 66.9082 131.168C68.0562 131.168 68.8122 130.706 69.2742 129.726C69.2882 130.146 69.3302 130.608 69.3862 131H70.6322C70.4642 130.482 70.3942 129.754 70.3942 128.634V126.744ZM69.2042 127.948C69.2042 129.32 68.3922 130.188 67.1322 130.188C66.3062 130.188 65.8162 129.754 65.8162 129.04C65.8162 128.34 66.3202 127.99 67.5382 127.822L69.2042 127.598V127.948ZM73.8398 124H72.7198V131H73.9098V126.366C73.9098 125.526 74.1898 124.882 75.0018 124.882C75.4498 124.882 75.8278 125.162 75.8278 126.016V131H76.9898V126.366C76.9898 125.484 77.2838 124.882 78.1098 124.882C78.5158 124.882 78.9358 125.12 78.9358 126.016V131H80.1258V125.918C80.1258 124.434 79.3418 123.832 78.4738 123.832C77.7878 123.832 77.1578 124.294 76.8218 125.106C76.5838 124.294 76.0518 123.832 75.3658 123.832C74.6658 123.832 74.1198 124.322 73.8398 125.078V124ZM88.0515 127.276C88.0515 125.372 87.2255 123.832 85.0835 123.832C83.1235 123.832 81.8915 125.218 81.8915 127.36C81.8915 129.656 82.9695 131.168 85.1675 131.168C86.4835 131.168 87.4355 130.566 88.0235 129.404L87.0155 128.872C86.6655 129.544 86.0915 130.118 85.1675 130.118C83.8655 130.118 83.1095 129.124 83.1095 127.808H88.0235C88.0375 127.626 88.0515 127.444 88.0515 127.276ZM83.1095 126.828C83.1095 125.806 83.7535 124.756 85.0275 124.756C86.2875 124.756 86.8475 125.708 86.8195 126.828H83.1095ZM218.626 125.624V124.504H212.046V125.624H218.626ZM218.626 128.284V127.164H212.046V128.284H218.626ZM57.3586 139.85H56.1686V150H57.3586V146.346C57.3586 145.352 57.7366 143.882 59.2626 143.882C60.0046 143.882 60.7746 144.218 60.7746 145.744V150H61.9646V145.674C61.9646 144.54 61.7266 143.882 61.2786 143.448C60.7886 142.986 60.1166 142.832 59.5566 142.832C58.5486 142.832 57.6806 143.434 57.3586 144.274V139.85ZM67.7482 150.168C69.7082 150.168 71.0102 148.726 71.0102 146.5C71.0102 144.274 69.7082 142.832 67.7482 142.832C65.7882 142.832 64.4862 144.274 64.4862 146.5C64.4862 148.698 65.7882 150.168 67.7482 150.168ZM67.7482 149.132C66.4882 149.132 65.7462 148.152 65.7462 146.5C65.7462 144.848 66.4882 143.868 67.7482 143.868C69.0082 143.868 69.7502 144.862 69.7502 146.5C69.7502 148.152 69.0082 149.132 67.7482 149.132ZM76.5838 150.168C78.2918 150.168 79.2578 149.286 79.2578 148.026C79.2578 147.004 78.6978 146.36 77.4378 146.122L76.0798 145.87C75.3938 145.744 75.0018 145.464 75.0018 144.876C75.0018 144.19 75.5478 143.798 76.4438 143.798C77.3958 143.798 77.9418 144.288 78.0958 144.988L79.2718 144.722C79.1318 143.546 78.0678 142.832 76.4998 142.832C74.8478 142.832 73.8398 143.728 73.8398 144.932C73.8398 145.996 74.5118 146.668 75.7018 146.892L77.0738 147.144C77.7038 147.256 78.0818 147.508 78.0818 148.124C78.0818 148.726 77.5638 149.188 76.6258 149.188C75.6038 149.188 74.9458 148.684 74.7778 147.802L73.5738 148.012C73.8118 149.398 74.9318 150.168 76.5838 150.168ZM84.0055 143.98V147.76C84.0055 149.286 84.8035 150.126 86.5535 150.126C87.1695 150.126 87.5615 150.042 87.9255 149.944V148.852C87.4915 148.936 87.0015 148.978 86.5395 148.978C85.6435 148.978 85.1955 148.446 85.1955 147.452V143.98H87.9255V143H85.1955V140.662L84.0055 141.166V143H82.0035V143.98H84.0055ZM89.4531 152.632H98.1331V151.652H89.4531V152.632ZM100.697 143H99.5768V150H100.767V146.346C100.767 145.352 101.145 143.882 102.727 143.882C103.427 143.882 104.183 144.218 104.183 145.744V150H105.373V145.674C105.373 144.54 105.163 143.868 104.701 143.434C104.225 142.986 103.581 142.832 103.007 142.832C101.831 142.832 101.061 143.504 100.697 144.386V143ZM113.802 145.744C113.802 143.728 112.99 142.832 111.184 142.832C109.406 142.832 108.314 143.7 108.188 145.198H109.462C109.518 144.316 110.106 143.812 111.1 143.812C112.136 143.812 112.598 144.358 112.598 145.604V145.73L111.324 145.884C110.162 146.024 109.406 146.206 108.944 146.458C108.3 146.822 107.964 147.382 107.964 148.11C107.964 149.314 108.93 150.168 110.316 150.168C111.464 150.168 112.22 149.706 112.682 148.726C112.696 149.146 112.738 149.608 112.794 150H114.04C113.872 149.482 113.802 148.754 113.802 147.634V145.744ZM112.612 146.948C112.612 148.32 111.8 149.188 110.54 149.188C109.714 149.188 109.224 148.754 109.224 148.04C109.224 147.34 109.728 146.99 110.946 146.822L112.612 146.598V146.948ZM117.248 143H116.128V150H117.318V145.366C117.318 144.526 117.598 143.882 118.41 143.882C118.858 143.882 119.236 144.162 119.236 145.016V150H120.398V145.366C120.398 144.484 120.692 143.882 121.518 143.882C121.924 143.882 122.344 144.12 122.344 145.016V150H123.534V144.918C123.534 143.434 122.75 142.832 121.882 142.832C121.196 142.832 120.566 143.294 120.23 144.106C119.992 143.294 119.46 142.832 118.774 142.832C118.074 142.832 117.528 143.322 117.248 144.078V143ZM131.46 146.276C131.46 144.372 130.634 142.832 128.492 142.832C126.532 142.832 125.3 144.218 125.3 146.36C125.3 148.656 126.378 150.168 128.576 150.168C129.892 150.168 130.844 149.566 131.432 148.404L130.424 147.872C130.074 148.544 129.5 149.118 128.576 149.118C127.274 149.118 126.518 148.124 126.518 146.808H131.432C131.446 146.626 131.46 146.444 131.46 146.276ZM126.518 145.828C126.518 144.806 127.162 143.756 128.436 143.756C129.696 143.756 130.256 144.708 130.228 145.828H126.518ZM218.626 144.624V143.504H212.046V144.624H218.626ZM218.626 147.284V146.164H212.046V147.284H218.626ZM56.4766 162H55.3566V169H56.5466V164.366C56.5466 163.526 56.8266 162.882 57.6386 162.882C58.0866 162.882 58.4646 163.162 58.4646 164.016V169H59.6266V164.366C59.6266 163.484 59.9206 162.882 60.7466 162.882C61.1526 162.882 61.5726 163.12 61.5726 164.016V169H62.7626V163.918C62.7626 162.434 61.9786 161.832 61.1106 161.832C60.4246 161.832 59.7946 162.294 59.4586 163.106C59.2206 162.294 58.6886 161.832 58.0026 161.832C57.3026 161.832 56.7566 162.322 56.4766 163.078V162ZM70.6882 165.276C70.6882 163.372 69.8622 161.832 67.7202 161.832C65.7602 161.832 64.5282 163.218 64.5282 165.36C64.5282 167.656 65.6062 169.168 67.8042 169.168C69.1202 169.168 70.0722 168.566 70.6602 167.404L69.6522 166.872C69.3022 167.544 68.7282 168.118 67.8042 168.118C66.5022 168.118 65.7462 167.124 65.7462 165.808H70.6602C70.6742 165.626 70.6882 165.444 70.6882 165.276ZM65.7462 164.828C65.7462 163.806 66.3902 162.756 67.6642 162.756C68.9242 162.756 69.4842 163.708 69.4562 164.828H65.7462ZM73.8398 162H72.7198V169H73.9098V164.366C73.9098 163.526 74.1898 162.882 75.0018 162.882C75.4498 162.882 75.8278 163.162 75.8278 164.016V169H76.9898V164.366C76.9898 163.484 77.2838 162.882 78.1098 162.882C78.5158 162.882 78.9358 163.12 78.9358 164.016V169H80.1258V163.918C80.1258 162.434 79.3418 161.832 78.4738 161.832C77.7878 161.832 77.1578 162.294 76.8218 163.106C76.5838 162.294 76.0518 161.832 75.3658 161.832C74.6658 161.832 74.1198 162.322 73.8398 163.078V162ZM85.1115 169.168C87.0715 169.168 88.3735 167.726 88.3735 165.5C88.3735 163.274 87.0715 161.832 85.1115 161.832C83.1515 161.832 81.8495 163.274 81.8495 165.5C81.8495 167.698 83.1515 169.168 85.1115 169.168ZM85.1115 168.132C83.8515 168.132 83.1095 167.152 83.1095 165.5C83.1095 163.848 83.8515 162.868 85.1115 162.868C86.3715 162.868 87.1135 163.862 87.1135 165.5C87.1135 167.152 86.3715 168.132 85.1115 168.132ZM92.5891 162H91.4131V169H92.6031V166.396C92.6031 164.114 93.9471 162.938 95.6271 162.938C96.1311 162.938 96.6491 163.008 96.9291 163.078V161.972C96.6351 161.888 96.1731 161.832 95.6691 161.832C94.2131 161.832 93.0651 162.714 92.5891 163.82V162ZM99.2688 162L101.999 168.916L101.817 169.434C101.495 170.358 101.061 170.75 100.207 170.75C100.053 170.75 99.8848 170.736 99.7028 170.722V171.772C99.9268 171.814 100.137 171.828 100.347 171.828C101.523 171.828 102.363 171.226 103.007 169.448L105.807 162H104.533L102.587 167.614L100.613 162H99.2688ZM218.626 163.624V162.504H212.046V163.624H218.626ZM218.626 166.284V165.164H212.046V166.284H218.626ZM57.2886 181H56.1686V188H57.3586V184.346C57.3586 183.352 57.7366 181.882 59.3186 181.882C60.0186 181.882 60.7746 182.218 60.7746 183.744V188H61.9646V183.674C61.9646 182.54 61.7546 181.868 61.2926 181.434C60.8166 180.986 60.1726 180.832 59.5986 180.832C58.4226 180.832 57.6526 181.504 57.2886 182.386V181ZM67.7482 188.168C69.4842 188.168 70.3942 187.048 70.6182 185.62L69.4842 185.438C69.3162 186.502 68.7702 187.118 67.7482 187.118C66.4182 187.118 65.7602 186.04 65.7602 184.444C65.7602 182.904 66.4182 181.868 67.7062 181.868C68.7002 181.868 69.2882 182.442 69.4142 183.478L70.6322 183.338C70.4642 181.728 69.3442 180.832 67.7902 180.832C65.5922 180.832 64.5282 182.372 64.5282 184.458C64.5282 186.558 65.6202 188.168 67.7482 188.168ZM73.6578 181V190.73H74.8478V186.894C75.1698 187.636 76.0378 188.168 76.9058 188.168C78.7678 188.168 79.8878 186.67 79.8878 184.486C79.8878 182.358 78.8098 180.832 76.9758 180.832C75.9818 180.832 75.1418 181.532 74.7778 182.302V181H73.6578ZM74.8198 184.318C74.8198 182.82 75.5758 181.882 76.7518 181.882C77.9838 181.882 78.6278 182.932 78.6278 184.486C78.6278 186.082 77.9278 187.118 76.7098 187.118C75.5338 187.118 74.8198 186.138 74.8198 184.654V184.318ZM86.7495 188H87.8695V181H86.6795V184.654C86.6795 185.676 86.3295 187.146 84.8595 187.146C84.1315 187.146 83.4035 186.81 83.4035 185.284V181H82.1855V185.326C82.1855 186.46 82.3815 187.118 82.8295 187.552C83.3195 188.014 83.9775 188.168 84.6215 188.168C85.6575 188.168 86.4835 187.37 86.7495 186.67V188ZM93.9471 188.168C95.6551 188.168 96.6211 187.286 96.6211 186.026C96.6211 185.004 96.0611 184.36 94.8011 184.122L93.4431 183.87C92.7571 183.744 92.3651 183.464 92.3651 182.876C92.3651 182.19 92.9111 181.798 93.8071 181.798C94.7591 181.798 95.3051 182.288 95.4591 182.988L96.6351 182.722C96.4951 181.546 95.4311 180.832 93.8631 180.832C92.2111 180.832 91.2031 181.728 91.2031 182.932C91.2031 183.996 91.8751 184.668 93.0651 184.892L94.4371 185.144C95.0671 185.256 95.4451 185.508 95.4451 186.124C95.4451 186.726 94.9271 187.188 93.9891 187.188C92.9671 187.188 92.3091 186.684 92.1411 185.802L90.9371 186.012C91.1751 187.398 92.2951 188.168 93.9471 188.168ZM218.626 182.624V181.504H212.046V182.624H218.626ZM218.626 185.284V184.164H212.046V185.284H218.626ZM61.7126 202.744C61.7126 200.728 60.9006 199.832 59.0946 199.832C57.3166 199.832 56.2246 200.7 56.0986 202.198H57.3726C57.4286 201.316 58.0166 200.812 59.0106 200.812C60.0466 200.812 60.5086 201.358 60.5086 202.604V202.73L59.2346 202.884C58.0726 203.024 57.3166 203.206 56.8546 203.458C56.2106 203.822 55.8746 204.382 55.8746 205.11C55.8746 206.314 56.8406 207.168 58.2266 207.168C59.3746 207.168 60.1306 206.706 60.5926 205.726C60.6066 206.146 60.6486 206.608 60.7046 207H61.9506C61.7826 206.482 61.7126 205.754 61.7126 204.634V202.744ZM60.5226 203.948C60.5226 205.32 59.7106 206.188 58.4506 206.188C57.6246 206.188 57.1346 205.754 57.1346 205.04C57.1346 204.34 57.6386 203.99 58.8566 203.822L60.5226 203.598V203.948ZM66.6422 200.98V204.76C66.6422 206.286 67.4402 207.126 69.1902 207.126C69.8062 207.126 70.1982 207.042 70.5622 206.944V205.852C70.1282 205.936 69.6382 205.978 69.1762 205.978C68.2802 205.978 67.8322 205.446 67.8322 204.452V200.98H70.5622V200H67.8322V197.662L66.6422 198.166V200H64.6402V200.98H66.6422ZM75.3238 200.98V204.76C75.3238 206.286 76.1218 207.126 77.8718 207.126C78.4878 207.126 78.8798 207.042 79.2438 206.944V205.852C78.8098 205.936 78.3198 205.978 77.8578 205.978C76.9618 205.978 76.5138 205.446 76.5138 204.452V200.98H79.2438V200H76.5138V197.662L75.3238 198.166V200H73.3218V200.98H75.3238ZM87.7575 202.744C87.7575 200.728 86.9455 199.832 85.1395 199.832C83.3615 199.832 82.2695 200.7 82.1435 202.198H83.4175C83.4735 201.316 84.0615 200.812 85.0555 200.812C86.0915 200.812 86.5535 201.358 86.5535 202.604V202.73L85.2795 202.884C84.1175 203.024 83.3615 203.206 82.8995 203.458C82.2555 203.822 81.9195 204.382 81.9195 205.11C81.9195 206.314 82.8855 207.168 84.2715 207.168C85.4195 207.168 86.1755 206.706 86.6375 205.726C86.6515 206.146 86.6935 206.608 86.7495 207H87.9955C87.8275 206.482 87.7575 205.754 87.7575 204.634V202.744ZM86.5675 203.948C86.5675 205.32 85.7555 206.188 84.4955 206.188C83.6695 206.188 83.1795 205.754 83.1795 205.04C83.1795 204.34 83.6835 203.99 84.9015 203.822L86.5675 203.598V203.948ZM93.7931 207.168C95.5291 207.168 96.4391 206.048 96.6631 204.62L95.5291 204.438C95.3611 205.502 94.8151 206.118 93.7931 206.118C92.4631 206.118 91.8051 205.04 91.8051 203.444C91.8051 201.904 92.4631 200.868 93.7511 200.868C94.7451 200.868 95.3331 201.442 95.4591 202.478L96.6771 202.338C96.5091 200.728 95.3891 199.832 93.8351 199.832C91.6371 199.832 90.5731 201.372 90.5731 203.458C90.5731 205.558 91.6651 207.168 93.7931 207.168ZM100.767 196.85H99.5768V207H100.767V203.346C100.767 202.352 101.145 200.882 102.671 200.882C103.413 200.882 104.183 201.218 104.183 202.744V207H105.373V202.674C105.373 201.54 105.135 200.882 104.687 200.448C104.197 199.986 103.525 199.832 102.965 199.832C101.957 199.832 101.089 200.434 100.767 201.274V196.85ZM106.816 209.632H115.496V208.652H106.816V209.632ZM118.732 200.98V204.76C118.732 206.286 119.53 207.126 121.28 207.126C121.896 207.126 122.288 207.042 122.652 206.944V205.852C122.218 205.936 121.728 205.978 121.266 205.978C120.37 205.978 119.922 205.446 119.922 204.452V200.98H122.652V200H119.922V197.662L118.732 198.166V200H116.73V200.98H118.732ZM128.52 207.168C130.48 207.168 131.782 205.726 131.782 203.5C131.782 201.274 130.48 199.832 128.52 199.832C126.56 199.832 125.258 201.274 125.258 203.5C125.258 205.698 126.56 207.168 128.52 207.168ZM128.52 206.132C127.26 206.132 126.518 205.152 126.518 203.5C126.518 201.848 127.26 200.868 128.52 200.868C129.78 200.868 130.522 201.862 130.522 203.5C130.522 205.152 129.78 206.132 128.52 206.132ZM132.861 209.632H141.541V208.652H132.861V209.632ZM147.395 201.036C147.045 200.35 146.373 199.832 145.421 199.832C143.573 199.832 142.355 201.288 142.355 203.486C142.355 205.712 143.489 207.168 145.239 207.168C146.387 207.168 147.045 206.608 147.465 205.698V207H148.585V196.85H147.395V201.036ZM147.423 203.654C147.423 205.166 146.681 206.118 145.491 206.118C144.329 206.118 143.615 205.11 143.615 203.486C143.615 201.848 144.329 200.882 145.533 200.882C146.695 200.882 147.423 201.834 147.423 203.332V203.654ZM155.531 198.6V196.92H153.851V198.6H155.531ZM157.771 207V206.02H155.405V200H152.185V200.98H154.215V206.02H151.975V207H157.771ZM163.4 207.168C165.108 207.168 166.074 206.286 166.074 205.026C166.074 204.004 165.514 203.36 164.254 203.122L162.896 202.87C162.21 202.744 161.818 202.464 161.818 201.876C161.818 201.19 162.364 200.798 163.26 200.798C164.212 200.798 164.758 201.288 164.912 201.988L166.088 201.722C165.948 200.546 164.884 199.832 163.316 199.832C161.664 199.832 160.656 200.728 160.656 201.932C160.656 202.996 161.328 203.668 162.518 203.892L163.89 204.144C164.52 204.256 164.898 204.508 164.898 205.124C164.898 205.726 164.38 206.188 163.442 206.188C162.42 206.188 161.762 205.684 161.594 204.802L160.39 205.012C160.628 206.398 161.748 207.168 163.4 207.168ZM175.302 207L172.572 202.702L175.134 200H173.58L170.444 203.444V196.85H169.254V207H170.444V204.858L171.718 203.57L173.832 207H175.302ZM180.764 207.168C182.472 207.168 183.438 206.286 183.438 205.026C183.438 204.004 182.878 203.36 181.618 203.122L180.26 202.87C179.574 202.744 179.182 202.464 179.182 201.876C179.182 201.19 179.728 200.798 180.624 200.798C181.576 200.798 182.122 201.288 182.276 201.988L183.452 201.722C183.312 200.546 182.248 199.832 180.68 199.832C179.028 199.832 178.02 200.728 178.02 201.932C178.02 202.996 178.692 203.668 179.882 203.892L181.254 204.144C181.884 204.256 182.262 204.508 182.262 205.124C182.262 205.726 181.744 206.188 180.806 206.188C179.784 206.188 179.126 205.684 178.958 204.802L177.754 205.012C177.992 206.398 179.112 207.168 180.764 207.168ZM218.626 201.624V200.504H212.046V201.624H218.626ZM218.626 204.284V203.164H212.046V204.284H218.626ZM57.2886 219H56.1686V226H57.3586V222.346C57.3586 221.352 57.7366 219.882 59.3186 219.882C60.0186 219.882 60.7746 220.218 60.7746 221.744V226H61.9646V221.674C61.9646 220.54 61.7546 219.868 61.2926 219.434C60.8166 218.986 60.1726 218.832 59.5986 218.832C58.4226 218.832 57.6526 219.504 57.2886 220.386V219ZM70.6882 222.276C70.6882 220.372 69.8622 218.832 67.7202 218.832C65.7602 218.832 64.5282 220.218 64.5282 222.36C64.5282 224.656 65.6062 226.168 67.8042 226.168C69.1202 226.168 70.0722 225.566 70.6602 224.404L69.6522 223.872C69.3022 224.544 68.7282 225.118 67.8042 225.118C66.5022 225.118 65.7462 224.124 65.7462 222.808H70.6602C70.6742 222.626 70.6882 222.444 70.6882 222.276ZM65.7462 221.828C65.7462 220.806 66.3902 219.756 67.6642 219.756C68.9242 219.756 69.4842 220.708 69.4562 221.828H65.7462ZM75.3238 219.98V223.76C75.3238 225.286 76.1218 226.126 77.8718 226.126C78.4878 226.126 78.8798 226.042 79.2438 225.944V224.852C78.8098 224.936 78.3198 224.978 77.8578 224.978C76.9618 224.978 76.5138 224.446 76.5138 223.452V219.98H79.2438V219H76.5138V216.662L75.3238 217.166V219H73.3218V219.98H75.3238ZM82.5215 226H84.0195L84.9295 221.478C84.9855 221.198 85.0415 220.61 85.0555 220.33H85.1535C85.1675 220.61 85.2235 221.198 85.2795 221.478L86.1895 226H87.6875L89.0455 219H87.7995L87.0855 223.802L86.9455 224.796H86.8475C86.7915 224.474 86.7495 224.25 86.6235 223.62L85.7135 219H84.4955L83.5855 223.62C83.4595 224.25 83.4175 224.474 83.3615 224.796H83.2635L83.1235 223.802L82.4095 219H81.1635L82.5215 226ZM93.7931 226.168C95.7531 226.168 97.0551 224.726 97.0551 222.5C97.0551 220.274 95.7531 218.832 93.7931 218.832C91.8331 218.832 90.5311 220.274 90.5311 222.5C90.5311 224.698 91.8331 226.168 93.7931 226.168ZM93.7931 225.132C92.5331 225.132 91.7911 224.152 91.7911 222.5C91.7911 220.848 92.5331 219.868 93.7931 219.868C95.0531 219.868 95.7951 220.862 95.7951 222.5C95.7951 224.152 95.0531 225.132 93.7931 225.132ZM101.271 219H100.095V226H101.285V223.396C101.285 221.114 102.629 219.938 104.309 219.938C104.813 219.938 105.331 220.008 105.611 220.078V218.972C105.317 218.888 104.855 218.832 104.351 218.832C102.895 218.832 101.747 219.714 101.271 220.82V219ZM114.53 226L111.8 221.702L114.362 219H112.808L109.672 222.444V215.85H108.482V226H109.672V223.858L110.946 222.57L113.06 226H114.53ZM115.498 228.632H124.178V227.652H115.498V228.632ZM129.486 217.6V215.92H127.806V217.6H129.486ZM131.726 226V225.02H129.36V219H126.14V219.98H128.17V225.02H125.93V226H131.726ZM135.423 219H134.303V226H135.493V222.346C135.493 221.352 135.871 219.882 137.453 219.882C138.153 219.882 138.909 220.218 138.909 221.744V226H140.099V221.674C140.099 220.54 139.889 219.868 139.427 219.434C138.951 218.986 138.307 218.832 137.733 218.832C136.557 218.832 135.787 219.504 135.423 220.386V219ZM144.777 219.98V223.76C144.777 225.286 145.575 226.126 147.325 226.126C147.941 226.126 148.333 226.042 148.697 225.944V224.852C148.263 224.936 147.773 224.978 147.311 224.978C146.415 224.978 145.967 224.446 145.967 223.452V219.98H148.697V219H145.967V216.662L144.777 217.166V219H142.775V219.98H144.777ZM157.505 222.276C157.505 220.372 156.679 218.832 154.537 218.832C152.577 218.832 151.345 220.218 151.345 222.36C151.345 224.656 152.423 226.168 154.621 226.168C155.937 226.168 156.889 225.566 157.477 224.404L156.469 223.872C156.119 224.544 155.545 225.118 154.621 225.118C153.319 225.118 152.563 224.124 152.563 222.808H157.477C157.491 222.626 157.505 222.444 157.505 222.276ZM152.563 221.828C152.563 220.806 153.207 219.756 154.481 219.756C155.741 219.756 156.301 220.708 156.273 221.828H152.563ZM162.042 219H160.866V226H162.056V223.396C162.056 221.114 163.4 219.938 165.08 219.938C165.584 219.938 166.102 220.008 166.382 220.078V218.972C166.088 218.888 165.626 218.832 165.122 218.832C163.666 218.832 162.518 219.714 162.042 220.82V219ZM172.194 219V218.314C172.194 217.25 172.572 216.886 173.636 216.886C174.168 216.886 174.546 216.956 174.854 216.998V215.948C174.378 215.85 174.042 215.808 173.636 215.808C171.9 215.808 171.004 216.634 171.004 218.23V219H168.862V219.966H171.004V226H172.194V219.966H174.854V219H172.194ZM183.256 221.744C183.256 219.728 182.444 218.832 180.638 218.832C178.86 218.832 177.768 219.7 177.642 221.198H178.916C178.972 220.316 179.56 219.812 180.554 219.812C181.59 219.812 182.052 220.358 182.052 221.604V221.73L180.778 221.884C179.616 222.024 178.86 222.206 178.398 222.458C177.754 222.822 177.418 223.382 177.418 224.11C177.418 225.314 178.384 226.168 179.77 226.168C180.918 226.168 181.674 225.706 182.136 224.726C182.15 225.146 182.192 225.608 182.248 226H183.494C183.326 225.482 183.256 224.754 183.256 223.634V221.744ZM182.066 222.948C182.066 224.32 181.254 225.188 179.994 225.188C179.168 225.188 178.678 224.754 178.678 224.04C178.678 223.34 179.182 222.99 180.4 222.822L182.066 222.598V222.948ZM189.291 226.168C191.027 226.168 191.937 225.048 192.161 223.62L191.027 223.438C190.859 224.502 190.313 225.118 189.291 225.118C187.961 225.118 187.303 224.04 187.303 222.444C187.303 220.904 187.961 219.868 189.249 219.868C190.243 219.868 190.831 220.442 190.957 221.478L192.175 221.338C192.007 219.728 190.887 218.832 189.333 218.832C187.135 218.832 186.071 220.372 186.071 222.458C186.071 224.558 187.163 226.168 189.291 226.168ZM200.913 222.276C200.913 220.372 200.087 218.832 197.945 218.832C195.985 218.832 194.753 220.218 194.753 222.36C194.753 224.656 195.831 226.168 198.029 226.168C199.345 226.168 200.297 225.566 200.885 224.404L199.877 223.872C199.527 224.544 198.953 225.118 198.029 225.118C196.727 225.118 195.971 224.124 195.971 222.808H200.885C200.899 222.626 200.913 222.444 200.913 222.276ZM195.971 221.828C195.971 220.806 196.615 219.756 197.889 219.756C199.149 219.756 199.709 220.708 199.681 221.828H195.971ZM217.758 227.596V226.616H216.666C215.756 226.616 215.224 226.07 215.224 225.216V223.662C215.224 222.738 215.112 221.828 214.328 221.478C215.112 221.184 215.238 220.344 215.238 219.392V217.782C215.238 216.928 215.742 216.382 216.652 216.382H217.758V215.402H216.652C215.098 215.402 214.146 216.242 214.146 217.488V219.532C214.146 220.414 214.104 220.946 213.04 220.946V222.038C214.09 222.038 214.16 222.682 214.16 223.508V225.51C214.16 226.756 215.112 227.596 216.666 227.596H217.758Z" fill="#626668"/>
<path d="M40.588 47.043C40.25 47.186 40.016 47.355 39.899 47.537C39.769 47.719 39.717 47.992 39.717 48.33H40.666V49.916H39.067V48.33C39.067 47.862 39.158 47.485 39.353 47.212C39.535 46.939 39.86 46.718 40.302 46.536L40.588 47.043ZM42.941 47.043C42.603 47.186 42.382 47.355 42.265 47.537C42.135 47.719 42.083 47.992 42.083 48.33H43.019V49.916H41.42V48.33C41.42 47.862 41.511 47.498 41.706 47.212C41.888 46.939 42.213 46.718 42.655 46.536L42.941 47.043ZM46.9075 55.207C46.4005 54.57 46.1535 53.738 46.1535 52.711C46.1535 51.697 46.4005 50.891 46.9075 50.267C47.4145 49.656 48.1555 49.344 49.1175 49.344C49.8455 49.344 50.4435 49.552 50.9115 49.955C51.3795 50.371 51.6395 50.93 51.7175 51.658L50.7945 51.762C50.7165 51.242 50.5345 50.852 50.2485 50.566C49.9495 50.28 49.5465 50.137 49.0525 50.137C48.4155 50.137 47.9345 50.371 47.5965 50.839C47.2585 51.307 47.0895 51.918 47.0895 52.698C47.0895 53.517 47.2585 54.167 47.5965 54.635C47.9345 55.116 48.4415 55.35 49.0915 55.35C49.5855 55.35 49.9885 55.207 50.2875 54.921C50.5735 54.635 50.7685 54.219 50.8465 53.686L51.7175 53.816C51.6005 54.518 51.3275 55.09 50.8855 55.519C50.4435 55.948 49.8455 56.156 49.0915 56.156C48.1425 56.156 47.4145 55.844 46.9075 55.207ZM55.593 55.74C55.138 55.454 54.787 55.064 54.54 54.544C54.293 54.024 54.176 53.426 54.176 52.75C54.176 52.074 54.293 51.476 54.54 50.956C54.787 50.436 55.138 50.046 55.58 49.76C56.022 49.487 56.555 49.344 57.153 49.344C57.751 49.344 58.271 49.487 58.713 49.76C59.155 50.046 59.506 50.436 59.753 50.956C60 51.476 60.13 52.074 60.13 52.75C60.13 53.439 60 54.037 59.753 54.557C59.506 55.077 59.155 55.467 58.713 55.74C58.271 56.026 57.751 56.156 57.153 56.156C56.555 56.156 56.035 56.026 55.593 55.74ZM58.622 54.674C58.986 54.206 59.168 53.569 59.168 52.75C59.168 51.944 58.986 51.307 58.622 50.839C58.258 50.371 57.777 50.137 57.153 50.137C56.529 50.137 56.035 50.371 55.671 50.839C55.307 51.307 55.138 51.944 55.138 52.75C55.138 53.569 55.307 54.206 55.671 54.674C56.035 55.142 56.529 55.363 57.153 55.363C57.777 55.363 58.258 55.142 58.622 54.674ZM62.8746 55.246H64.9936V47.329H63.0046V46.575H65.8906V55.246H68.1656V56H62.8746V55.246ZM71.7161 55.74C71.2611 55.454 70.9101 55.064 70.6631 54.544C70.4161 54.024 70.2991 53.426 70.2991 52.75C70.2991 52.074 70.4161 51.476 70.6631 50.956C70.9101 50.436 71.2611 50.046 71.7031 49.76C72.1451 49.487 72.6781 49.344 73.2761 49.344C73.8741 49.344 74.3941 49.487 74.8361 49.76C75.2781 50.046 75.6291 50.436 75.8761 50.956C76.1231 51.476 76.2531 52.074 76.2531 52.75C76.2531 53.439 76.1231 54.037 75.8761 54.557C75.6291 55.077 75.2781 55.467 74.8361 55.74C74.3941 56.026 73.8741 56.156 73.2761 56.156C72.6781 56.156 72.1581 56.026 71.7161 55.74ZM74.7451 54.674C75.1091 54.206 75.2911 53.569 75.2911 52.75C75.2911 51.944 75.1091 51.307 74.7451 50.839C74.3811 50.371 73.9001 50.137 73.2761 50.137C72.6521 50.137 72.1581 50.371 71.7941 50.839C71.4301 51.307 71.2611 51.944 71.2611 52.75C71.2611 53.569 71.4301 54.206 71.7941 54.674C72.1581 55.142 72.6521 55.363 73.2761 55.363C73.9001 55.363 74.3811 55.142 74.7451 54.674ZM79.6216 55.597C79.1406 55.233 78.8546 54.687 78.7506 53.985L79.6736 53.829C79.7516 54.349 79.9466 54.752 80.2586 55.012C80.5706 55.272 80.9996 55.402 81.5326 55.402C82.0006 55.402 82.3646 55.311 82.6246 55.116C82.8846 54.921 83.0146 54.648 83.0146 54.284C83.0146 53.946 82.9106 53.686 82.7286 53.504C82.5466 53.322 82.2476 53.205 81.8446 53.153L80.8176 53.036C80.1936 52.958 79.7386 52.763 79.4266 52.451C79.1146 52.139 78.9716 51.723 78.9716 51.216C78.9716 50.644 79.1796 50.189 79.6086 49.851C80.0246 49.513 80.6096 49.344 81.3636 49.344C82.0916 49.344 82.6766 49.526 83.1316 49.877C83.5736 50.228 83.8336 50.722 83.9116 51.346L83.0146 51.528C82.9366 51.073 82.7546 50.722 82.4686 50.462C82.1826 50.215 81.8056 50.085 81.3376 50.085C80.8696 50.085 80.5056 50.189 80.2456 50.371C79.9856 50.566 79.8556 50.839 79.8556 51.177C79.8556 51.489 79.9466 51.736 80.1546 51.918C80.3496 52.1 80.6616 52.204 81.0906 52.256L82.1306 52.386C82.7416 52.464 83.1966 52.659 83.4826 52.971C83.7686 53.283 83.9116 53.686 83.9116 54.206C83.9116 54.817 83.6906 55.298 83.2746 55.636C82.8456 55.987 82.2476 56.156 81.4936 56.156C80.7136 56.156 80.0896 55.974 79.6216 55.597ZM90.2571 55.714C89.8801 56.013 89.4511 56.156 88.9701 56.156C88.2681 56.156 87.7221 55.974 87.3191 55.584C87.1111 55.389 86.9551 55.129 86.8511 54.791C86.7471 54.453 86.7081 54.037 86.7081 53.517V49.5H87.6441V53.504C87.6441 54.752 88.1511 55.376 89.1651 55.376C89.7891 55.376 90.2571 55.129 90.5561 54.635C90.8421 54.141 90.9981 53.582 90.9981 52.958V49.5H91.9081V56H91.0501V54.661C90.8941 55.077 90.6341 55.428 90.2571 55.714ZM95.7447 55.597C95.2637 55.233 94.9777 54.687 94.8737 53.985L95.7967 53.829C95.8747 54.349 96.0697 54.752 96.3817 55.012C96.6937 55.272 97.1227 55.402 97.6557 55.402C98.1237 55.402 98.4877 55.311 98.7477 55.116C99.0077 54.921 99.1377 54.648 99.1377 54.284C99.1377 53.946 99.0337 53.686 98.8517 53.504C98.6697 53.322 98.3707 53.205 97.9677 53.153L96.9407 53.036C96.3167 52.958 95.8617 52.763 95.5497 52.451C95.2377 52.139 95.0947 51.723 95.0947 51.216C95.0947 50.644 95.3027 50.189 95.7317 49.851C96.1477 49.513 96.7327 49.344 97.4867 49.344C98.2147 49.344 98.7997 49.526 99.2547 49.877C99.6967 50.228 99.9567 50.722 100.035 51.346L99.1377 51.528C99.0597 51.073 98.8777 50.722 98.5917 50.462C98.3057 50.215 97.9287 50.085 97.4607 50.085C96.9927 50.085 96.6287 50.189 96.3687 50.371C96.1087 50.566 95.9787 50.839 95.9787 51.177C95.9787 51.489 96.0697 51.736 96.2777 51.918C96.4727 52.1 96.7847 52.204 97.2137 52.256L98.2537 52.386C98.8647 52.464 99.3197 52.659 99.6057 52.971C99.8917 53.283 100.035 53.686 100.035 54.206C100.035 54.817 99.8137 55.298 99.3977 55.636C98.9687 55.987 98.3707 56.156 97.6167 56.156C96.8367 56.156 96.2127 55.974 95.7447 55.597ZM109.552 57.534V58.288H101.492V57.534H109.552ZM111.244 55.246H113.376V50.254H111.413V49.5H114.286V55.246H116.535V56H111.244V55.246ZM114.403 48.2H113.077V46.627H114.403V48.2ZM120.683 49.773C121.06 49.487 121.528 49.344 122.074 49.344C122.737 49.344 123.257 49.539 123.647 49.903C123.855 50.124 124.024 50.397 124.128 50.735C124.232 51.073 124.297 51.489 124.297 52.009V56H123.387V52.048C123.387 50.787 122.88 50.15 121.866 50.15C121.398 50.15 121.021 50.28 120.735 50.514C120.436 50.761 120.228 51.073 120.098 51.437C119.968 51.814 119.903 52.191 119.903 52.581V56H118.993V49.5H119.851V50.93C120.033 50.436 120.306 50.059 120.683 49.773ZM127.991 55.597C127.51 55.233 127.224 54.687 127.12 53.985L128.043 53.829C128.121 54.349 128.316 54.752 128.628 55.012C128.94 55.272 129.369 55.402 129.902 55.402C130.37 55.402 130.734 55.311 130.994 55.116C131.254 54.921 131.384 54.648 131.384 54.284C131.384 53.946 131.28 53.686 131.098 53.504C130.916 53.322 130.617 53.205 130.214 53.153L129.187 53.036C128.563 52.958 128.108 52.763 127.796 52.451C127.484 52.139 127.341 51.723 127.341 51.216C127.341 50.644 127.549 50.189 127.978 49.851C128.394 49.513 128.979 49.344 129.733 49.344C130.461 49.344 131.046 49.526 131.501 49.877C131.943 50.228 132.203 50.722 132.281 51.346L131.384 51.528C131.306 51.073 131.124 50.722 130.838 50.462C130.552 50.215 130.175 50.085 129.707 50.085C129.239 50.085 128.875 50.189 128.615 50.371C128.355 50.566 128.225 50.839 128.225 51.177C128.225 51.489 128.316 51.736 128.524 51.918C128.719 52.1 129.031 52.204 129.46 52.256L130.5 52.386C131.111 52.464 131.566 52.659 131.852 52.971C132.138 53.283 132.281 53.686 132.281 54.206C132.281 54.817 132.06 55.298 131.644 55.636C131.215 55.987 130.617 56.156 129.863 56.156C129.083 56.156 128.459 55.974 127.991 55.597ZM134.908 49.5H136.793V47.784L137.703 47.394V49.5H140.264V50.241H137.703V53.881C137.703 54.336 137.82 54.674 138.054 54.908C138.288 55.142 138.613 55.246 139.055 55.246C139.471 55.246 139.874 55.207 140.264 55.129V55.961C139.809 56.065 139.406 56.117 139.055 56.117C138.327 56.117 137.768 55.935 137.378 55.545C136.988 55.168 136.793 54.648 136.793 53.998V50.241H134.908V49.5ZM148.404 56H147.442C147.39 55.506 147.351 55.077 147.351 54.7C146.922 55.675 146.168 56.156 145.076 56.156C144.426 56.156 143.906 55.987 143.516 55.636C143.113 55.285 142.918 54.83 142.918 54.258C142.918 53.634 143.178 53.153 143.724 52.815C144.127 52.555 144.829 52.373 145.83 52.256L147.286 52.087V51.97C147.286 51.32 147.156 50.839 146.922 50.54C146.675 50.254 146.285 50.098 145.752 50.098C145.232 50.098 144.842 50.228 144.556 50.475C144.27 50.735 144.114 51.086 144.088 51.528H143.126C143.178 50.839 143.438 50.306 143.906 49.916C144.374 49.539 145.011 49.344 145.817 49.344C146.636 49.344 147.234 49.565 147.624 49.994C148.014 50.436 148.209 51.112 148.209 52.048V53.725C148.209 54.765 148.274 55.532 148.404 56ZM145.583 52.971C144.972 53.062 144.53 53.205 144.27 53.4C144.01 53.595 143.88 53.868 143.88 54.219C143.88 54.583 143.997 54.882 144.244 55.09C144.478 55.298 144.816 55.402 145.232 55.402C145.856 55.402 146.35 55.207 146.727 54.791C147.104 54.375 147.299 53.842 147.299 53.166V52.75L145.583 52.971ZM152.929 49.773C153.306 49.487 153.774 49.344 154.32 49.344C154.983 49.344 155.503 49.539 155.893 49.903C156.101 50.124 156.27 50.397 156.374 50.735C156.478 51.073 156.543 51.489 156.543 52.009V56H155.633V52.048C155.633 50.787 155.126 50.15 154.112 50.15C153.644 50.15 153.267 50.28 152.981 50.514C152.682 50.761 152.474 51.073 152.344 51.437C152.214 51.814 152.149 52.191 152.149 52.581V56H151.239V49.5H152.097V50.93C152.279 50.436 152.552 50.059 152.929 49.773ZM159.769 55.207C159.262 54.57 159.015 53.738 159.015 52.711C159.015 51.697 159.262 50.891 159.769 50.267C160.276 49.656 161.017 49.344 161.979 49.344C162.707 49.344 163.305 49.552 163.773 49.955C164.241 50.371 164.501 50.93 164.579 51.658L163.656 51.762C163.578 51.242 163.396 50.852 163.11 50.566C162.811 50.28 162.408 50.137 161.914 50.137C161.277 50.137 160.796 50.371 160.458 50.839C160.12 51.307 159.951 51.918 159.951 52.698C159.951 53.517 160.12 54.167 160.458 54.635C160.796 55.116 161.303 55.35 161.953 55.35C162.447 55.35 162.85 55.207 163.149 54.921C163.435 54.635 163.63 54.219 163.708 53.686L164.579 53.816C164.462 54.518 164.189 55.09 163.747 55.519C163.305 55.948 162.707 56.156 161.953 56.156C161.004 56.156 160.276 55.844 159.769 55.207ZM168.012 52.945V52.971C168.012 53.686 168.194 54.258 168.558 54.7C168.922 55.142 169.429 55.35 170.066 55.35C170.534 55.35 170.911 55.233 171.21 54.986C171.496 54.739 171.73 54.414 171.899 54.011L172.679 54.401C172.445 54.973 172.107 55.402 171.665 55.701C171.223 56.013 170.69 56.156 170.066 56.156C169.091 56.156 168.35 55.844 167.843 55.22C167.336 54.596 167.089 53.738 167.089 52.633C167.089 51.983 167.206 51.398 167.44 50.904C167.674 50.41 167.999 50.033 168.441 49.76C168.883 49.487 169.39 49.344 169.988 49.344C170.924 49.344 171.6 49.643 172.042 50.228C172.484 50.826 172.705 51.593 172.705 52.542L172.692 52.945H168.012ZM168.896 50.358C168.61 50.566 168.389 50.826 168.246 51.151C168.09 51.476 168.012 51.827 168.012 52.191H171.769C171.769 51.58 171.626 51.073 171.327 50.67C171.015 50.267 170.56 50.059 169.949 50.059C169.533 50.059 169.182 50.163 168.896 50.358ZM176.165 49.643C176.49 49.513 176.711 49.344 176.841 49.162C176.958 48.98 177.023 48.707 177.023 48.356H176.087V46.77H177.686V48.356C177.686 48.824 177.582 49.201 177.4 49.474C177.205 49.76 176.893 49.981 176.451 50.15L176.165 49.643ZM178.518 49.643C178.856 49.513 179.077 49.344 179.207 49.162C179.324 48.98 179.389 48.707 179.389 48.356H178.44V46.77H180.039V48.356C180.039 48.824 179.935 49.201 179.753 49.474C179.558 49.76 179.246 49.981 178.804 50.15L178.518 49.643Z" fill="#F5B944"/>
</svg>
