<svg width="395" height="320" viewBox="0 0 395 320" fill="none" xmlns="http://www.w3.org/2000/svg">
<g clip-path="url(#clip0_128_26)">
<mask id="mask0_128_26" style="mask-type:luminance" maskUnits="userSpaceOnUse" x="0" y="0" width="395" height="320">
<path d="M395 0H0V320H395V0Z" fill="white"/>
</mask>
<g mask="url(#mask0_128_26)">
<path d="M395 0H0V320H395V0Z" fill="#080F11"/>
<path d="M561 -310H0V530H561V-310Z" fill="#101618"/>
<path d="M35.57 34.296C34.128 34.002 32.756 33.19 32.756 31.482C32.756 29.564 34.758 28.668 36.466 28.668C38.328 28.668 39.938 29.522 40.33 31.566H38.79C38.468 30.362 37.362 29.998 36.396 29.998C35.654 29.998 34.38 30.348 34.38 31.412C34.38 32.252 35.052 32.686 35.92 32.868L37.124 33.12C38.748 33.456 40.526 34.072 40.526 36.116C40.526 38.132 38.594 39.182 36.62 39.182C34.268 39.182 32.686 37.88 32.448 35.752H34.016C34.31 37.138 35.248 37.852 36.676 37.852C37.992 37.852 38.916 37.222 38.916 36.242C38.916 35.192 37.908 34.772 36.816 34.548L35.57 34.296ZM49.5728 35.262C49.5728 37.978 47.6968 39.182 45.9048 39.182C44.1268 39.182 42.2508 37.978 42.2508 35.262C42.2508 32.532 44.1268 31.328 45.9048 31.328C47.6968 31.328 49.5728 32.532 49.5728 35.262ZM45.9048 37.95C47.0108 37.95 48.0328 37.096 48.0328 35.262C48.0328 33.386 47.0108 32.56 45.9048 32.56C44.8128 32.56 43.7908 33.358 43.7908 35.262C43.7908 37.124 44.8128 37.95 45.9048 37.95ZM56.2343 37.936C55.8003 38.692 55.0723 39.182 53.9383 39.182C52.1603 39.182 51.4743 38.076 51.4743 36.256V31.468H52.9303V35.864C52.9303 36.956 53.1123 37.95 54.4283 37.95C55.6463 37.95 56.2483 37.04 56.2483 35.556V31.468H57.7043V39H56.2343V37.936ZM64.1327 32.966C63.8667 32.938 63.6147 32.924 63.3767 32.924C62.2567 32.924 61.6687 33.47 61.6687 35.052V39H60.2127V31.468H61.6407V32.798C62.0327 31.944 62.7887 31.454 63.7267 31.44C63.8527 31.44 64.0067 31.44 64.1327 31.454V32.966ZM72.0923 34.016H70.6363C70.4823 33.162 69.7123 32.574 68.7603 32.574C67.7103 32.574 66.7443 33.4 66.7443 35.234C66.7443 37.096 67.7243 37.936 68.7603 37.936C69.6843 37.936 70.4963 37.39 70.6923 36.494H72.1623C71.8683 38.076 70.3983 39.182 68.7323 39.182C66.5623 39.182 65.1903 37.516 65.1903 35.248C65.1903 33.008 66.6043 31.328 68.8303 31.328C70.5523 31.328 71.8683 32.546 72.0923 34.016ZM79.309 36.788H80.779C80.429 38.034 79.309 39.182 77.391 39.182C74.955 39.182 73.639 37.404 73.639 35.22C73.639 32.882 75.207 31.328 77.349 31.328C79.673 31.328 81.031 33.232 80.877 35.682H75.137C75.277 37.068 76.159 37.936 77.335 37.936C78.385 37.936 79.001 37.502 79.309 36.788ZM75.165 34.534H79.365C79.323 33.414 78.539 32.518 77.335 32.518C76.201 32.518 75.361 33.106 75.165 34.534ZM87.0006 29.536H88.4566V31.468H89.9406V32.574H88.4566V36.872C88.4566 37.642 88.5826 37.838 89.3106 37.838H89.9266V39H88.8626C87.3366 39 87.0006 38.622 87.0006 37.068V32.574H85.8526V31.468H87.0006V29.536ZM91.5371 41.45V40.288H92.1111C92.8951 40.288 93.2311 40.232 93.5951 39.154L93.6511 38.986L90.9351 31.468H92.5451L94.3651 37.082L96.1431 31.468H97.6551L94.9951 39.168C94.3791 40.946 93.9311 41.45 92.2371 41.45H91.5371ZM100.658 31.468V32.574C101.12 31.804 101.904 31.328 103.01 31.328C104.76 31.328 106.258 32.798 106.258 35.248C106.258 37.712 104.76 39.182 103.01 39.182C101.904 39.182 101.12 38.706 100.658 37.936V41.45H99.2016V31.468H100.658ZM102.674 37.964C103.878 37.964 104.704 36.942 104.704 35.248C104.704 33.554 103.878 32.546 102.674 32.546C101.554 32.546 100.602 33.386 100.602 35.248C100.602 37.11 101.554 37.964 102.674 37.964ZM113.527 36.788H114.997C114.647 38.034 113.527 39.182 111.609 39.182C109.173 39.182 107.857 37.404 107.857 35.22C107.857 32.882 109.425 31.328 111.567 31.328C113.891 31.328 115.249 33.232 115.095 35.682H109.355C109.495 37.068 110.377 37.936 111.553 37.936C112.603 37.936 113.219 37.502 113.527 36.788ZM109.383 34.534H113.583C113.541 33.414 112.757 32.518 111.553 32.518C110.419 32.518 109.579 33.106 109.383 34.534Z" fill="#E7E7E8"/>
<path d="M41.022 54.997C40.606 57.077 38.981 58.169 36.94 58.169C34.236 58.169 32.663 56.141 32.663 53.268C32.663 50.343 34.379 48.406 37.044 48.406C38.994 48.406 40.567 49.563 40.97 51.578H39.683C39.397 50.408 38.487 49.524 36.979 49.524C35.315 49.524 34.015 50.824 34.015 53.268C34.015 55.647 35.263 57.051 37.018 57.051C38.513 57.051 39.436 56.206 39.735 54.997H41.022ZM49.3986 54.529C49.3986 57.064 47.6696 58.169 46.0446 58.169C44.4196 58.169 42.6906 57.064 42.6906 54.529C42.6906 51.994 44.4196 50.889 46.0446 50.889C47.6696 50.889 49.3986 51.994 49.3986 54.529ZM46.0446 57.129C47.1106 57.129 48.1376 56.323 48.1376 54.529C48.1376 52.67 47.1106 51.929 46.0446 51.929C44.9786 51.929 43.9516 52.618 43.9516 54.529C43.9516 56.388 44.9786 57.129 46.0446 57.129ZM52.6465 52.059C53.0495 51.396 53.7255 50.889 54.9085 50.889C56.5985 50.889 57.2095 51.981 57.2095 53.58V58H56.0265V53.931C56.0265 52.852 55.8445 51.916 54.4925 51.916C53.3485 51.916 52.6465 52.709 52.6465 54.204V58H51.4635V51.006H52.6465V52.059ZM59.9672 49.251H61.1502V51.006H62.4762V51.955H61.1502V56.102C61.1502 56.83 61.2022 57.012 61.8782 57.012H62.4762V58H61.6182C60.2792 58 59.9672 57.701 59.9672 56.245V51.955H58.8622V51.006H59.9672V49.251ZM65.2362 54.893C65.2882 56.401 66.3542 57.129 67.3942 57.129C68.4342 57.129 69.0062 56.661 69.3052 55.972H70.5272C70.2022 57.181 69.0972 58.169 67.3942 58.169C65.1842 58.169 63.9622 56.583 63.9622 54.516C63.9622 52.306 65.4442 50.889 67.3552 50.889C69.4872 50.889 70.7742 52.683 70.6182 54.893H65.2362ZM65.2492 53.879H69.3702C69.3442 52.891 68.6032 51.903 67.3552 51.903C66.3022 51.903 65.3532 52.475 65.2492 53.879ZM73.8299 52.059C74.2329 51.396 74.9089 50.889 76.0919 50.889C77.7819 50.889 78.3929 51.981 78.3929 53.58V58H77.2099V53.931C77.2099 52.852 77.0279 51.916 75.6759 51.916C74.5319 51.916 73.8299 52.709 73.8299 54.204V58H72.6469V51.006H73.8299V52.059ZM81.1506 49.251H82.3336V51.006H83.6596V51.955H82.3336V56.102C82.3336 56.83 82.3856 57.012 83.0616 57.012H83.6596V58H82.8016C81.4626 58 81.1506 57.701 81.1506 56.245V51.955H80.0456V51.006H81.1506V49.251ZM89.6941 53.047C89.5121 52.215 88.8621 51.89 88.0431 51.89C87.3541 51.89 86.5741 52.137 86.5741 52.774C86.5741 53.333 86.9641 53.593 87.6401 53.723L88.6281 53.918C89.9021 54.165 91.0201 54.646 91.0201 55.998C91.0201 57.376 89.7721 58.169 88.1731 58.169C86.3401 58.169 85.3001 56.96 85.1701 55.738H86.4181C86.6001 56.635 87.1591 57.168 88.1991 57.168C89.0961 57.168 89.8241 56.778 89.8241 56.128C89.8241 55.426 89.1611 55.127 88.4071 54.971L87.3671 54.763C86.4181 54.568 85.3781 54.126 85.3781 52.826C85.3781 51.591 86.6261 50.876 88.1731 50.876C89.6811 50.876 90.7081 51.721 90.9291 53.047H89.6941ZM103.158 54.529C103.158 57.064 101.429 58.169 99.8041 58.169C98.1791 58.169 96.4501 57.064 96.4501 54.529C96.4501 51.994 98.1791 50.889 99.8041 50.889C101.429 50.889 103.158 51.994 103.158 54.529ZM99.8041 57.129C100.87 57.129 101.897 56.323 101.897 54.529C101.897 52.67 100.87 51.929 99.8041 51.929C98.7381 51.929 97.7111 52.618 97.7111 54.529C97.7111 56.388 98.7381 57.129 99.8041 57.129ZM105.586 50.499C105.586 49.043 105.885 48.575 107.471 48.575H108.082V49.563H107.497C106.873 49.563 106.769 49.706 106.769 50.434V51.006H108.082V51.955H106.769V58H105.586V51.955H104.611V51.006H105.586V50.499ZM119.571 53.346H118.375C118.206 52.514 117.478 51.929 116.568 51.929C115.515 51.929 114.553 52.748 114.553 54.503C114.553 56.284 115.528 57.129 116.568 57.129C117.556 57.129 118.258 56.466 118.427 55.725H119.649C119.415 57.038 118.154 58.169 116.529 58.169C114.527 58.169 113.266 56.648 113.266 54.516C113.266 52.436 114.579 50.889 116.646 50.889C118.336 50.889 119.415 52.163 119.571 53.346ZM125.117 52.241C124.87 52.215 124.649 52.189 124.454 52.189C123.362 52.189 122.816 52.8 122.816 54.334V58H121.633V51.006H122.79V52.228C123.141 51.435 123.856 50.993 124.766 50.967C124.883 50.967 124.987 50.967 125.117 50.98V52.241ZM127.57 54.893C127.622 56.401 128.688 57.129 129.728 57.129C130.768 57.129 131.34 56.661 131.639 55.972H132.861C132.536 57.181 131.431 58.169 129.728 58.169C127.518 58.169 126.296 56.583 126.296 54.516C126.296 52.306 127.778 50.889 129.689 50.889C131.821 50.889 133.108 52.683 132.952 54.893H127.57ZM127.583 53.879H131.704C131.678 52.891 130.937 51.903 129.689 51.903C128.636 51.903 127.687 52.475 127.583 53.879ZM134.501 56.154C134.501 54.503 136.36 54.022 139.233 53.697V53.528C139.233 52.254 138.518 51.825 137.647 51.825C136.672 51.825 136.1 52.358 136.048 53.216H134.826C134.943 51.708 136.269 50.863 137.634 50.863C139.558 50.863 140.429 51.786 140.416 53.749L140.403 55.361C140.39 56.531 140.455 57.337 140.585 58H139.389C139.35 57.74 139.311 57.454 139.298 57.038C138.869 57.753 138.141 58.169 136.906 58.169C135.593 58.169 134.501 57.441 134.501 56.154ZM139.324 54.633C137.179 54.854 135.814 55.166 135.814 56.128C135.814 56.791 136.321 57.233 137.166 57.233C138.271 57.233 139.324 56.726 139.324 55.075V54.633ZM143.167 49.251H144.35V51.006H145.676V51.955H144.35V56.102C144.35 56.83 144.402 57.012 145.078 57.012H145.676V58H144.818C143.479 58 143.167 57.701 143.167 56.245V51.955H142.062V51.006H143.167V49.251ZM148.436 54.893C148.488 56.401 149.554 57.129 150.594 57.129C151.634 57.129 152.206 56.661 152.505 55.972H153.727C153.402 57.181 152.297 58.169 150.594 58.169C148.384 58.169 147.162 56.583 147.162 54.516C147.162 52.306 148.644 50.889 150.555 50.889C152.687 50.889 153.974 52.683 153.818 54.893H148.436ZM148.449 53.879H152.57C152.544 52.891 151.803 51.903 150.555 51.903C149.502 51.903 148.553 52.475 148.449 53.879ZM160.707 48.575H161.89V58H160.707V56.947C160.278 57.688 159.537 58.169 158.419 58.169C156.82 58.169 155.429 56.843 155.429 54.529C155.429 52.228 156.82 50.889 158.419 50.889C159.537 50.889 160.278 51.37 160.707 52.111V48.575ZM158.718 51.903C157.509 51.903 156.716 52.865 156.716 54.529C156.716 56.193 157.509 57.155 158.718 57.155C159.771 57.155 160.759 56.375 160.759 54.529C160.759 52.683 159.771 51.903 158.718 51.903ZM172.938 48.575H174.121V58H172.938V56.947C172.509 57.688 171.768 58.169 170.65 58.169C169.051 58.169 167.66 56.843 167.66 54.529C167.66 52.228 169.051 50.889 170.65 50.889C171.768 50.889 172.509 51.37 172.938 52.111V48.575ZM170.949 51.903C169.74 51.903 168.947 52.865 168.947 54.529C168.947 56.193 169.74 57.155 170.949 57.155C172.002 57.155 172.99 56.375 172.99 54.529C172.99 52.683 172.002 51.903 170.949 51.903ZM177.82 48.575V50.005H176.637V48.575H177.82ZM177.82 51.006V58H176.637V51.006H177.82ZM184.35 53.047C184.168 52.215 183.518 51.89 182.699 51.89C182.01 51.89 181.23 52.137 181.23 52.774C181.23 53.333 181.62 53.593 182.296 53.723L183.284 53.918C184.558 54.165 185.676 54.646 185.676 55.998C185.676 57.376 184.428 58.169 182.829 58.169C180.996 58.169 179.956 56.96 179.826 55.738H181.074C181.256 56.635 181.815 57.168 182.855 57.168C183.752 57.168 184.48 56.778 184.48 56.128C184.48 55.426 183.817 55.127 183.063 54.971L182.023 54.763C181.074 54.568 180.034 54.126 180.034 52.826C180.034 51.591 181.282 50.876 182.829 50.876C184.337 50.876 185.364 51.721 185.585 53.047H184.35ZM189.009 48.575V54.152L191.83 51.006H193.286L190.621 53.905L193.65 58H192.207L189.828 54.776L189.009 55.66V58H187.826V48.575H189.009Z" fill="#989A9B"/>
<path d="M47.5 79C47.5 74.8579 44.1421 71.5 40 71.5C35.8579 71.5 32.5 74.8579 32.5 79C32.5 83.1421 35.8579 86.5 40 86.5C44.1421 86.5 47.5 83.1421 47.5 79Z" fill="#080F11" stroke="#292F31"/>
<path d="M59.204 73.85H62.858C64.748 73.85 66.428 74.34 66.428 76.356C66.428 77.322 66.008 78.19 65.308 78.596C66.274 79.002 66.848 79.758 66.848 81.004C66.848 83.16 65.238 84 63.208 84H59.204V73.85ZM60.632 78.19H63.082C64.244 78.19 64.986 77.742 64.986 76.552C64.986 75.516 64.216 75.054 63.082 75.054H60.632V78.19ZM60.632 82.796H63.222C64.664 82.796 65.378 82.166 65.378 81.018C65.378 79.828 64.664 79.324 63.138 79.324H60.632V82.796ZM70.2483 84H68.9743V73.85H70.2483V84ZM72.3812 82.012C72.3812 80.234 74.3832 79.716 77.4772 79.366V79.184C77.4772 77.812 76.7072 77.35 75.7692 77.35C74.7192 77.35 74.1032 77.924 74.0472 78.848H72.7312C72.8572 77.224 74.2852 76.314 75.7552 76.314C77.8272 76.314 78.7652 77.308 78.7512 79.422L78.7372 81.158C78.7232 82.418 78.7932 83.286 78.9332 84H77.6452C77.6032 83.72 77.5612 83.412 77.5472 82.964C77.0852 83.734 76.3012 84.182 74.9712 84.182C73.5572 84.182 72.3812 83.398 72.3812 82.012ZM77.5752 80.374C75.2652 80.612 73.7952 80.948 73.7952 81.984C73.7952 82.698 74.3412 83.174 75.2512 83.174C76.4412 83.174 77.5752 82.628 77.5752 80.85V80.374ZM82.4835 77.602C82.9175 76.888 83.6455 76.342 84.9195 76.342C86.7395 76.342 87.3975 77.518 87.3975 79.24V84H86.1235V79.618C86.1235 78.456 85.9275 77.448 84.4715 77.448C83.2395 77.448 82.4835 78.302 82.4835 79.912V84H81.2095V76.468H82.4835V77.602ZM91.1372 73.85V79.856L94.1752 76.468H95.7432L92.8732 79.59L96.1352 84H94.5812L92.0192 80.528L91.1372 81.48V84H89.8632V73.85H91.1372ZM106.54 73.85H107.814V84H106.54V82.866C106.078 83.664 105.28 84.182 104.076 84.182C102.354 84.182 100.856 82.754 100.856 80.262C100.856 77.784 102.354 76.342 104.076 76.342C105.28 76.342 106.078 76.86 106.54 77.658V73.85ZM104.398 77.434C103.096 77.434 102.242 78.47 102.242 80.262C102.242 82.054 103.096 83.09 104.398 83.09C105.532 83.09 106.596 82.25 106.596 80.262C106.596 78.274 105.532 77.434 104.398 77.434ZM111.657 73.85V75.39H110.383V73.85H111.657ZM111.657 76.468V84H110.383V76.468H111.657ZM118.55 78.666C118.354 77.77 117.654 77.42 116.772 77.42C116.03 77.42 115.19 77.686 115.19 78.372C115.19 78.974 115.61 79.254 116.338 79.394L117.402 79.604C118.774 79.87 119.978 80.388 119.978 81.844C119.978 83.328 118.634 84.182 116.912 84.182C114.938 84.182 113.818 82.88 113.678 81.564H115.022C115.218 82.53 115.82 83.104 116.94 83.104C117.906 83.104 118.69 82.684 118.69 81.984C118.69 81.228 117.976 80.906 117.164 80.738L116.044 80.514C115.022 80.304 113.902 79.828 113.902 78.428C113.902 77.098 115.246 76.328 116.912 76.328C118.536 76.328 119.642 77.238 119.88 78.666H118.55ZM123.427 73.85V79.856L126.465 76.468H128.033L125.163 79.59L128.425 84H126.871L124.309 80.528L123.427 81.48V84H122.153V73.85H123.427Z" fill="#989A9B"/>
<path d="M47.5 103C47.5 98.8579 44.1421 95.5 40 95.5C35.8579 95.5 32.5 98.8579 32.5 103C32.5 107.142 35.8579 110.5 40 110.5C44.1421 110.5 47.5 107.142 47.5 103Z" fill="#3D3019" stroke="#F5B944"/>
<path d="M40 107C42.2091 107 44 105.209 44 103C44 100.791 42.2091 99 40 99C37.7909 99 36 100.791 36 103C36 105.209 37.7909 107 40 107Z" fill="#F5B944"/>
<path d="M60.632 108H59.204V97.85H60.632V108ZM64.6838 108H63.4098V100.468H64.6838V101.602C65.1178 100.888 65.8178 100.342 66.9518 100.342C68.0998 100.342 68.7858 100.846 69.1218 101.672C69.7238 100.748 70.6058 100.342 71.6558 100.342C73.4058 100.342 74.0918 101.518 74.0918 103.24V108H72.8178V103.618C72.8178 102.456 72.5938 101.448 71.2078 101.448C70.1158 101.448 69.3878 102.302 69.3878 103.912V108H68.1138V103.618C68.1138 102.456 67.8898 101.448 66.5038 101.448C65.4118 101.448 64.6838 102.302 64.6838 103.912V108ZM76.1136 106.012C76.1136 104.234 78.1156 103.716 81.2096 103.366V103.184C81.2096 101.812 80.4396 101.35 79.5016 101.35C78.4516 101.35 77.8356 101.924 77.7796 102.848H76.4636C76.5896 101.224 78.0176 100.314 79.4876 100.314C81.5596 100.314 82.4976 101.308 82.4836 103.422L82.4696 105.158C82.4556 106.418 82.5256 107.286 82.6656 108H81.3776C81.3356 107.72 81.2936 107.412 81.2796 106.964C80.8176 107.734 80.0336 108.182 78.7036 108.182C77.2896 108.182 76.1136 107.398 76.1136 106.012ZM81.3076 104.374C78.9976 104.612 77.5276 104.948 77.5276 105.984C77.5276 106.698 78.0736 107.174 78.9836 107.174C80.1736 107.174 81.3076 106.628 81.3076 104.85V104.374ZM90.0099 100.468H91.2839V106.992C91.2839 108.532 91.0039 109.162 90.5699 109.638C90.0239 110.268 89.0859 110.632 87.9659 110.632C86.2579 110.632 85.1099 109.848 84.8719 108.322H86.2299C86.3979 108.994 86.8039 109.512 87.9799 109.512C88.6659 109.512 89.1839 109.316 89.5199 108.952C89.7999 108.658 90.0099 108.308 90.0099 107.286V106.572C89.5479 107.37 88.8199 107.874 87.6159 107.874C85.9499 107.874 84.4239 106.53 84.4239 104.108C84.4239 101.7 85.9499 100.342 87.6159 100.342C88.8199 100.342 89.5479 100.86 90.0099 101.658V100.468ZM87.9379 101.434C86.6919 101.434 85.8099 102.4 85.8099 104.108C85.8099 105.83 86.6919 106.796 87.9379 106.796C89.0719 106.796 90.0659 106.026 90.0659 104.108C90.0659 102.204 89.0719 101.434 87.9379 101.434ZM94.7094 104.654C94.7654 106.278 95.9134 107.062 97.0334 107.062C98.1534 107.062 98.7694 106.558 99.0914 105.816H100.407C100.057 107.118 98.8674 108.182 97.0334 108.182C94.6534 108.182 93.3374 106.474 93.3374 104.248C93.3374 101.868 94.9334 100.342 96.9914 100.342C99.2874 100.342 100.673 102.274 100.505 104.654H94.7094ZM94.7234 103.562H99.1614C99.1334 102.498 98.3354 101.434 96.9914 101.434C95.8574 101.434 94.8354 102.05 94.7234 103.562Z" fill="#989A9B"/>
<path d="M47.5 127C47.5 122.858 44.1421 119.5 40 119.5C35.8579 119.5 32.5 122.858 32.5 127C32.5 131.142 35.8579 134.5 40 134.5C44.1421 134.5 47.5 131.142 47.5 127Z" fill="#080F11" stroke="#292F31"/>
<path d="M62.452 121.668C64.272 121.668 65.91 122.48 66.302 124.44H64.916C64.566 123.264 63.418 122.872 62.396 122.872C61.612 122.872 60.24 123.222 60.24 124.356C60.24 125.252 60.954 125.7 61.892 125.91L63.068 126.176C64.622 126.512 66.484 127.1 66.484 129.144C66.484 131.132 64.636 132.182 62.62 132.182C60.226 132.182 58.714 130.88 58.448 128.85H59.848C60.114 130.25 61.094 130.978 62.648 130.978C64.146 130.978 65.014 130.264 65.014 129.27C65.014 128.206 64.104 127.758 62.83 127.478L61.57 127.212C60.184 126.904 58.784 126.134 58.784 124.44C58.784 122.508 60.814 121.668 62.452 121.668ZM69.8108 125.602C70.2448 124.888 70.9728 124.342 72.2468 124.342C74.0668 124.342 74.7248 125.518 74.7248 127.24V132H73.4508V127.618C73.4508 126.456 73.2548 125.448 71.7988 125.448C70.5668 125.448 69.8108 126.302 69.8108 127.912V132H68.5368V124.468H69.8108V125.602ZM76.7425 130.012C76.7425 128.234 78.7445 127.716 81.8385 127.366V127.184C81.8385 125.812 81.0685 125.35 80.1305 125.35C79.0805 125.35 78.4645 125.924 78.4085 126.848H77.0925C77.2185 125.224 78.6465 124.314 80.1165 124.314C82.1885 124.314 83.1265 125.308 83.1125 127.422L83.0985 129.158C83.0845 130.418 83.1545 131.286 83.2945 132H82.0065C81.9645 131.72 81.9225 131.412 81.9085 130.964C81.4465 131.734 80.6625 132.182 79.3325 132.182C77.9185 132.182 76.7425 131.398 76.7425 130.012ZM81.9365 128.374C79.6265 128.612 78.1565 128.948 78.1565 129.984C78.1565 130.698 78.7025 131.174 79.6125 131.174C80.8025 131.174 81.9365 130.628 81.9365 128.85V128.374ZM86.8448 124.468V125.658C87.3068 124.86 88.1048 124.342 89.3088 124.342C91.0308 124.342 92.5288 125.784 92.5288 128.262C92.5288 130.754 91.0308 132.182 89.3088 132.182C88.1048 132.182 87.3068 131.664 86.8448 130.866V134.45H85.5708V124.468H86.8448ZM88.9868 131.09C90.2888 131.09 91.1428 130.054 91.1428 128.262C91.1428 126.47 90.2888 125.434 88.9868 125.434C87.8528 125.434 86.7888 126.274 86.7888 128.262C86.7888 130.25 87.8528 131.09 88.9868 131.09ZM98.892 126.666C98.696 125.77 97.996 125.42 97.114 125.42C96.372 125.42 95.532 125.686 95.532 126.372C95.532 126.974 95.952 127.254 96.68 127.394L97.744 127.604C99.116 127.87 100.32 128.388 100.32 129.844C100.32 131.328 98.976 132.182 97.254 132.182C95.28 132.182 94.16 130.88 94.02 129.564H95.364C95.56 130.53 96.162 131.104 97.282 131.104C98.248 131.104 99.032 130.684 99.032 129.984C99.032 129.228 98.318 128.906 97.506 128.738L96.386 128.514C95.364 128.304 94.244 127.828 94.244 126.428C94.244 125.098 95.588 124.328 97.254 124.328C98.878 124.328 99.984 125.238 100.222 126.666H98.892ZM103.769 125.602C104.203 124.888 104.931 124.342 106.205 124.342C108.025 124.342 108.683 125.518 108.683 127.24V132H107.409V127.618C107.409 126.456 107.213 125.448 105.757 125.448C104.525 125.448 103.769 126.302 103.769 127.912V132H102.495V121.85H103.769V125.602ZM117.883 128.262C117.883 130.992 116.021 132.182 114.271 132.182C112.521 132.182 110.659 130.992 110.659 128.262C110.659 125.532 112.521 124.342 114.271 124.342C116.021 124.342 117.883 125.532 117.883 128.262ZM114.271 131.062C115.419 131.062 116.525 130.194 116.525 128.262C116.525 126.26 115.419 125.462 114.271 125.462C113.123 125.462 112.017 126.204 112.017 128.262C112.017 130.264 113.123 131.062 114.271 131.062ZM120.263 122.578H121.537V124.468H122.965V125.49H121.537V129.956C121.537 130.74 121.593 130.936 122.321 130.936H122.965V132H122.041C120.599 132 120.263 131.678 120.263 130.11V125.49H119.073V124.468H120.263V122.578Z" fill="#989A9B"/>
<path d="M527 152.5H34C33.1716 152.5 32.5 153.172 32.5 154V192C32.5 192.828 33.1716 193.5 34 193.5H527C527.828 193.5 528.5 192.828 528.5 192V154C528.5 153.172 527.828 152.5 527 152.5Z" fill="#080F11"/>
<path d="M527 152.5H34C33.1716 152.5 32.5 153.172 32.5 154V192C32.5 192.828 33.1716 193.5 34 193.5H527C527.828 193.5 528.5 192.828 528.5 192V154C528.5 153.172 527.828 152.5 527 152.5Z" stroke="#292F31"/>
<path d="M46.452 167.668C48.272 167.668 49.91 168.48 50.302 170.44H48.916C48.566 169.264 47.418 168.872 46.396 168.872C45.612 168.872 44.24 169.222 44.24 170.356C44.24 171.252 44.954 171.7 45.892 171.91L47.068 172.176C48.622 172.512 50.484 173.1 50.484 175.144C50.484 177.132 48.636 178.182 46.62 178.182C44.226 178.182 42.714 176.88 42.448 174.85H43.848C44.114 176.25 45.094 176.978 46.648 176.978C48.146 176.978 49.014 176.264 49.014 175.27C49.014 174.206 48.104 173.758 46.83 173.478L45.57 173.212C44.184 172.904 42.784 172.134 42.784 170.44C42.784 168.508 44.814 167.668 46.452 167.668ZM59.4758 174.262C59.4758 176.992 57.6138 178.182 55.8638 178.182C54.1138 178.182 52.2518 176.992 52.2518 174.262C52.2518 171.532 54.1138 170.342 55.8638 170.342C57.6138 170.342 59.4758 171.532 59.4758 174.262ZM55.8638 177.062C57.0118 177.062 58.1178 176.194 58.1178 174.262C58.1178 172.26 57.0118 171.462 55.8638 171.462C54.7158 171.462 53.6098 172.204 53.6098 174.262C53.6098 176.264 54.7158 177.062 55.8638 177.062ZM66.2216 176.922C65.7876 177.636 65.1016 178.182 63.8556 178.182C62.1056 178.182 61.4476 177.006 61.4476 175.284V170.468H62.7216V174.906C62.7216 176.068 62.9176 177.076 64.3036 177.076C65.5076 177.076 66.2216 176.222 66.2216 174.612V170.468H67.4956V178H66.2216V176.922ZM73.8287 171.798C73.5627 171.77 73.3247 171.742 73.1147 171.742C71.9387 171.742 71.3507 172.4 71.3507 174.052V178H70.0767V170.468H71.3227V171.784C71.7007 170.93 72.4707 170.454 73.4507 170.426C73.5767 170.426 73.6887 170.426 73.8287 170.44V171.798ZM81.7485 172.988H80.4605C80.2785 172.092 79.4945 171.462 78.5145 171.462C77.3805 171.462 76.3445 172.344 76.3445 174.234C76.3445 176.152 77.3945 177.062 78.5145 177.062C79.5785 177.062 80.3345 176.348 80.5165 175.55H81.8325C81.5805 176.964 80.2225 178.182 78.4725 178.182C76.3165 178.182 74.9585 176.544 74.9585 174.248C74.9585 172.008 76.3725 170.342 78.5985 170.342C80.4185 170.342 81.5805 171.714 81.7485 172.988ZM84.7518 174.654C84.8078 176.278 85.9558 177.062 87.0758 177.062C88.1958 177.062 88.8118 176.558 89.1338 175.816H90.4498C90.0998 177.118 88.9098 178.182 87.0758 178.182C84.6958 178.182 83.3798 176.474 83.3798 174.248C83.3798 171.868 84.9758 170.342 87.0338 170.342C89.3298 170.342 90.7158 172.274 90.5478 174.654H84.7518ZM84.7658 173.562H89.2038C89.1758 172.498 88.3778 171.434 87.0338 171.434C85.8998 171.434 84.8778 172.05 84.7658 173.562ZM97.7489 167.85V169.39H96.4749V167.85H97.7489ZM97.7489 170.468V178H96.4749V170.468H97.7489ZM101.604 178H100.33V170.468H101.604V171.602C102.038 170.888 102.738 170.342 103.872 170.342C105.02 170.342 105.706 170.846 106.042 171.672C106.644 170.748 107.526 170.342 108.576 170.342C110.326 170.342 111.012 171.518 111.012 173.24V178H109.738V173.618C109.738 172.456 109.514 171.448 108.128 171.448C107.036 171.448 106.308 172.302 106.308 173.912V178H105.034V173.618C105.034 172.456 104.81 171.448 103.424 171.448C102.332 171.448 101.604 172.302 101.604 173.912V178ZM113.034 176.012C113.034 174.234 115.036 173.716 118.13 173.366V173.184C118.13 171.812 117.36 171.35 116.422 171.35C115.372 171.35 114.756 171.924 114.7 172.848H113.384C113.51 171.224 114.938 170.314 116.408 170.314C118.48 170.314 119.418 171.308 119.404 173.422L119.39 175.158C119.376 176.418 119.446 177.286 119.586 178H118.298C118.256 177.72 118.214 177.412 118.2 176.964C117.738 177.734 116.954 178.182 115.624 178.182C114.21 178.182 113.034 177.398 113.034 176.012ZM118.228 174.374C115.918 174.612 114.448 174.948 114.448 175.984C114.448 176.698 114.994 177.174 115.904 177.174C117.094 177.174 118.228 176.628 118.228 174.85V174.374ZM126.93 170.468H128.204V176.992C128.204 178.532 127.924 179.162 127.49 179.638C126.944 180.268 126.006 180.632 124.886 180.632C123.178 180.632 122.03 179.848 121.792 178.322H123.15C123.318 178.994 123.724 179.512 124.9 179.512C125.586 179.512 126.104 179.316 126.44 178.952C126.72 178.658 126.93 178.308 126.93 177.286V176.572C126.468 177.37 125.74 177.874 124.536 177.874C122.87 177.874 121.344 176.53 121.344 174.108C121.344 171.7 122.87 170.342 124.536 170.342C125.74 170.342 126.468 170.86 126.93 171.658V170.468ZM124.858 171.434C123.612 171.434 122.73 172.4 122.73 174.108C122.73 175.83 123.612 176.796 124.858 176.796C125.992 176.796 126.986 176.026 126.986 174.108C126.986 172.204 125.992 171.434 124.858 171.434ZM131.629 174.654C131.685 176.278 132.833 177.062 133.953 177.062C135.073 177.062 135.689 176.558 136.011 175.816H137.327C136.977 177.118 135.787 178.182 133.953 178.182C131.573 178.182 130.257 176.474 130.257 174.248C130.257 171.868 131.853 170.342 133.911 170.342C136.207 170.342 137.593 172.274 137.425 174.654H131.629ZM131.643 173.562H136.081C136.053 172.498 135.255 171.434 133.911 171.434C132.777 171.434 131.755 172.05 131.643 173.562Z" fill="#626668"/>
<path d="M35.892 222.85C39.112 222.85 41.492 224.012 41.492 227.918C41.492 231.838 39.112 233 35.892 233H33.12V222.85H35.892ZM35.822 224.166H34.716V231.684H35.822C37.852 231.684 39.84 231.264 39.84 227.918C39.84 224.586 37.852 224.166 35.822 224.166ZM45.1405 222.85V224.46H43.6845V222.85H45.1405ZM45.1405 225.468V233H43.6845V225.468H45.1405ZM51.9465 227.568C51.7365 226.798 51.0925 226.49 50.2385 226.49C49.5245 226.49 48.7545 226.784 48.7545 227.4C48.7545 227.96 49.1185 228.198 49.8045 228.338L50.8825 228.548C52.3105 228.828 53.5565 229.318 53.5565 230.788C53.5565 232.314 52.1285 233.182 50.3925 233.182C48.4885 233.182 47.3265 232.076 47.1445 230.662H48.6285C48.8245 231.516 49.3845 232.02 50.4345 232.02C51.3725 232.02 52.1005 231.628 52.1005 230.956C52.1005 230.256 51.4425 229.976 50.6585 229.822L49.5245 229.598C48.3905 229.374 47.3265 228.87 47.3265 227.456C47.3265 226.126 48.7265 225.314 50.3785 225.314C51.8905 225.314 53.1085 226.112 53.3885 227.568H51.9465ZM57.034 222.85V228.688L60.03 225.468H61.808L58.882 228.576L62.018 233H60.282L57.888 229.626L57.034 230.536V233H55.578V222.85H57.034ZM71.523 227.568C71.313 226.798 70.669 226.49 69.815 226.49C69.101 226.49 68.331 226.784 68.331 227.4C68.331 227.96 68.695 228.198 69.381 228.338L70.459 228.548C71.887 228.828 73.133 229.318 73.133 230.788C73.133 232.314 71.705 233.182 69.969 233.182C68.065 233.182 66.903 232.076 66.721 230.662H68.205C68.401 231.516 68.961 232.02 70.011 232.02C70.949 232.02 71.677 231.628 71.677 230.956C71.677 230.256 71.019 229.976 70.235 229.822L69.101 229.598C67.967 229.374 66.903 228.87 66.903 227.456C66.903 226.126 68.303 225.314 69.955 225.314C71.467 225.314 72.685 226.112 72.965 227.568H71.523ZM76.6105 222.85V224.46H75.1545V222.85H76.6105ZM76.6105 225.468V233H75.1545V225.468H76.6105ZM78.5724 231.81L82.7724 226.658H78.8524V225.468H84.5364V226.658L80.3364 231.81H84.6204V233H78.5724V231.81ZM91.7214 230.788H93.1914C92.8414 232.034 91.7214 233.182 89.8034 233.182C87.3674 233.182 86.0514 231.404 86.0514 229.22C86.0514 226.882 87.6194 225.328 89.7614 225.328C92.0854 225.328 93.4434 227.232 93.2894 229.682H87.5494C87.6894 231.068 88.5714 231.936 89.7474 231.936C90.7974 231.936 91.4134 231.502 91.7214 230.788ZM87.5774 228.534H91.7774C91.7354 227.414 90.9514 226.518 89.7474 226.518C88.6134 226.518 87.7734 227.106 87.5774 228.534Z" fill="#E7E7E8"/>
<path d="M100.38 222.85H101.43C100.506 224.348 99.764 226.504 99.764 229.15C99.764 231.782 100.506 233.952 101.43 235.45H100.38C99.526 234.232 98.448 231.978 98.448 229.15C98.448 226.308 99.526 224.068 100.38 222.85ZM111.624 225.804H110.238C109.902 224.67 108.978 223.872 107.354 223.872C105.562 223.872 104.162 225.272 104.162 227.904C104.162 230.466 105.478 231.978 107.354 231.978C108.712 231.978 110.35 231.418 110.35 229.318V229.052H107.662V227.82H111.694V233H110.574L110.504 231.726C109.846 232.762 108.656 233.182 107.298 233.182C104.372 233.182 102.706 230.998 102.706 227.904C102.706 224.754 104.568 222.668 107.424 222.668C109.524 222.668 111.204 223.844 111.624 225.804ZM115.607 222.85V224.39H114.333V222.85H115.607ZM115.607 225.468V233H114.333V225.468H115.607ZM118.384 222.85H122.038C123.928 222.85 125.608 223.34 125.608 225.356C125.608 226.322 125.188 227.19 124.488 227.596C125.454 228.002 126.028 228.758 126.028 230.004C126.028 232.16 124.418 233 122.388 233H118.384V222.85ZM119.812 227.19H122.262C123.424 227.19 124.166 226.742 124.166 225.552C124.166 224.516 123.396 224.054 122.262 224.054H119.812V227.19ZM119.812 231.796H122.402C123.844 231.796 124.558 231.166 124.558 230.018C124.558 228.828 123.844 228.324 122.318 228.324H119.812V231.796ZM128.196 235.45H127.146C128.07 233.952 128.812 231.782 128.812 229.15C128.812 226.504 128.07 224.348 127.146 222.85H128.196C129.05 224.068 130.128 226.308 130.128 229.15C130.128 231.978 129.05 234.232 128.196 235.45Z" fill="#A1A4A5"/>
<path d="M527 245H34C32.8954 245 32 245.895 32 247V285C32 286.105 32.8954 287 34 287H527C528.105 287 529 286.105 529 285V247C529 245.895 528.105 245 527 245Z" fill="#080F11"/>
<path d="M527 245.5H34C33.1716 245.5 32.5 246.172 32.5 247V285C32.5 285.828 33.1716 286.5 34 286.5H527C527.828 286.5 528.5 285.828 528.5 285V247C528.5 246.172 527.828 245.5 527 245.5Z" stroke="#292F31"/>
<path d="M48.496 267.668C48.496 265.988 47.32 265.26 46.214 265.26C45.164 265.26 44.478 265.876 44.254 266.38L42.98 266.31L43.638 260.85H49.462V262.04H44.674L44.324 264.924C44.856 264.406 45.668 264.154 46.508 264.154C48.286 264.154 49.84 265.414 49.84 267.654C49.84 269.978 48.118 271.182 46.228 271.182C43.876 271.182 42.812 269.698 42.616 268.06H43.932C44.128 269.334 44.814 270.118 46.228 270.118C47.446 270.118 48.496 269.236 48.496 267.668ZM55.6839 271.182C52.9819 271.182 51.7359 269.138 51.7359 265.918C51.7359 262.712 52.9819 260.668 55.6839 260.668C58.3859 260.668 59.6319 262.712 59.6319 265.918C59.6319 269.138 58.3859 271.182 55.6839 271.182ZM55.6839 261.732C54.0879 261.732 53.0939 263.104 53.0939 265.918C53.0939 268.746 54.0879 270.118 55.6839 270.118C57.2799 270.118 58.2739 268.746 58.2739 265.918C58.2739 263.104 57.2799 261.732 55.6839 261.732ZM65.4998 271.182C62.7978 271.182 61.5518 269.138 61.5518 265.918C61.5518 262.712 62.7978 260.668 65.4998 260.668C68.2018 260.668 69.4478 262.712 69.4478 265.918C69.4478 269.138 68.2018 271.182 65.4998 271.182ZM65.4998 261.732C63.9038 261.732 62.9098 263.104 62.9098 265.918C62.9098 268.746 63.9038 270.118 65.4998 270.118C67.0958 270.118 68.0898 268.746 68.0898 265.918C68.0898 263.104 67.0958 261.732 65.4998 261.732Z" fill="#E7E7E8"/>
</g>
</g>
<defs>
<clipPath id="clip0_128_26">
<rect width="395" height="320" fill="white"/>
</clipPath>
</defs>
</svg>
