<svg width="250" height="250" viewBox="0 0 250 250" fill="none" xmlns="http://www.w3.org/2000/svg">
<path d="M22.996 125.554C22.086 125.554 21.19 126.058 20.924 127.318L21.946 127.43C22.1 126.884 22.45 126.604 23.024 126.604C23.92 126.604 24.41 127.682 25.712 127.682C26.552 127.682 27.406 127.192 27.756 125.834L26.818 125.61C26.608 126.338 26.272 126.632 25.754 126.632C24.858 126.632 24.312 125.554 22.996 125.554ZM36.1296 126.94V125.932L29.6196 123.062V124.168L34.8136 126.422L29.6196 128.676V129.81L36.1296 126.94ZM22.996 220.554C22.086 220.554 21.19 221.058 20.924 222.318L21.946 222.43C22.1 221.884 22.45 221.604 23.024 221.604C23.92 221.604 24.41 222.682 25.712 222.682C26.552 222.682 27.406 222.192 27.756 220.834L26.818 220.61C26.608 221.338 26.272 221.632 25.754 221.632C24.858 221.632 24.312 220.554 22.996 220.554ZM36.1296 221.94V220.932L29.6196 218.062V219.168L34.8136 221.422L29.6196 223.676V224.81L36.1296 221.94Z" fill="#626668"/>
<path d="M48.8589 124.98V128.76C48.8589 130.286 49.6569 131.126 51.4069 131.126C52.0229 131.126 52.4149 131.042 52.7789 130.944V129.852C52.3449 129.936 51.8549 129.978 51.3929 129.978C50.4969 129.978 50.0489 129.446 50.0489 128.452V124.98H52.7789V124H50.0489V121.662L48.8589 122.166V124H46.8569V124.98H48.8589ZM61.4466 127.276C61.4466 125.372 60.6206 123.832 58.4786 123.832C56.5186 123.832 55.2866 125.218 55.2866 127.36C55.2866 129.656 56.3646 131.168 58.5626 131.168C59.8786 131.168 60.8306 130.566 61.4186 129.404L60.4106 128.872C60.0606 129.544 59.4866 130.118 58.5626 130.118C57.2606 130.118 56.5046 129.124 56.5046 127.808H61.4186C61.4326 127.626 61.4466 127.444 61.4466 127.276ZM56.5046 126.828C56.5046 125.806 57.1486 124.756 58.4226 124.756C59.6826 124.756 60.2426 125.708 60.2146 126.828H56.5046ZM65.8442 124H64.6682V131H65.8582V128.396C65.8582 126.114 67.2022 124.938 68.8822 124.938C69.3862 124.938 69.9042 125.008 70.1842 125.078V123.972C69.8902 123.888 69.4282 123.832 68.9242 123.832C67.4682 123.832 66.3202 124.714 65.8442 125.82V124ZM74.3858 124H73.2098V131H74.3998V128.396C74.3998 126.114 75.7438 124.938 77.4238 124.938C77.9278 124.938 78.4458 125.008 78.7258 125.078V123.972C78.4318 123.888 77.9698 123.832 77.4658 123.832C76.0098 123.832 74.8618 124.714 74.3858 125.82V124ZM86.7775 126.744C86.7775 124.728 85.9655 123.832 84.1595 123.832C82.3815 123.832 81.2895 124.7 81.1635 126.198H82.4375C82.4935 125.316 83.0815 124.812 84.0755 124.812C85.1115 124.812 85.5735 125.358 85.5735 126.604V126.73L84.2995 126.884C83.1375 127.024 82.3815 127.206 81.9195 127.458C81.2755 127.822 80.9395 128.382 80.9395 129.11C80.9395 130.314 81.9055 131.168 83.2915 131.168C84.4395 131.168 85.1955 130.706 85.6575 129.726C85.6715 130.146 85.7135 130.608 85.7695 131H87.0155C86.8475 130.482 86.7775 129.754 86.7775 128.634V126.744ZM85.5875 127.948C85.5875 129.32 84.7755 130.188 83.5155 130.188C82.6895 130.188 82.1995 129.754 82.1995 129.04C82.1995 128.34 82.7035 127.99 83.9215 127.822L85.5875 127.598V127.948ZM92.9391 124V123.314C92.9391 122.25 93.3171 121.886 94.3811 121.886C94.9131 121.886 95.2911 121.956 95.5991 121.998V120.948C95.1231 120.85 94.7871 120.808 94.3811 120.808C92.6451 120.808 91.7491 121.634 91.7491 123.23V124H89.6071V124.966H91.7491V131H92.9391V124.966H95.5991V124H92.9391ZM101.215 131.168C103.175 131.168 104.477 129.726 104.477 127.5C104.477 125.274 103.175 123.832 101.215 123.832C99.2548 123.832 97.9528 125.274 97.9528 127.5C97.9528 129.698 99.2548 131.168 101.215 131.168ZM101.215 130.132C99.9548 130.132 99.2128 129.152 99.2128 127.5C99.2128 125.848 99.9548 124.868 101.215 124.868C102.475 124.868 103.217 125.862 103.217 127.5C103.217 129.152 102.475 130.132 101.215 130.132ZM108.552 124H107.376V131H108.566V128.396C108.566 126.114 109.91 124.938 111.59 124.938C112.094 124.938 112.612 125.008 112.892 125.078V123.972C112.598 123.888 112.136 123.832 111.632 123.832C110.176 123.832 109.028 124.714 108.552 125.82V124ZM115.708 124H114.588V131H115.778V126.366C115.778 125.526 116.058 124.882 116.87 124.882C117.318 124.882 117.696 125.162 117.696 126.016V131H118.858V126.366C118.858 125.484 119.152 124.882 119.978 124.882C120.384 124.882 120.804 125.12 120.804 126.016V131H121.994V125.918C121.994 124.434 121.21 123.832 120.342 123.832C119.656 123.832 119.026 124.294 118.69 125.106C118.452 124.294 117.92 123.832 117.234 123.832C116.534 123.832 115.988 124.322 115.708 125.078V124ZM136.347 122.6V120.92H134.667V122.6H136.347ZM138.587 131V130.02H136.221V124H133.001V124.98H135.031V130.02H132.791V131H138.587ZM142.145 124H141.025V131H142.215V127.346C142.215 126.352 142.593 124.882 144.175 124.882C144.875 124.882 145.631 125.218 145.631 126.744V131H146.821V126.674C146.821 125.54 146.611 124.868 146.149 124.434C145.673 123.986 145.029 123.832 144.455 123.832C143.279 123.832 142.509 124.504 142.145 125.386V124ZM153.431 122.6V120.92H151.751V122.6H153.431ZM155.671 131V130.02H153.305V124H150.085V124.98H152.115V130.02H149.875V131H155.671ZM159.9 124.98V128.76C159.9 130.286 160.698 131.126 162.448 131.126C163.064 131.126 163.456 131.042 163.82 130.944V129.852C163.386 129.936 162.896 129.978 162.434 129.978C161.538 129.978 161.09 129.446 161.09 128.452V124.98H163.82V124H161.09V121.662L159.9 122.166V124H157.898V124.98H159.9ZM48.8589 219.98V223.76C48.8589 225.286 49.6569 226.126 51.4069 226.126C52.0229 226.126 52.4149 226.042 52.7789 225.944V224.852C52.3449 224.936 51.8549 224.978 51.3929 224.978C50.4969 224.978 50.0489 224.446 50.0489 223.452V219.98H52.7789V219H50.0489V216.662L48.8589 217.166V219H46.8569V219.98H48.8589ZM61.4466 222.276C61.4466 220.372 60.6206 218.832 58.4786 218.832C56.5186 218.832 55.2866 220.218 55.2866 222.36C55.2866 224.656 56.3646 226.168 58.5626 226.168C59.8786 226.168 60.8306 225.566 61.4186 224.404L60.4106 223.872C60.0606 224.544 59.4866 225.118 58.5626 225.118C57.2606 225.118 56.5046 224.124 56.5046 222.808H61.4186C61.4326 222.626 61.4466 222.444 61.4466 222.276ZM56.5046 221.828C56.5046 220.806 57.1486 219.756 58.4226 219.756C59.6826 219.756 60.2426 220.708 60.2146 221.828H56.5046ZM65.8442 219H64.6682V226H65.8582V223.396C65.8582 221.114 67.2022 219.938 68.8822 219.938C69.3862 219.938 69.9042 220.008 70.1842 220.078V218.972C69.8902 218.888 69.4282 218.832 68.9242 218.832C67.4682 218.832 66.3202 219.714 65.8442 220.82V219ZM74.3858 219H73.2098V226H74.3998V223.396C74.3998 221.114 75.7438 219.938 77.4238 219.938C77.9278 219.938 78.4458 220.008 78.7258 220.078V218.972C78.4318 218.888 77.9698 218.832 77.4658 218.832C76.0098 218.832 74.8618 219.714 74.3858 220.82V219ZM86.7775 221.744C86.7775 219.728 85.9655 218.832 84.1595 218.832C82.3815 218.832 81.2895 219.7 81.1635 221.198H82.4375C82.4935 220.316 83.0815 219.812 84.0755 219.812C85.1115 219.812 85.5735 220.358 85.5735 221.604V221.73L84.2995 221.884C83.1375 222.024 82.3815 222.206 81.9195 222.458C81.2755 222.822 80.9395 223.382 80.9395 224.11C80.9395 225.314 81.9055 226.168 83.2915 226.168C84.4395 226.168 85.1955 225.706 85.6575 224.726C85.6715 225.146 85.7135 225.608 85.7695 226H87.0155C86.8475 225.482 86.7775 224.754 86.7775 223.634V221.744ZM85.5875 222.948C85.5875 224.32 84.7755 225.188 83.5155 225.188C82.6895 225.188 82.1995 224.754 82.1995 224.04C82.1995 223.34 82.7035 222.99 83.9215 222.822L85.5875 222.598V222.948ZM92.9391 219V218.314C92.9391 217.25 93.3171 216.886 94.3811 216.886C94.9131 216.886 95.2911 216.956 95.5991 216.998V215.948C95.1231 215.85 94.7871 215.808 94.3811 215.808C92.6451 215.808 91.7491 216.634 91.7491 218.23V219H89.6071V219.966H91.7491V226H92.9391V219.966H95.5991V219H92.9391ZM101.215 226.168C103.175 226.168 104.477 224.726 104.477 222.5C104.477 220.274 103.175 218.832 101.215 218.832C99.2548 218.832 97.9528 220.274 97.9528 222.5C97.9528 224.698 99.2548 226.168 101.215 226.168ZM101.215 225.132C99.9548 225.132 99.2128 224.152 99.2128 222.5C99.2128 220.848 99.9548 219.868 101.215 219.868C102.475 219.868 103.217 220.862 103.217 222.5C103.217 224.152 102.475 225.132 101.215 225.132ZM108.552 219H107.376V226H108.566V223.396C108.566 221.114 109.91 219.938 111.59 219.938C112.094 219.938 112.612 220.008 112.892 220.078V218.972C112.598 218.888 112.136 218.832 111.632 218.832C110.176 218.832 109.028 219.714 108.552 220.82V219ZM115.708 219H114.588V226H115.778V221.366C115.778 220.526 116.058 219.882 116.87 219.882C117.318 219.882 117.696 220.162 117.696 221.016V226H118.858V221.366C118.858 220.484 119.152 219.882 119.978 219.882C120.384 219.882 120.804 220.12 120.804 221.016V226H121.994V220.918C121.994 219.434 121.21 218.832 120.342 218.832C119.656 218.832 119.026 219.294 118.69 220.106C118.452 219.294 117.92 218.832 117.234 218.832C116.534 218.832 115.988 219.322 115.708 220.078V219ZM138.027 221.744C138.027 219.728 137.215 218.832 135.409 218.832C133.631 218.832 132.539 219.7 132.413 221.198H133.687C133.743 220.316 134.331 219.812 135.325 219.812C136.361 219.812 136.823 220.358 136.823 221.604V221.73L135.549 221.884C134.387 222.024 133.631 222.206 133.169 222.458C132.525 222.822 132.189 223.382 132.189 224.11C132.189 225.314 133.155 226.168 134.541 226.168C135.689 226.168 136.445 225.706 136.907 224.726C136.921 225.146 136.963 225.608 137.019 226H138.265C138.097 225.482 138.027 224.754 138.027 223.634V221.744ZM136.837 222.948C136.837 224.32 136.025 225.188 134.765 225.188C133.939 225.188 133.449 224.754 133.449 224.04C133.449 223.34 133.953 222.99 135.171 222.822L136.837 222.598V222.948ZM141.151 219V228.73H142.341V224.894C142.663 225.636 143.531 226.168 144.399 226.168C146.261 226.168 147.381 224.67 147.381 222.486C147.381 220.358 146.303 218.832 144.469 218.832C143.475 218.832 142.635 219.532 142.271 220.302V219H141.151ZM142.313 222.318C142.313 220.82 143.069 219.882 144.245 219.882C145.477 219.882 146.121 220.932 146.121 222.486C146.121 224.082 145.421 225.118 144.203 225.118C143.027 225.118 142.313 224.138 142.313 222.654V222.318ZM149.693 219V228.73H150.883V224.894C151.205 225.636 152.073 226.168 152.941 226.168C154.803 226.168 155.923 224.67 155.923 222.486C155.923 220.358 154.845 218.832 153.011 218.832C152.017 218.832 151.177 219.532 150.813 220.302V219H149.693ZM150.855 222.318C150.855 220.82 151.611 219.882 152.787 219.882C154.019 219.882 154.663 220.932 154.663 222.486C154.663 224.082 153.963 225.118 152.745 225.118C151.569 225.118 150.855 224.138 150.855 222.654V222.318ZM164.212 226V225.02H161.846V215.85H158.556V216.83H160.656V225.02H158.416V226H164.212Z" fill="#E7E7E8"/>
<path d="M27.476 140.06H21.204V141.11H23.682V148.95H21.204V150H27.476V148.95H24.984V141.11H27.476V140.06ZM31.1036 143H29.9836V150H31.1736V146.346C31.1736 145.352 31.5516 143.882 33.1336 143.882C33.8336 143.882 34.5896 144.218 34.5896 145.744V150H35.7796V145.674C35.7796 144.54 35.5696 143.868 35.1076 143.434C34.6316 142.986 33.9876 142.832 33.4136 142.832C32.2376 142.832 31.4676 143.504 31.1036 144.386V143ZM42.3893 141.6V139.92H40.7093V141.6H42.3893ZM44.6293 150V149.02H42.2633V143H39.0433V143.98H41.0733V149.02H38.8333V150H44.6293ZM48.8589 143.98V147.76C48.8589 149.286 49.6569 150.126 51.4069 150.126C52.0229 150.126 52.4149 150.042 52.7789 149.944V148.852C52.3449 148.936 51.8549 148.978 51.3929 148.978C50.4969 148.978 50.0489 148.446 50.0489 147.452V143.98H52.7789V143H50.0489V140.662L48.8589 141.166V143H46.8569V143.98H48.8589ZM64.4582 143H63.3382V150H64.5282V145.366C64.5282 144.526 64.8082 143.882 65.6202 143.882C66.0682 143.882 66.4462 144.162 66.4462 145.016V150H67.6082V145.366C67.6082 144.484 67.9022 143.882 68.7282 143.882C69.1342 143.882 69.5542 144.12 69.5542 145.016V150H70.7442V144.918C70.7442 143.434 69.9602 142.832 69.0922 142.832C68.4062 142.832 67.7762 143.294 67.4402 144.106C67.2022 143.294 66.6702 142.832 65.9842 142.832C65.2842 142.832 64.7382 143.322 64.4582 144.078V143ZM75.5898 150.168C77.5498 150.168 78.8518 148.726 78.8518 146.5C78.8518 144.274 77.5498 142.832 75.5898 142.832C73.6298 142.832 72.3278 144.274 72.3278 146.5C72.3278 148.698 73.6298 150.168 75.5898 150.168ZM75.5898 149.132C74.3298 149.132 73.5878 148.152 73.5878 146.5C73.5878 144.848 74.3298 143.868 75.5898 143.868C76.8498 143.868 77.5918 144.862 77.5918 146.5C77.5918 148.152 76.8498 149.132 75.5898 149.132ZM85.6435 144.036C85.2935 143.35 84.6215 142.832 83.6695 142.832C81.8215 142.832 80.6035 144.288 80.6035 146.486C80.6035 148.712 81.7375 150.168 83.4875 150.168C84.6355 150.168 85.2935 149.608 85.7135 148.698V150H86.8335V139.85H85.6435V144.036ZM85.6715 146.654C85.6715 148.166 84.9295 149.118 83.7395 149.118C82.5775 149.118 81.8635 148.11 81.8635 146.486C81.8635 144.848 82.5775 143.882 83.7815 143.882C84.9435 143.882 85.6715 144.834 85.6715 146.332V146.654ZM94.3111 150H95.4311V143H94.2411V146.654C94.2411 147.676 93.8911 149.146 92.4211 149.146C91.6931 149.146 90.9651 148.81 90.9651 147.284V143H89.7471V147.326C89.7471 148.46 89.9431 149.118 90.3911 149.552C90.8811 150.014 91.5391 150.168 92.1831 150.168C93.2191 150.168 94.0451 149.37 94.3111 148.67V150ZM104.421 150V149.02H102.055V139.85H98.7648V140.83H100.865V149.02H98.6248V150H104.421ZM112.696 146.276C112.696 144.372 111.87 142.832 109.728 142.832C107.768 142.832 106.536 144.218 106.536 146.36C106.536 148.656 107.614 150.168 109.812 150.168C111.128 150.168 112.08 149.566 112.668 148.404L111.66 147.872C111.31 148.544 110.736 149.118 109.812 149.118C108.51 149.118 107.754 148.124 107.754 146.808H112.668C112.682 146.626 112.696 146.444 112.696 146.276ZM107.754 145.828C107.754 144.806 108.398 143.756 109.672 143.756C110.932 143.756 111.492 144.708 111.464 145.828H107.754ZM118.452 150.168C120.16 150.168 121.126 149.286 121.126 148.026C121.126 147.004 120.566 146.36 119.306 146.122L117.948 145.87C117.262 145.744 116.87 145.464 116.87 144.876C116.87 144.19 117.416 143.798 118.312 143.798C119.264 143.798 119.81 144.288 119.964 144.988L121.14 144.722C121 143.546 119.936 142.832 118.368 142.832C116.716 142.832 115.708 143.728 115.708 144.932C115.708 145.996 116.38 146.668 117.57 146.892L118.942 147.144C119.572 147.256 119.95 147.508 119.95 148.124C119.95 148.726 119.432 149.188 118.494 149.188C117.472 149.188 116.814 148.684 116.646 147.802L115.442 148.012C115.68 149.398 116.8 150.168 118.452 150.168ZM125.902 148.208V150H127.764V148.208H125.902ZM134.443 148.208V150H136.305V148.208H134.443ZM142.985 148.208V150H144.847V148.208H142.985ZM27.476 159.06H21.204V160.11H23.682V167.95H21.204V169H27.476V167.95H24.984V160.11H27.476V159.06ZM31.1036 162H29.9836V169H31.1736V165.346C31.1736 164.352 31.5516 162.882 33.1336 162.882C33.8336 162.882 34.5896 163.218 34.5896 164.744V169H35.7796V164.674C35.7796 163.54 35.5696 162.868 35.1076 162.434C34.6316 161.986 33.9876 161.832 33.4136 161.832C32.2376 161.832 31.4676 162.504 31.1036 163.386V162ZM42.3893 160.6V158.92H40.7093V160.6H42.3893ZM44.6293 169V168.02H42.2633V162H39.0433V162.98H41.0733V168.02H38.8333V169H44.6293ZM48.8589 162.98V166.76C48.8589 168.286 49.6569 169.126 51.4069 169.126C52.0229 169.126 52.4149 169.042 52.7789 168.944V167.852C52.3449 167.936 51.8549 167.978 51.3929 167.978C50.4969 167.978 50.0489 167.446 50.0489 166.452V162.98H52.7789V162H50.0489V159.662L48.8589 160.166V162H46.8569V162.98H48.8589ZM64.2762 158.85V169H65.1862L65.3962 167.796C65.7742 168.65 66.6422 169.168 67.5802 169.168C69.4002 169.168 70.5062 167.67 70.5062 165.486C70.5062 163.358 69.4282 161.832 67.6222 161.832C66.6842 161.832 65.8442 162.406 65.4662 163.218V158.85H64.2762ZM65.4382 165.332C65.4382 163.82 66.1382 162.882 67.3282 162.882C68.5602 162.882 69.2462 163.932 69.2462 165.486C69.2462 167.082 68.5182 168.118 67.3002 168.118C66.1242 168.118 65.4382 167.152 65.4382 165.696V165.332ZM78.2358 164.744C78.2358 162.728 77.4238 161.832 75.6178 161.832C73.8398 161.832 72.7478 162.7 72.6218 164.198H73.8958C73.9518 163.316 74.5398 162.812 75.5338 162.812C76.5698 162.812 77.0318 163.358 77.0318 164.604V164.73L75.7578 164.884C74.5958 165.024 73.8398 165.206 73.3778 165.458C72.7338 165.822 72.3978 166.382 72.3978 167.11C72.3978 168.314 73.3638 169.168 74.7498 169.168C75.8978 169.168 76.6538 168.706 77.1158 167.726C77.1298 168.146 77.1718 168.608 77.2278 169H78.4738C78.3058 168.482 78.2358 167.754 78.2358 166.634V164.744ZM77.0458 165.948C77.0458 167.32 76.2338 168.188 74.9738 168.188C74.1478 168.188 73.6578 167.754 73.6578 167.04C73.6578 166.34 74.1618 165.99 75.3798 165.822L77.0458 165.598V165.948ZM84.1315 169.168C85.8675 169.168 86.7775 168.048 87.0015 166.62L85.8675 166.438C85.6995 167.502 85.1535 168.118 84.1315 168.118C82.8015 168.118 82.1435 167.04 82.1435 165.444C82.1435 163.904 82.8015 162.868 84.0895 162.868C85.0835 162.868 85.6715 163.442 85.7975 164.478L87.0155 164.338C86.8475 162.728 85.7275 161.832 84.1735 161.832C81.9755 161.832 80.9115 163.372 80.9115 165.458C80.9115 167.558 82.0035 169.168 84.1315 169.168ZM96.0471 169L93.3171 164.702L95.8791 162H94.3251L91.1891 165.444V158.85H89.9991V169H91.1891V166.858L92.4631 165.57L94.5771 169H96.0471ZM104.155 165.276C104.155 163.372 103.329 161.832 101.187 161.832C99.2268 161.832 97.9948 163.218 97.9948 165.36C97.9948 167.656 99.0728 169.168 101.271 169.168C102.587 169.168 103.539 168.566 104.127 167.404L103.119 166.872C102.769 167.544 102.195 168.118 101.271 168.118C99.9688 168.118 99.2128 167.124 99.2128 165.808H104.127C104.141 165.626 104.155 165.444 104.155 165.276ZM99.2128 164.828C99.2128 163.806 99.8568 162.756 101.131 162.756C102.391 162.756 102.951 163.708 102.923 164.828H99.2128ZM107.978 162H106.858V169H108.048V165.346C108.048 164.352 108.426 162.882 110.008 162.882C110.708 162.882 111.464 163.218 111.464 164.744V169H112.654V164.674C112.654 163.54 112.444 162.868 111.982 162.434C111.506 161.986 110.862 161.832 110.288 161.832C109.112 161.832 108.342 162.504 107.978 163.386V162ZM119.81 163.036C119.46 162.35 118.788 161.832 117.836 161.832C115.988 161.832 114.77 163.288 114.77 165.486C114.77 167.712 115.904 169.168 117.654 169.168C118.802 169.168 119.46 168.608 119.88 167.698V169H121V158.85H119.81V163.036ZM119.838 165.654C119.838 167.166 119.096 168.118 117.906 168.118C116.744 168.118 116.03 167.11 116.03 165.486C116.03 163.848 116.744 162.882 117.948 162.882C119.11 162.882 119.838 163.834 119.838 165.332V165.654ZM125.902 167.208V169H127.764V167.208H125.902ZM134.443 167.208V169H136.305V167.208H134.443ZM142.985 167.208V169H144.847V167.208H142.985Z" fill="#6F7274"/>
<path d="M24.452 188.238C26.818 188.238 27.798 186.782 27.798 185.382C27.798 183.464 26.538 182.876 25.208 182.526L23.934 182.19C23.094 181.952 22.408 181.392 22.408 180.51C22.408 179.768 22.828 178.914 24.284 178.914C25.348 178.914 26.356 179.404 26.482 180.972L27.728 180.608C27.532 178.578 26.062 177.822 24.242 177.822C22.31 177.822 21.078 179.152 21.078 180.622C21.078 182.162 22.128 183.002 23.528 183.38L24.858 183.73C25.642 183.94 26.468 184.248 26.468 185.564C26.468 186.824 25.376 187.146 24.438 187.146C22.926 187.146 22.254 186.082 22.03 184.892L20.77 185.144C21.008 186.782 22.058 188.238 24.452 188.238ZM34.5196 188H35.6396V181H34.4496V184.654C34.4496 185.676 34.0996 187.146 32.6296 187.146C31.9016 187.146 31.1736 186.81 31.1736 185.284V181H29.9556V185.326C29.9556 186.46 30.1516 187.118 30.5996 187.552C31.0896 188.014 31.7476 188.168 32.3916 188.168C33.4276 188.168 34.2536 187.37 34.5196 186.67V188ZM41.4233 188.168C43.1593 188.168 44.0693 187.048 44.2933 185.62L43.1593 185.438C42.9913 186.502 42.4453 187.118 41.4233 187.118C40.0933 187.118 39.4353 186.04 39.4353 184.444C39.4353 182.904 40.0933 181.868 41.3813 181.868C42.3753 181.868 42.9633 182.442 43.0893 183.478L44.3073 183.338C44.1393 181.728 43.0193 180.832 41.4653 180.832C39.2673 180.832 38.2033 182.372 38.2033 184.458C38.2033 186.558 39.2953 188.168 41.4233 188.168ZM49.9649 188.168C51.7009 188.168 52.6109 187.048 52.8349 185.62L51.7009 185.438C51.5329 186.502 50.9869 187.118 49.9649 187.118C48.6349 187.118 47.9769 186.04 47.9769 184.444C47.9769 182.904 48.6349 181.868 49.9229 181.868C50.9169 181.868 51.5049 182.442 51.6309 183.478L52.8489 183.338C52.6809 181.728 51.5609 180.832 50.0069 180.832C47.8089 180.832 46.7449 182.372 46.7449 184.458C46.7449 186.558 47.8369 188.168 49.9649 188.168ZM61.4466 184.276C61.4466 182.372 60.6206 180.832 58.4786 180.832C56.5186 180.832 55.2866 182.218 55.2866 184.36C55.2866 186.656 56.3646 188.168 58.5626 188.168C59.8786 188.168 60.8306 187.566 61.4186 186.404L60.4106 185.872C60.0606 186.544 59.4866 187.118 58.5626 187.118C57.2606 187.118 56.5046 186.124 56.5046 184.808H61.4186C61.4326 184.626 61.4466 184.444 61.4466 184.276ZM56.5046 183.828C56.5046 182.806 57.1486 181.756 58.4226 181.756C59.6826 181.756 60.2426 182.708 60.2146 183.828H56.5046ZM67.2022 188.168C68.9102 188.168 69.8762 187.286 69.8762 186.026C69.8762 185.004 69.3162 184.36 68.0562 184.122L66.6982 183.87C66.0122 183.744 65.6202 183.464 65.6202 182.876C65.6202 182.19 66.1662 181.798 67.0622 181.798C68.0142 181.798 68.5602 182.288 68.7142 182.988L69.8902 182.722C69.7502 181.546 68.6862 180.832 67.1182 180.832C65.4662 180.832 64.4582 181.728 64.4582 182.932C64.4582 183.996 65.1302 184.668 66.3202 184.892L67.6922 185.144C68.3222 185.256 68.7002 185.508 68.7002 186.124C68.7002 186.726 68.1822 187.188 67.2442 187.188C66.2222 187.188 65.5642 186.684 65.3962 185.802L64.1922 186.012C64.4302 187.398 65.5502 188.168 67.2022 188.168ZM75.7438 188.168C77.4518 188.168 78.4178 187.286 78.4178 186.026C78.4178 185.004 77.8578 184.36 76.5978 184.122L75.2398 183.87C74.5538 183.744 74.1618 183.464 74.1618 182.876C74.1618 182.19 74.7078 181.798 75.6038 181.798C76.5558 181.798 77.1018 182.288 77.2558 182.988L78.4318 182.722C78.2918 181.546 77.2278 180.832 75.6598 180.832C74.0078 180.832 72.9998 181.728 72.9998 182.932C72.9998 183.996 73.6718 184.668 74.8618 184.892L76.2338 185.144C76.8638 185.256 77.2418 185.508 77.2418 186.124C77.2418 186.726 76.7238 187.188 75.7858 187.188C74.7638 187.188 74.1058 186.684 73.9378 185.802L72.7338 186.012C72.9718 187.398 74.0918 188.168 75.7438 188.168Z" fill="#F5B944"/>
<path d="M172.684 228.8V214.8H166.174V228.8H172.684Z" fill="#3F4446"/>
<path d="M0 32.5H250" stroke="#292F31"/>
<path d="M18 22C21.3137 22 24 19.3137 24 16C24 12.6863 21.3137 10 18 10C14.6863 10 12 12.6863 12 16C12 19.3137 14.6863 22 18 22Z" fill="#3F4446"/>
<path d="M36 22C39.3137 22 42 19.3137 42 16C42 12.6863 39.3137 10 36 10C32.6863 10 30 12.6863 30 16C30 19.3137 32.6863 22 36 22Z" fill="#3F4446"/>
<path d="M54 22C57.3137 22 60 19.3137 60 16C60 12.6863 57.3137 10 54 10C50.6863 10 48 12.6863 48 16C48 19.3137 50.6863 22 54 22Z" fill="#3F4446"/>
</svg>
